<svg xmlns="http://www.w3.org/2000/svg" xmlns:xlink="http://www.w3.org/1999/xlink" viewBox="0 0 121.09 28.88"><defs><style>.cls-1{fill:url(#linear-gradient);}.cls-2{opacity:0.2;fill:url(#linear-gradient-2);}</style><linearGradient id="linear-gradient" x1="60.54" y1="-5.75" x2="60.54" y2="32.33" gradientUnits="userSpaceOnUse"><stop offset="0" stop-color="#393839"/><stop offset="1" stop-color="#272425"/></linearGradient><linearGradient id="linear-gradient-2" x1="54.01" y1="-2.92" x2="54.01" y2="16.4" gradientUnits="userSpaceOnUse"><stop offset="0" stop-color="#fff"/><stop offset="1" stop-color="#fff" stop-opacity="0"/></linearGradient></defs><title>Asset 1</title><g id="Layer_2" data-name="Layer 2"><g id="OBJECTS"><path class="cls-1" d="M117.78,0H3A3,3,0,0,0,0,3v22.8a3,3,0,0,0,3,3H118.28a2.82,2.82,0,0,0,2.81-2.83V3.14a2,2,0,0,0-.06-.49A4.16,4.16,0,0,0,118.58.18,1.84,1.84,0,0,0,117.78,0Z"/><path class="cls-2" d="M108,0H2.16C1,0,0,1.27,0,2.83v10C35.33,16,75.55,16.74,108,0Z"/></g></g></svg>