<svg xmlns="http://www.w3.org/2000/svg" viewBox="0 0 149.84 45.35"><defs><style>.cls-1{fill:none;}</style></defs><title>Asset 2</title><g id="Layer_2" data-name="Layer 2"><g id="Layer_1-2" data-name="Layer 1"><path d="M56.06,41.62a3.59,3.59,0,0,0,1.06,2.69,3.84,3.84,0,0,0,2.79,1A4.84,4.84,0,0,0,62.1,45V43.44a3.33,3.33,0,0,1-1.59.43,2.33,2.33,0,0,1-1.73-.65,2.42,2.42,0,0,1-.63-1.76,2.46,2.46,0,0,1,.66-1.81A2.42,2.42,0,0,1,60.59,39a3,3,0,0,1,1.51.41V37.79a4.42,4.42,0,0,0-1.83-.29,4.26,4.26,0,0,0-3.07,1.1A4,4,0,0,0,56.06,41.62Z"/><path d="M72.9,34.51a2.64,2.64,0,0,0-.82,2v1a.18.18,0,0,1-.18.18H71v1.42h.86a.18.18,0,0,1,.18.18v5.87h2V39.29a.18.18,0,0,1,.18-.18h1.34V37.69H74.31a.18.18,0,0,1-.18-.18v-.83c0-1.2.73-1.45,1.35-1.45a2.61,2.61,0,0,1,.71.11V33.85a4.48,4.48,0,0,0-1-.11A3.17,3.17,0,0,0,72.9,34.51Z"/><path d="M78.62,34.51a2.63,2.63,0,0,0-.81,2v1a.18.18,0,0,1-.19.18h-.86v1.42h.86a.18.18,0,0,1,.19.18v5.87h2V39.29a.18.18,0,0,1,.18-.18h1.34V37.69H80a.18.18,0,0,1-.18-.18v-.83c0-1.2.73-1.45,1.35-1.45a2.56,2.56,0,0,1,.71.11V33.85a4.36,4.36,0,0,0-1-.11A3.18,3.18,0,0,0,78.62,34.51Z"/><path d="M86.22,37.5a3.63,3.63,0,0,0-2.66,1.09,4,4,0,0,0-1.07,3,3.45,3.45,0,0,0,3.81,3.8,5.94,5.94,0,0,0,2.64-.51V43.52a4.5,4.5,0,0,1-2.09.48c-1.82,0-2.27-1-2.33-1.87a.16.16,0,0,1,0-.14.2.2,0,0,1,.13-.06h4.93V41.1a3.76,3.76,0,0,0-.89-2.64A3.26,3.26,0,0,0,86.22,37.5Zm1.35,3.31H84.68a.16.16,0,0,1-.13-.06.19.19,0,0,1,0-.14,2.45,2.45,0,0,1,.56-1.3,1.5,1.5,0,0,1,1.15-.54c.7,0,1.54.32,1.54,1.86A.18.18,0,0,1,87.57,40.81Z"/><path d="M93.94,37.5a3.63,3.63,0,0,0-2.66,1.09,4,4,0,0,0-1.08,3A3.46,3.46,0,0,0,94,45.35a6,6,0,0,0,2.65-.51V43.52a4.51,4.51,0,0,1-2.1.48c-1.81,0-2.26-1-2.33-1.87a.24.24,0,0,1,0-.14.22.22,0,0,1,.13-.06h4.93V41.1a3.76,3.76,0,0,0-.88-2.64A3.27,3.27,0,0,0,93.94,37.5Zm1.34,3.31H92.4a.2.2,0,0,1-.14-.06.18.18,0,0,1,0-.14,2.37,2.37,0,0,1,.56-1.3,1.48,1.48,0,0,1,1.14-.54c.71,0,1.55.32,1.55,1.86A.19.19,0,0,1,95.28,40.81Z"/><path class="cls-1" d="M67,39c-1.48,1.37,1.1,2.69-.43,4.9a2.4,2.4,0,0,0,2.28-2.47A2.44,2.44,0,0,0,67,39Z"/><path class="cls-1" d="M66.71,39h-.14a2.49,2.49,0,0,0-.25,4.94C67.29,41.62,64.78,40.43,66.71,39Z"/><path d="M66.57,37.53a3.9,3.9,0,1,0,3.9,3.9A3.91,3.91,0,0,0,66.57,37.53Zm-.25,6.36A2.49,2.49,0,0,1,66.57,39h.14C64.78,40.43,67.29,41.62,66.32,43.89Zm.29,0c1.53-2.21-1-3.53.43-4.9a2.44,2.44,0,0,1,1.85,2.43A2.4,2.4,0,0,1,66.61,43.9Z"/><path d="M97.12,37.59l.14.13a4.7,4.7,0,0,1,1.16,3H146.7a3.15,3.15,0,0,0,3.14-3.14Z"/><path d="M56.71,37.59H0a3.15,3.15,0,0,0,3.14,3.14H55a4.81,4.81,0,0,1,1.41-2.91Z"/><rect x="94.6" y="0.05" width="10.25" height="32.4"/><polygon points="127.4 24.81 118.6 24.81 118.6 0.05 108.35 0.05 108.35 32.45 118.6 32.45 118.6 32.45 127.4 32.45 127.4 24.81"/><polygon points="149.8 24.71 141.01 24.76 140.88 0 130.62 0.05 130.79 32.45 141.05 32.4 141.05 32.4 149.84 32.35 149.8 24.71"/><polygon points="81.38 0.05 81.38 11.93 74.44 11.93 74.44 0.05 64.19 0.05 64.19 32.45 74.44 32.45 74.44 19.85 81.38 19.85 81.38 32.45 91.63 32.45 91.63 0.05 81.38 0.05"/><polygon points="17.75 0.05 0 0.05 0 3.19 7.31 3.19 7.31 32.45 10.45 32.45 10.45 3.19 17.75 3.19 17.75 0.05"/><polygon points="37.27 0.05 37.27 14.1 24.2 14.1 24.2 0.05 21.06 0.05 21.06 32.45 24.2 32.45 24.2 17.25 37.27 17.25 37.27 32.45 40.41 32.45 40.41 0.05 37.27 0.05"/><path d="M57.88,29.31H47.71V17.2h8.93a1.53,1.53,0,1,0,0-3.06H47.71v-11H57.88A3.14,3.14,0,0,0,61,.05H44.57v32.4H61A3.14,3.14,0,0,0,57.88,29.31Z"/></g></g></svg>