<svg height="480pt" viewBox="0 0 480 480" width="480pt" xmlns="http://www.w3.org/2000/svg"><path d="m0 464h16v16h-16zm0 0"/><path d="m382.238281 448h17.761719c13.253906 0 24-10.746094 24-24v-40c0-13.253906-10.746094-24-24-24h-100.449219c1.464844-2.503906 2.578125-5.195312 3.3125-8h25.136719c4.417969 0 8-3.582031 8-8v-40c0-4.417969-3.582031-8-8-8h-24v-8c0-4.417969-3.582031-8-8-8h-80c-4.417969 0-8 3.582031-8 8v56c.03125 5.632812 1.570312 11.15625 4.449219 16h-36.449219v-208h19.054688l12.945312 25.886719v38.113281c0 4.417969 3.582031 8 8 8h16v24c0 4.417969 3.582031 8 8 8h32c4.417969 0 8-3.582031 8-8v-24h16c4.417969 0 8-3.582031 8-8h96c13.253906 0 24-10.746094 24-24s-10.746094-24-24-24h-91.054688l8-16h19.054688c13.253906 0 24-10.746094 24-24v-16h16v-16h-16v-8c0-13.253906-10.746094-24-24-24v-32c0-17.671875-14.328125-32-32-32h-192c-17.671875 0-32 14.328125-32 32v32c-13.253906 0-24 10.746094-24 24v336c0 13.253906 10.746094 24 24 24h9.761719l4 16h-61.761719v16h448v-16h-101.761719zm-62.238281-136v24h-16v-24zm-96 32v-48h64v48c0 8.835938-7.164062 16-16 16h-32c-8.835938 0-16-7.164062-16-16zm40-104h-16v-16h16zm24-32h-64v-24h64zm16-24h24v16h-24zm104 8c0 4.417969-3.582031 8-8 8h-56v-16h56c4.417969 0 8 3.582031 8 8zm-116.945312-24h-70.109376l-8-16h86.109376zm-179.054688-152h192c8.835938 0 16 7.164062 16 16h-224c0-8.835938 7.164062-16 16-16zm-16 32h224v16h-224zm-24 376v-336c0-4.417969 3.582031-8 8-8h256c4.417969 0 8 3.582031 8 8v40c0 4.417969-3.582031 8-8 8h-168c-4.417969 0-8 3.582031-8 8v224c0 4.417969 3.582031 8 8 8h232c4.417969 0 8 3.582031 8 8v40c0 4.417969-3.582031 8-8 8h-320c-4.417969 0-8-3.582031-8-8zm233.761719 24 4 16h-147.523438l4-16zm-195.515625 16-4-16h43.507812l-4 16zm216 0-4-16h43.507812l-4 16zm0 0"/><path d="m88 96h16v16h-16zm0 0"/><path d="m312 96h16v16h-16zm0 0"/><path d="m88 400h16v16h-16zm0 0"/><path d="m376 400h16v16h-16zm0 0"/><path d="m24 120h16v184h-16zm0 0"/></svg>