<svg xmlns="http://www.w3.org/2000/svg" xmlns:xlink="http://www.w3.org/1999/xlink" viewBox="0 0 63.19 63.8"><defs><style>.cls-1{isolation:isolate;}.cls-2{fill:#f2f2f2;}.cls-3{fill:#e2e2e2;}.cls-4{mix-blend-mode:screen;fill:url(#radial-gradient);}.cls-5{fill:none;stroke-miterlimit:10;stroke:url(#linear-gradient);}.cls-6{fill:#bcbcbc;}.cls-7{fill:#9b9b9b;}</style><radialGradient id="radial-gradient" cx="15.36" cy="47.71" r="56.54" gradientUnits="userSpaceOnUse"><stop offset="0" stop-color="#fff"/><stop offset="1"/></radialGradient><linearGradient id="linear-gradient" x1="31.59" y1="63.19" x2="31.59" gradientUnits="userSpaceOnUse"><stop offset="0" stop-color="#d1d3d4"/><stop offset="1" stop-color="#fff"/></linearGradient></defs><title>Asset 1</title><g class="cls-1"><g id="Layer_2" data-name="Layer 2"><g id="OBJECTS"><g id="_Group_" data-name="&lt;Group&gt;"><g id="_Group_2" data-name="&lt;Group&gt;"><g id="_Group_3" data-name="&lt;Group&gt;"><path id="_Path_" data-name="&lt;Path&gt;" class="cls-2" d="M62.69,32.7A31.09,31.09,0,1,1,31.59,1.61,31.16,31.16,0,0,1,62.69,32.7Z"/><path id="_Path_2" data-name="&lt;Path&gt;" class="cls-3" d="M62.69,31.59A31.09,31.09,0,1,1,31.59.5,31.16,31.16,0,0,1,62.69,31.59Z"/><path id="_Path_3" data-name="&lt;Path&gt;" class="cls-4" d="M62.69,31.59a31.16,31.16,0,0,1-.5,5.59c-34.2.93-48.56-14-54.5-25.47a31.09,31.09,0,0,1,55,19.88Z"/></g><path id="_Path_4" data-name="&lt;Path&gt;" class="cls-5" d="M62.69,31.59A31.09,31.09,0,1,1,31.59.5,31.16,31.16,0,0,1,62.69,31.59Z"/></g><path id="_Path_5" data-name="&lt;Path&gt;" class="cls-6" d="M51.59,31.59a20,20,0,1,1-40,0,20,20,0,0,1,40,0Z"/><path id="_Path_6" data-name="&lt;Path&gt;" class="cls-7" d="M46.71,18.51a20,20,0,0,0-28.19,28.2,20,20,0,1,1,28.19-28.2Z"/></g></g></g></g></svg>