<?xml version="1.0" encoding="iso-8859-1"?>
<!-- Generator: Adobe Illustrator 19.0.0, SVG Export Plug-In . SVG Version: 6.00 Build 0)  -->
<svg version="1.1" id="Capa_1" xmlns="http://www.w3.org/2000/svg" xmlns:xlink="http://www.w3.org/1999/xlink" x="0px" y="0px"
	 viewBox="0 0 475.841 475.841" style="enable-background:new 0 0 475.841 475.841;" xml:space="preserve">
<g>
	<g>
		<path d="M437.971,338.421c-0.1-0.9-0.3-1.7-0.6-2.5l-38.5-91.8c-6.1-30.5-32.7-52.6-63.8-52.9h-9.1v-33.1c0-4.4-3.6-8-8-8h-40
			c-4.4,0-8,3.6-8,8v33.1h-64v-33.1c0-4.5-3.6-8-8-8h-40c-4.4,0-8,3.6-8,8v33.1h-15.5c-32,0.2-59.1,23.5-64.2,55.1l-31.8,90
			c-0.2,0.7-0.4,1.4-0.5,2.1l-8,106.9c-0.3,4.4,3,8.2,7.4,8.6c0.2,0,0.4,0,0.6,0h400c4.4,0,8-3.6,8-8c0-0.2,0-0.4,0-0.6
			L437.971,338.421z M53.371,347.021h88.6c4.4,0,8-3.6,8-8c0-4.4-3.6-8-8-8h-84.7l28.3-80c0.2-0.5,0.3-0.9,0.4-1.4
			c3.5-24.2,24.1-42.2,48.5-42.4h23.5c4.4,0,8-3.6,8-8v-33.1h24v33.1c0,4.4,3.6,8,8,8h80c4.4,0,8-3.6,8-8v-33.1h24v33.1
			c0,4.4,3.6,8,8,8h17.1c23.8,0.3,44,17.4,48.2,40.8c0.1,0.5,0.3,1.1,0.5,1.6l34.2,81.4h-84c-4.4,0-8,3.6-8,8c0,4.4,3.6,8,8,8h88.6
			l4.3,58h-377.8L53.371,347.021z M46.571,437.921l1.3-16.9h380.2l1.3,16.9H46.571z"/>
	</g>
</g>
<g>
	<g>
		<path d="M475.671,161.121l-5.7-52.9c-2.3-36.5-37.7-64.2-70.6-70l-18.4-3.1c-100.7-17.6-203.7-17.6-304.4,0
			c-36.7,6.4-68.4,39.2-70.6,72.8l-5.8,53.2c-0.9,7.5,1.8,15,7.2,20.3c4.4,4.4,10.4,6.8,16.6,6.8c1,0,2.1-0.1,3.1-0.2l85.9-11.1
			c12.1-1.7,21-12.1,21-24.2v-30.1c0.1-6.3,4.9-11.6,11.2-12.4c61.6-8.6,124-8.6,185.6,0c6.3,0.8,11.1,6.1,11.2,12.4v30.1
			c-0.1,12.2,8.9,22.6,21,24.2l85.9,11.2c7.1,0.9,14.4-1.6,19.6-6.7C473.871,176.121,476.571,168.621,475.671,161.121z
			 M118.071,152.621h-0.1c0.1,4.2-2.9,7.7-7,8.4l-85.8,11.2c-2.4,0.3-4.7-0.5-6.4-2.2c-1.9-1.9-2.8-4.5-2.5-7.2l2.3-21.5l99.5-14.2
			V152.621z M332.971,94.321c-63-8.8-127-8.8-190,0c-9.6,1.4-18,7.5-22.1,16.3l-100.6,14.4l1.7-15.7c1.7-26.5,28-53.3,57.4-58.4
			c98.9-17.3,200-17.3,298.9,0l18.4,3.2c26.8,4.7,55.6,26.6,57.4,55.6l1.7,15.3l-100.6-14.4
			C350.971,101.721,342.671,95.621,332.971,94.321z M457.271,170.021c-1.7,1.7-4,2.5-6.4,2.2l-85.9-11.2c-4.1-0.6-7.1-4.2-7-8.4
			v-25.5l99.5,14.2l2.3,21.5C460.071,165.421,459.171,168.121,457.271,170.021z"/>
	</g>
</g>
<g>
	<g>
		<path d="M237.971,225.221c-43.5,0-78.9,35.4-78.9,78.9s35.4,78.9,78.9,78.9s78.9-35.4,78.9-78.9S281.471,225.221,237.971,225.221z
			 M237.971,368.021c-35.3,0-63.9-28.6-63.9-63.9s28.6-63.9,63.9-63.9s63.9,28.6,63.9,63.9S273.271,368.021,237.971,368.021z"/>
	</g>
</g>
<g>
</g>
<g>
</g>
<g>
</g>
<g>
</g>
<g>
</g>
<g>
</g>
<g>
</g>
<g>
</g>
<g>
</g>
<g>
</g>
<g>
</g>
<g>
</g>
<g>
</g>
<g>
</g>
<g>
</g>
</svg>
