<svg height="480pt" viewBox="-112 0 480 480.00001" width="480pt" xmlns="http://www.w3.org/2000/svg"><path d="m38.488281 477.160156.375.136719c1.191407.382813 2.402344.679687 3.625.984375.6875.175781 1.359375.382812 2.0625.535156.921875.191406 4.679688.800782 5.648438.878906 1.925781.203126 3.863281.304688 5.800781.304688h144c1.9375 0 3.875-.101562 5.800781-.304688.96875-.09375 4.726563-.6875 5.648438-.878906.703125-.152344 1.375-.359375 2.0625-.535156 1.214843-.304688 2.398437-.601562 3.625-.984375l.375-.136719c22.941406-7.578125 38.449219-29 38.488281-53.160156v-376c0-20.800781-21.550781-44.800781-50.28125-47.710938-1.898438-.195312-3.808594-.289062-5.71875-.289062h-144c-1.910156 0-3.820312.09375-5.71875.289062-28.730469 2.910157-50.28125 26.910157-50.28125 47.710938v376c.0390625 24.160156 15.546875 45.582031 38.488281 53.160156zm-22.488281-397.160156h224v288h-224zm40 384c-2.597656-.011719-5.191406-.28125-7.734375-.800781l-.449219-.070313c-2.070312-.46875-4.101562-1.097656-6.074218-1.890625-15.652344-6.292969-25.742188-23.132812-25.742188-45.238281v-32h224v32c0 22.105469-10.089844 38.945312-25.742188 45.257812-1.972656.789063-4.003906 1.417969-6.074218 1.886719l-.449219.070313c-2.546875.515625-5.136719.777344-7.734375.785156zm144-448c2.6875-.003906 5.367188.265625 8 .800781.304688.0625.574219.191407.878906.253907 18.183594 4.140624 31.09375 20.296874 31.121094 38.945312v8h-224v-8c.03125-18.648438 12.949219-34.804688 31.136719-38.9375.304687-.0625.574219-.191406.878906-.253906 2.628906-.539063 5.300781-.808594 7.984375-.808594zm0 0"/><path d="m128 400c-13.253906 0-24 10.746094-24 24s10.746094 24 24 24 24-10.746094 24-24-10.746094-24-24-24zm0 32c-4.417969 0-8-3.582031-8-8s3.582031-8 8-8 8 3.582031 8 8-3.582031 8-8 8zm0 0"/><path d="m104 48h48c4.417969 0 8-3.582031 8-8s-3.582031-8-8-8h-48c-4.417969 0-8 3.582031-8 8s3.582031 8 8 8zm0 0"/><path d="m72 48c3.25.019531 6.1875-1.929688 7.433594-4.933594 1.246094-3 .554687-6.457031-1.753906-8.746094-2.289063-2.308593-5.746094-3-8.746094-1.753906-3.003906 1.246094-4.953125 4.183594-4.933594 7.433594-.023438 2.128906.8125 4.175781 2.320312 5.679688 1.503907 1.507812 3.550782 2.34375 5.679688 2.320312zm0 0"/><path d="m117.65625 133.65625c3.03125-3.140625 2.988281-8.128906-.097656-11.214844-3.085938-3.085937-8.074219-3.128906-11.214844-.097656l-64 64c-2.078125 2.007812-2.914062 4.984375-2.179688 7.78125.730469 2.796875 2.914063 4.980469 5.710938 5.710938 2.796875.734374 5.773438-.101563 7.78125-2.179688zm0 0"/><path d="m189.832031 122.527344c-3.023437-3.21875-8.082031-3.378906-11.304687-.359375l-128 120c-2.171875 1.933593-3.125 4.894531-2.488282 7.730469.640626 2.839843 2.765626 5.105468 5.558594 5.925781 2.792969.816406 5.808594.054687 7.875-1.992188l128-120c3.21875-3.023437 3.378906-8.082031.359375-11.304687zm0 0"/><path d="m173.65625 210.34375c-3.125-3.121094-8.1875-3.121094-11.3125 0l-40 40c-2.078125 2.007812-2.914062 4.984375-2.179688 7.78125.730469 2.796875 2.914063 4.980469 5.710938 5.710938 2.796875.734374 5.773438-.101563 7.78125-2.179688l40-40c3.121094-3.125 3.121094-8.1875 0-11.3125zm0 0"/><path d="m221.65625 234.34375c-3.125-3.121094-8.1875-3.121094-11.3125 0l-72 72c-2.078125 2.007812-2.914062 4.984375-2.179688 7.78125.730469 2.796875 2.914063 4.980469 5.710938 5.710938 2.796875.734374 5.773438-.101563 7.78125-2.179688l72-72c3.121094-3.125 3.121094-8.1875 0-11.3125zm0 0"/></svg>