<?xml version='1.0' encoding='utf-8'?>
<!DOCTYPE svg PUBLIC '-//W3C//DTD SVG 1.1//EN' 'http://www.w3.org/Graphics/SVG/1.1/DTD/svg11.dtd'>
<svg version="1.1" xmlns="http://www.w3.org/2000/svg" viewBox="0 0 512 512" xmlns:xlink="http://www.w3.org/1999/xlink" enable-background="new 0 0 512 512">
  <g>
    <g>
      <path d="m132.2,89.4c-24.2,0-43.8,19.6-43.8,43.8 0,24.2 19.6,43.8 43.8,43.8s43.8-19.6 43.8-43.8c0-24.2-19.6-43.8-43.8-43.8zm0,66.7c-12.7,0-22.9-10.3-22.9-22.9 0-12.7 10.3-22.9 22.9-22.9s22.9,10.3 22.9,22.9c0,12.6-10.2,22.9-22.9,22.9z"/>
      <path d="m497.9,308.2l-294-293.8c-3.1-2.1-6.3-4.2-9.4-3.1l-151.2,24c-4.2,0-7.3,4.2-8.3,8.3l-24,151.1c0,4.2 1,7.3 3.1,9.4l294,293.8c2.1,2.1 4.2,3.1 7.3,3.1 3.1,0 5.2-1 7.3-3.1l175.1-175.1c4.2-4.1 4.2-10.4 0.1-14.6zm-181.4,167.8l-283.6-283.4 21.9-137.6 137.6-21.9 284.6,282.4-160.5,160.5z"/>
    </g>
  </g>
</svg>
