<svg xmlns="http://www.w3.org/2000/svg" viewBox="0 0 891 270.03"><defs><style>.cls-1{fill:#fff;}.cls-2{fill:none;}</style></defs><title>Asset 1</title><g id="Layer_2" data-name="Layer 2"><g id="Layer_1-2" data-name="Layer 1"><g id="Layer_2-2" data-name="Layer 2"><g id="Layer_1-2-2" data-name="Layer 1-2"><path class="cls-1" d="M333.35,247.49a21.31,21.31,0,0,0,6.31,16,22.82,22.82,0,0,0,16.59,5.95,28.78,28.78,0,0,0,13-1.84v-9.28a19.86,19.86,0,0,1-9.46,2.56A13.88,13.88,0,0,1,349.53,257a14.42,14.42,0,0,1-3.75-10.46,14.66,14.66,0,0,1,3.92-10.77,14.39,14.39,0,0,1,10.59-3.86,17.76,17.76,0,0,1,9,2.44v-9.64A26.43,26.43,0,0,0,358.39,223a25.3,25.3,0,0,0-18.26,6.54A23.8,23.8,0,0,0,333.35,247.49Z"/><path class="cls-1" d="M433.49,205.21a15.7,15.7,0,0,0-4.88,11.89v6a1.07,1.07,0,0,1-1.07,1.07h-5.35v8.44h5.11a1.06,1.06,0,0,1,1.07,1.07h0v34.91h11.9V233.63a1.07,1.07,0,0,1,1.07-1.07h8v-8.44h-7.44a1.07,1.07,0,0,1-1.07-1.07h0v-4.94c0-7.13,4.34-8.62,8-8.62a15.47,15.47,0,0,1,4.22.65v-8.86a26.37,26.37,0,0,0-5.94-.65A18.83,18.83,0,0,0,433.49,205.21Z"/><path class="cls-1" d="M467.5,205.21a15.68,15.68,0,0,0-4.82,11.89v6a1.06,1.06,0,0,1-1.06,1.07h-5.18v8.44h5.12a1.06,1.06,0,0,1,1.12,1s0,0,0,.06v34.91h11.9V233.63a1.07,1.07,0,0,1,1.07-1.07h8v-8.44h-7.91a1.07,1.07,0,0,1-1.07-1.07h0v-4.94c0-7.13,4.34-8.62,8-8.62a15.49,15.49,0,0,1,4.23.65v-8.86a26.46,26.46,0,0,0-5.95-.65A18.89,18.89,0,0,0,467.5,205.21Z"/><path class="cls-1" d="M512.69,223a21.53,21.53,0,0,0-15.81,6.48,23.79,23.79,0,0,0-6.37,17.84,20.53,20.53,0,0,0,18.19,22.6,20.24,20.24,0,0,0,4.47,0,35.17,35.17,0,0,0,15.7-3v-8.09a26.81,26.81,0,0,1-12.43,2.86c-10.82,0-13.5-5.95-13.86-11.12a1,1,0,0,1,0-.83,1.23,1.23,0,0,1,.78-.36h29.31v-4.94a22.35,22.35,0,0,0-5.29-15.69A19.38,19.38,0,0,0,512.69,223Zm8,19.68H503.54a1,1,0,0,1-.78-.36,1.19,1.19,0,0,1,0-.83,14.64,14.64,0,0,1,3.33-7.73,8.91,8.91,0,0,1,6.84-3.21c4.16,0,9.16,1.9,9.16,11.06a1.07,1.07,0,0,1-1,1.11A1,1,0,0,1,520.72,242.67Z"/><path class="cls-1" d="M558.6,223a21.57,21.57,0,0,0-15.82,6.48,23.8,23.8,0,0,0-6.42,17.84A20.58,20.58,0,0,0,555,269.69a21.38,21.38,0,0,0,4,0,35.56,35.56,0,0,0,15.75-3v-7.85a26.76,26.76,0,0,1-12.48,2.86c-10.77,0-13.44-5.95-13.86-11.12a1.47,1.47,0,0,1,0-.83,1.32,1.32,0,0,1,.77-.36h29.32v-4.94a22.33,22.33,0,0,0-5.23-15.69A19.43,19.43,0,0,0,558.6,223Zm8,19.68H549.44a1.15,1.15,0,0,1-.83-.36,1.08,1.08,0,0,1,0-.83,14.15,14.15,0,0,1,3.33-7.73,8.81,8.81,0,0,1,6.78-3.21c4.22,0,9.22,1.9,9.22,11.06a1.14,1.14,0,0,1-1.17,1.1Z"/><path class="cls-2" d="M398.4,231.91c-8.8,8.14,6.55,16-2.55,29.13a14.27,14.27,0,0,0,13.56-14.68A14.51,14.51,0,0,0,398.4,231.91Z"/><path class="cls-2" d="M396.68,231.91h-.83a14.8,14.8,0,0,0-1.49,29.37C400.13,247.49,385.2,240.41,396.68,231.91Z"/><path class="cls-1" d="M395.85,223.17A23.19,23.19,0,1,0,419,246.36,23.19,23.19,0,0,0,395.85,223.17ZM394.36,261a14.8,14.8,0,0,1,1.49-29.07h.83C385.2,240.41,400.13,247.49,394.36,261Zm1.73,0c9.09-13.14-5.95-21,2.55-29.13a14.5,14.5,0,0,1,11,14.45A14.26,14.26,0,0,1,396.09,261Z"/><path class="cls-1" d="M577.51,223.52l.83.78a27.92,27.92,0,0,1,6.9,17.84H872.33A18.74,18.74,0,0,0,891,223.46Z"/><path class="cls-1" d="M337.22,223.52H0a18.72,18.72,0,0,0,18.67,18.67H327.05a28.62,28.62,0,0,1,8.38-17.3Z"/><rect class="cls-1" x="562.52" y="0.3" width="60.95" height="192.66"/><polygon class="cls-1" points="757.56 147.53 705.24 147.53 705.24 0.3 644.29 0.3 644.29 192.96 705.24 192.96 705.24 192.96 757.56 192.96 757.56 147.53"/><polygon class="cls-1" points="890.76 146.93 838.49 147.23 837.72 0 776.71 0.3 777.72 192.96 838.73 192.66 838.73 192.66 891 192.36 890.76 146.93"/><polygon class="cls-1" points="483.91 0.3 483.91 70.94 442.65 70.94 442.65 0.3 381.7 0.3 381.7 192.96 442.65 192.96 442.65 118.03 483.91 118.03 483.91 192.96 544.86 192.96 544.86 0.3 483.91 0.3"/><polygon class="cls-1" points="105.55 0.3 0 0.3 0 18.97 43.47 18.97 43.47 192.96 62.14 192.96 62.14 18.97 105.55 18.97 105.55 0.3"/><polygon class="cls-1" points="221.62 0.3 221.62 83.84 143.9 83.84 143.9 0.3 125.23 0.3 125.23 192.96 143.9 192.96 143.9 102.57 221.62 102.57 221.62 192.96 240.29 192.96 240.29 0.3 221.62 0.3"/><path class="cls-1" d="M344.17,174.29H283.7v-72h53.1a9.1,9.1,0,0,0,0-18.2H283.7V18.67h60.47A18.67,18.67,0,0,0,362.73.3H265V193h97.7A18.67,18.67,0,0,0,344.17,174.29Z"/></g></g></g></g></svg>