<svg xmlns="http://www.w3.org/2000/svg" xmlns:xlink="http://www.w3.org/1999/xlink" viewBox="0 0 163.34 163.33"><defs><style>.cls-1{fill:url(#radial-gradient);}.cls-2{fill:url(#radial-gradient-2);}.cls-3{fill:url(#radial-gradient-3);}.cls-4{fill:url(#radial-gradient-4);}.cls-5{fill:url(#radial-gradient-5);}.cls-6{fill:url(#radial-gradient-6);}.cls-7{fill:url(#radial-gradient-7);}.cls-8{fill:url(#radial-gradient-8);}.cls-9{fill:url(#radial-gradient-9);}.cls-10{fill:url(#radial-gradient-10);}.cls-11{fill:url(#radial-gradient-11);}.cls-12{fill:url(#radial-gradient-12);}.cls-13{fill:url(#radial-gradient-13);}.cls-14{fill:url(#radial-gradient-14);}.cls-15{fill:url(#radial-gradient-15);}.cls-16{fill:url(#radial-gradient-16);}.cls-17{fill:url(#radial-gradient-17);}.cls-18{fill:url(#radial-gradient-18);}.cls-19{fill:url(#radial-gradient-19);}.cls-20{fill:url(#radial-gradient-20);}.cls-21{fill:url(#radial-gradient-21);}.cls-22{fill:url(#radial-gradient-22);}.cls-23{fill:url(#radial-gradient-23);}.cls-24{fill:url(#radial-gradient-24);}.cls-25{fill:url(#radial-gradient-25);}.cls-26{fill:url(#radial-gradient-26);}.cls-27{fill:url(#radial-gradient-27);}.cls-28{fill:none;stroke:#000d20;stroke-miterlimit:10;stroke-width:4px;}.cls-29{fill:#000d20;}</style><radialGradient id="radial-gradient" cx="87.82" cy="4.2" r="200.56" gradientUnits="userSpaceOnUse"><stop offset="0.13" stop-color="#fff"/><stop offset="0.34" stop-color="#fcfcfd"/><stop offset="0.52" stop-color="#f1f5f7"/><stop offset="0.69" stop-color="#dfe7ec"/><stop offset="0.85" stop-color="#c6d5dd"/><stop offset="1" stop-color="#a8becb"/></radialGradient><radialGradient id="radial-gradient-2" cx="88.1" cy="9.94" r="198" xlink:href="#radial-gradient"/><radialGradient id="radial-gradient-3" cx="88.38" cy="15.51" r="195.26" xlink:href="#radial-gradient"/><radialGradient id="radial-gradient-4" cx="88.64" cy="20.89" r="192.36" xlink:href="#radial-gradient"/><radialGradient id="radial-gradient-5" cx="88.89" cy="26.1" r="189.33" xlink:href="#radial-gradient"/><radialGradient id="radial-gradient-6" cx="89.14" cy="31.13" r="186.17" xlink:href="#radial-gradient"/><radialGradient id="radial-gradient-7" cx="89.38" cy="36.01" r="182.91" xlink:href="#radial-gradient"/><radialGradient id="radial-gradient-8" cx="89.62" cy="40.73" r="179.58" xlink:href="#radial-gradient"/><radialGradient id="radial-gradient-9" cx="89.85" cy="45.3" r="176.18" xlink:href="#radial-gradient"/><radialGradient id="radial-gradient-10" cx="90.07" cy="49.73" r="172.73" xlink:href="#radial-gradient"/><radialGradient id="radial-gradient-11" cx="90.3" cy="54.03" r="169.26" xlink:href="#radial-gradient"/><radialGradient id="radial-gradient-12" cx="90.52" cy="58.21" r="165.78" xlink:href="#radial-gradient"/><radialGradient id="radial-gradient-13" cx="90.74" cy="62.27" r="162.3" xlink:href="#radial-gradient"/><radialGradient id="radial-gradient-14" cx="90.97" cy="66.22" r="158.84" xlink:href="#radial-gradient"/><radialGradient id="radial-gradient-15" cx="91.19" cy="70.08" r="155.42" xlink:href="#radial-gradient"/><radialGradient id="radial-gradient-16" cx="91.42" cy="73.86" r="152.04" xlink:href="#radial-gradient"/><radialGradient id="radial-gradient-17" cx="91.66" cy="77.56" r="148.72" xlink:href="#radial-gradient"/><radialGradient id="radial-gradient-18" cx="91.9" cy="81.2" r="145.47" xlink:href="#radial-gradient"/><radialGradient id="radial-gradient-19" cx="92.14" cy="84.79" r="142.3" xlink:href="#radial-gradient"/><radialGradient id="radial-gradient-20" cx="92.4" cy="88.34" r="139.23" xlink:href="#radial-gradient"/><radialGradient id="radial-gradient-21" cx="92.67" cy="91.87" r="136.27" xlink:href="#radial-gradient"/><radialGradient id="radial-gradient-22" cx="92.94" cy="95.39" r="133.43" xlink:href="#radial-gradient"/><radialGradient id="radial-gradient-23" cx="93.23" cy="98.91" r="130.73" xlink:href="#radial-gradient"/><radialGradient id="radial-gradient-24" cx="93.53" cy="102.45" r="128.19" xlink:href="#radial-gradient"/><radialGradient id="radial-gradient-25" cx="93.85" cy="106.01" r="125.81" xlink:href="#radial-gradient"/><radialGradient id="radial-gradient-26" cx="94.19" cy="109.61" r="123.63" xlink:href="#radial-gradient"/><radialGradient id="radial-gradient-27" cx="94.54" cy="113.27" r="121.66" xlink:href="#radial-gradient"/></defs><title>Website</title><g id="Layer_2" data-name="Layer 2"><g id="OBJECTS"><circle class="cls-1" cx="81.67" cy="81.67" r="81.67"/><path class="cls-2" d="M162,79.92a80.3,80.3,0,1,1-82-78.53A80.31,80.31,0,0,1,162,79.92Z"/><path class="cls-3" d="M160.55,78.17A79,79,0,1,1,78.17,2.78,79,79,0,0,1,160.55,78.17Z"/><path class="cls-4" d="M159.16,76.42A77.67,77.67,0,1,1,76.42,4.17,77.68,77.68,0,0,1,159.16,76.42Z"/><path class="cls-5" d="M157.77,74.67A76.42,76.42,0,1,1,74.67,5.56,76.41,76.41,0,0,1,157.77,74.67Z"/><path class="cls-6" d="M156.38,72.92A75.22,75.22,0,1,1,72.92,7,75.21,75.21,0,0,1,156.38,72.92Z"/><path class="cls-7" d="M155,71.17A74.07,74.07,0,1,1,71.17,8.35,74.06,74.06,0,0,1,155,71.17Z"/><path class="cls-8" d="M153.6,69.42A73,73,0,1,1,69.42,9.74,73,73,0,0,1,153.6,69.42Z"/><path class="cls-9" d="M152.2,67.67A71.91,71.91,0,1,1,67.67,11.13,71.91,71.91,0,0,1,152.2,67.67Z"/><path class="cls-10" d="M150.81,65.92a70.91,70.91,0,1,1-84.89-53.4A70.92,70.92,0,0,1,150.81,65.92Z"/><path class="cls-11" d="M149.42,64.17A70,70,0,1,1,64.17,13.91,70,70,0,0,1,149.42,64.17Z"/><path class="cls-12" d="M148,62.42A69.09,69.09,0,1,1,62.43,15.3,69.09,69.09,0,0,1,148,62.42Z"/><path class="cls-13" d="M146.64,60.67a68.28,68.28,0,1,1-86-44A68.28,68.28,0,0,1,146.64,60.67Z"/><path class="cls-14" d="M145.25,58.92A67.53,67.53,0,1,1,58.93,18.09,67.53,67.53,0,0,1,145.25,58.92Z"/><path class="cls-15" d="M143.85,57.17A66.84,66.84,0,1,1,57.18,19.48,66.83,66.83,0,0,1,143.85,57.17Z"/><path class="cls-16" d="M142.46,55.42a66.21,66.21,0,1,1-87-34.55A66.21,66.21,0,0,1,142.46,55.42Z"/><path class="cls-17" d="M141.07,53.67A65.66,65.66,0,1,1,53.68,22.26,65.66,65.66,0,0,1,141.07,53.67Z"/><path class="cls-18" d="M139.68,51.92A65.19,65.19,0,1,1,51.93,23.65,65.18,65.18,0,0,1,139.68,51.92Z"/><path class="cls-19" d="M138.29,50.17A64.79,64.79,0,1,1,50.18,25,64.79,64.79,0,0,1,138.29,50.17Z"/><path class="cls-20" d="M136.9,48.42a64.46,64.46,0,1,1-88.47-22A64.46,64.46,0,0,1,136.9,48.42Z"/><path class="cls-21" d="M135.5,46.67A64.2,64.2,0,1,1,46.68,27.82,64.21,64.21,0,0,1,135.5,46.67Z"/><path class="cls-22" d="M134.11,44.92a64,64,0,1,1-89.18-15.7A64,64,0,0,1,134.11,44.92Z"/><path class="cls-23" d="M132.72,43.17A63.93,63.93,0,1,1,43.18,30.61,63.92,63.92,0,0,1,132.72,43.17Z"/><path class="cls-24" d="M131.33,41.42A63.92,63.92,0,1,1,41.43,32,63.91,63.91,0,0,1,131.33,41.42Z"/><path class="cls-25" d="M129.94,39.67a64,64,0,1,1-90.26-6.28A64,64,0,0,1,129.94,39.67Z"/><path class="cls-26" d="M128.55,37.92a64.12,64.12,0,1,1-90.62-3.14A64.11,64.11,0,0,1,128.55,37.92Z"/><path class="cls-27" d="M127.15,36.17a64.33,64.33,0,1,1-91,0A64.32,64.32,0,0,1,127.15,36.17Z"/><path class="cls-28" d="M17.85,81.67a63.82,63.82,0,1,1,63.82,63.82A63.82,63.82,0,0,1,17.85,81.67Z"/><path class="cls-29" d="M113.37,60.43l-1.14.36-6.08.54-1.72,2.74-1.25-.39-4.84-4.37L97.64,57l-.94-2.42-3-2.73-3.59-.7L90,52.83l3.52,3.44,1.72,2-1.93,1-1.58-.46-2.36-1L89.43,56l-3.09-1.27-1,4.47-3.12.71.31,2.5,4.06.78.7-4,3.36.5,1.56.91h2.5L96.4,64l4.54,4.61-.33,1.79-3.67-.47-6.32,3.2-4.56,5.46L85.47,81H83.83l-3-1.4-3,1.4.74,3.13,1.29-1.49,2.26-.07L82,85.38l1.88.55L85.7,88l3.06-.86,3.5.55,4.06,1.09,2,.24,3.44,3.9,6.63,3.9-4.29,8.2-4.53,2.1-1.71,4.68-6.56,4.38-.69,2.52a38.11,38.11,0,0,0,22.74-58.3Z"/><path class="cls-29" d="M86.06,101.62l-2.78-5.16,2.55-5.32-2.55-.76L80.41,87.5l-6.35-1.42L72,81.67v2.62H71l-5.47-7.42V70.78l-4-6.52-6.37,1.13H50.89L48.73,64l2.76-2.18-2.75.63a38.12,38.12,0,0,0,32.93,57.41,40,40,0,0,0,4.79-.33l-.4-4.63s1.75-6.87,1.75-7.1S86.06,101.62,86.06,101.62Z"/><path class="cls-29" d="M57.68,55.8l6.78-.94,3.13-1.72,3.52,1,5.61-.31,1.93-3,2.81.46,6.81-.64,1.88-2.07L92.8,46.8l3.75.57,1.36-.21A38,38,0,0,0,52.23,57.37h0Zm25.6-8.51,3.9-2.15,2.5,1.45-3.62,2.76-3.46.35-1.56-1Zm-11.55.31,1.72.72,2.26-.72,1.22,2.13-5.2,1.36-2.5-1.46S71.68,48.06,71.73,47.6Z"/></g></g></svg>