<svg xmlns="http://www.w3.org/2000/svg" viewBox="0 0 110.86 22.45"><defs><style>.cls-1{fill:#a56d29;}</style></defs><title>Career Opportunity</title><g id="Layer_2" data-name="Layer 2"><g id="Layer_1-2" data-name="Layer 1"><path class="cls-1" d="M8.14,1.28,8.1.16c0-.11,0-.16.1-.16s.07.11.14.33a4.38,4.38,0,0,1,.09,1c0,.47,0,.8,0,1a6.66,6.66,0,0,1,1.39-.16,3.81,3.81,0,0,1,2.72.91,3.35,3.35,0,0,1,1.08,2.62v.08q0,.33-.27.33A.7.7,0,0,1,13,6c-.88-.53-1.69-1-2.42-1.39a14,14,0,0,0-2.27-1A45.7,45.7,0,0,1,7.25,9.35a32,32,0,0,1-1.88,5.43l.5,0a9.5,9.5,0,0,0,4.29-1.1,8.11,8.11,0,0,0,3.28-2.82l.17-.23a.2.2,0,0,1,0,.11.49.49,0,0,1-.06.22,8.77,8.77,0,0,1-3.72,3.27A11.12,11.12,0,0,1,5,15.51q-1.26,2.25-2.34,2.25c-.12,0-.18,0-.18-.11a.13.13,0,0,1,.12-.14L3,17.43a4,4,0,0,0,1.82-1.92,4.75,4.75,0,0,1-3.16-1.1A4.06,4.06,0,0,1,.47,11.22,7.94,7.94,0,0,1,2.13,6.7,10.76,10.76,0,0,1,6,3.2,9.28,9.28,0,0,0,5,3.14a7.44,7.44,0,0,0-1.47.22A6.42,6.42,0,0,0,1.78,4C1,4.47.66,5,.66,5.51a.61.61,0,0,0,0,.15v.16c0,.17-.06.25-.18.25S.23,6,.15,5.76A1.55,1.55,0,0,1,0,5.18c0-.77.68-1.35,2.05-1.77a10.86,10.86,0,0,1,3-.44,12.14,12.14,0,0,1,1.22.09,11.76,11.76,0,0,1,1.85-.64C8.14,2.15,8.14,1.77,8.14,1.28ZM1.53,10.82a3.72,3.72,0,0,0,1,2.73,3.85,3.85,0,0,0,2.68,1.21A26.13,26.13,0,0,0,7,9.52,44.36,44.36,0,0,0,8.05,3.61a13.84,13.84,0,0,0-1.67-.37A8.2,8.2,0,0,0,2.93,6.36,8.11,8.11,0,0,0,1.53,10.82ZM8.09,2.75a7.05,7.05,0,0,0-1.4.37l1.38.22C8.08,3.21,8.09,3,8.09,2.75Zm4.77,2.33C13,5.08,13,5,13,4.89a1.37,1.37,0,0,0-.11-.47,3.09,3.09,0,0,0-1.6-1.3,6,6,0,0,0-2.2-.42l-.7,0-.06.66A15,15,0,0,1,12.6,5,.72.72,0,0,0,12.86,5.08Z"/><path class="cls-1" d="M19.64,11.13s.06,0,.06.09a.29.29,0,0,1-.08.18c-1.16,1.73-2.06,2.6-2.69,2.6a.85.85,0,0,1-.79-.49,2.39,2.39,0,0,1-.26-1.11,6.1,6.1,0,0,1,.2-1.41c-.82,1.81-1.66,2.72-2.53,2.72-.53,0-.79-.34-.79-1a5.25,5.25,0,0,1,1.6-3.43,4.44,4.44,0,0,1,3.19-1.78c.5,0,.76.22.76.66a2.19,2.19,0,0,1-1.09,1.62,7.09,7.09,0,0,0-.56,2.69q0,1.29.48,1.29c.43,0,1.2-.82,2.33-2.44C19.55,11.18,19.6,11.13,19.64,11.13Zm-2.23-2a1.39,1.39,0,0,0,.31-.85c0-.28-.13-.43-.4-.43-.65,0-1.5.64-2.54,1.91a5.62,5.62,0,0,0-1.58,2.94.39.39,0,0,0,.43.45c.82,0,1.6-.91,2.37-2.72a2,2,0,0,1-.47.1c-.08,0-.11,0-.11-.06s.09-.13.27-.19l.6-.35A2,2,0,0,1,16.7,9q.36-.54.69-.54c.08,0,.12.06.12.16A1.37,1.37,0,0,1,17.41,9.09Z"/><path class="cls-1" d="M24.92,9.27a1.87,1.87,0,0,1-.34,1.05c-.23.32-.45.48-.65.48,0,0-.06,0-.06-.08l.27-.63a1.86,1.86,0,0,0,.16-.77c0-.29-.11-.44-.33-.44s-.77.36-1.41,1.08a11.24,11.24,0,0,0-1.35,1.75l-.83,2.23a.2.2,0,0,1-.14,0,.59.59,0,0,1-.32-.14c-.13-.09-.2-.16-.2-.23a2.42,2.42,0,0,0,.11-.25,1.18,1.18,0,0,1,.12-.27,17.36,17.36,0,0,0,1-2.61,7.1,7.1,0,0,0,.28-2,7,7,0,0,1-.7,1.38,8.09,8.09,0,0,1-1,1.61q-.12,0-.12-.06s.27-.47.8-1.34a8.64,8.64,0,0,0,1.1-2.42q.12-.51.39-.51c.2,0,.31.26.31.78a9,9,0,0,1-.89,3.43c.69-.86,1.18-1.44,1.45-1.74.74-.79,1.31-1.19,1.73-1.19S24.92,8.73,24.92,9.27Z"/><path class="cls-1" d="M30.81,11.09s0,0,0,.06a1.17,1.17,0,0,1-.15.33,6.57,6.57,0,0,1-1.75,1.79,3.74,3.74,0,0,1-2.15.83c-.92,0-1.38-.6-1.38-1.79A6.67,6.67,0,0,1,25.54,11a1.28,1.28,0,0,1-.31-.42l.09.05.15.05.14,0a4.14,4.14,0,0,1,1.19-2,2.79,2.79,0,0,1,1.92-1c.14,0,.21,0,.21,0s-.09.1-.27.21a4.37,4.37,0,0,0-1.34,1.2,5.52,5.52,0,0,0-.95,1.63l0,0A3,3,0,0,0,28.35,10a2.53,2.53,0,0,0,1-1.83,1,1,0,0,0-.15-.51.51.51,0,0,0-.47-.24,1.72,1.72,0,0,0-.83.3,3.54,3.54,0,0,1-.54.3s-.05,0-.05,0,.21-.32.63-.49a3.09,3.09,0,0,1,1-.25,1.08,1.08,0,0,1,.69.25.89.89,0,0,1,.29.7,2.51,2.51,0,0,1-1.27,1.94,5,5,0,0,1-2.4,1,2.91,2.91,0,0,0-.15.89c0,1.07.39,1.61,1.16,1.61A2.9,2.9,0,0,0,29.09,13a5.92,5.92,0,0,0,1.43-1.62C30.64,11.18,30.73,11.09,30.81,11.09Z"/><path class="cls-1" d="M36.53,11.09s0,0,0,.06a1.17,1.17,0,0,1-.15.33,6.57,6.57,0,0,1-1.75,1.79,3.74,3.74,0,0,1-2.15.83c-.92,0-1.38-.6-1.38-1.79A6.67,6.67,0,0,1,31.26,11a1.28,1.28,0,0,1-.31-.42l.09.05a.66.66,0,0,1,.15.05l.14,0a4.14,4.14,0,0,1,1.19-2,2.79,2.79,0,0,1,1.92-1c.14,0,.21,0,.21,0s-.09.1-.27.21A4.37,4.37,0,0,0,33,9.25a5.52,5.52,0,0,0-.95,1.63l0,0A3,3,0,0,0,34.07,10a2.53,2.53,0,0,0,1-1.83,1,1,0,0,0-.15-.51.51.51,0,0,0-.47-.24,1.72,1.72,0,0,0-.83.3,3.54,3.54,0,0,1-.54.3S33,8,33,8s.21-.32.63-.49a3.09,3.09,0,0,1,1-.25,1.08,1.08,0,0,1,.69.25.89.89,0,0,1,.29.7,2.51,2.51,0,0,1-1.27,1.94,5,5,0,0,1-2.4,1,2.91,2.91,0,0,0-.15.89c0,1.07.39,1.61,1.16,1.61A2.9,2.9,0,0,0,34.81,13a5.92,5.92,0,0,0,1.43-1.62C36.36,11.18,36.45,11.09,36.53,11.09Z"/><path class="cls-1" d="M41.77,9.27a1.87,1.87,0,0,1-.34,1.05c-.23.32-.45.48-.65.48,0,0-.06,0-.06-.08l.27-.63a1.86,1.86,0,0,0,.16-.77c0-.29-.11-.44-.33-.44s-.77.36-1.41,1.08a11.24,11.24,0,0,0-1.35,1.75l-.83,2.23a.2.2,0,0,1-.14,0,.59.59,0,0,1-.32-.14c-.13-.09-.2-.16-.2-.23a2.42,2.42,0,0,0,.11-.25,1.18,1.18,0,0,1,.12-.27,17.36,17.36,0,0,0,1-2.61,7.1,7.1,0,0,0,.28-2,7,7,0,0,1-.7,1.38,8.09,8.09,0,0,1-1,1.61q-.12,0-.12-.06s.27-.47.8-1.34a8.64,8.64,0,0,0,1.1-2.42q.12-.51.39-.51c.2,0,.31.26.31.78A9,9,0,0,1,38,11.38c.69-.86,1.18-1.44,1.45-1.74.74-.79,1.31-1.19,1.73-1.19S41.77,8.73,41.77,9.27Z"/><path class="cls-1" d="M57.09,7.17a6.61,6.61,0,0,1-2.31,4.89,7.27,7.27,0,0,1-5,2.08,4.93,4.93,0,0,1-.78-.06c-1,1.17-2,1.76-2.75,1.76-.13,0-.2,0-.2-.13s0-.09.1-.11l.56-.11a4.8,4.8,0,0,0,2-1.47,2.76,2.76,0,0,1-2.15-3,6.08,6.08,0,0,1,.21-1.55A3,3,0,0,1,46.38,8a3.63,3.63,0,0,1,1.13-2.52,7.15,7.15,0,0,1,5.37-2.11,5,5,0,0,1,.76.05,23.58,23.58,0,0,0,.19-3c0-.09,0-.14.11-.14s.12.34.12,1a12.21,12.21,0,0,1-.19,2.13A4.09,4.09,0,0,1,56.2,4.71,3.67,3.67,0,0,1,57.09,7.17ZM52.88,3.61a6.82,6.82,0,0,0-3.26.81,5,5,0,0,0-2.23,2.33,4.05,4.05,0,0,0-.45,1.86,1.85,1.85,0,0,0,0,.29,7.49,7.49,0,0,1,2.27-3,5.19,5.19,0,0,1,3.28-1.34c.16,0,.23,0,.23.12s-.08.13-.25.13a5,5,0,0,0-3.14,1.76,10.27,10.27,0,0,0-2.19,3,1.17,1.17,0,0,0,.54.48q.39.2.39.24c0,.09-.06.13-.17.13-.28,0-.56-.19-.86-.58A3,3,0,0,0,46.81,11a2.22,2.22,0,0,0,2.36,2.51,19.9,19.9,0,0,0,2.76-4.61,23.41,23.41,0,0,0,1.65-5.24A4.16,4.16,0,0,0,52.88,3.61Zm3.53,3.31a3.17,3.17,0,0,0-2.6-3.22,23,23,0,0,1-1.68,5.21,22.5,22.5,0,0,1-2.7,4.61,6.93,6.93,0,0,0,4.71-2.06A6.06,6.06,0,0,0,56.41,6.92Z"/><path class="cls-1" d="M60.87,10.16a3.74,3.74,0,0,1,.85,2,1.32,1.32,0,0,1-.67,1.21,2.5,2.5,0,0,1-1.3.41,3.91,3.91,0,0,1-1.33-.26c-.46-.18-.69-.39-.69-.64l0-.05s0,0,0,.05a6.82,6.82,0,0,0,.65.33,2.34,2.34,0,0,0,1,.26,1.66,1.66,0,0,0,.95-.31,1,1,0,0,0,.44-.8,5.48,5.48,0,0,0-1.73-3.2q-2.19,5.1-2.8,6.6a23.48,23.48,0,0,0-.89,2.54,8.27,8.27,0,0,0-.28,2.19c0,1.15.37,1.72,1.12,1.72a3.6,3.6,0,0,0,1.79-.64,1.59,1.59,0,0,1-.75.61,2.2,2.2,0,0,1-.92.26,2.31,2.31,0,0,1-1.66-.72A2.28,2.28,0,0,1,54,20.11a5,5,0,0,1,.36-1.82c.24-.62.58-1.4,1-2.33s1.6-3.3,3.49-7.12a4.86,4.86,0,0,1-1.07-2.6c0-.71.29-1.06.86-1.06.73,0,1.1.44,1.1,1.34a6.53,6.53,0,0,1-.39,1.86A20.31,20.31,0,0,1,60.87,10.16Zm-1.71-2a4.5,4.5,0,0,0,.33-1.79q0-1-.72-1c-.22,0-.33.23-.33.7A3.63,3.63,0,0,0,59.16,8.2Z"/><path class="cls-1" d="M66.22,10.16a3.74,3.74,0,0,1,.85,2,1.32,1.32,0,0,1-.67,1.21,2.5,2.5,0,0,1-1.3.41,3.82,3.82,0,0,1-1.32-.26c-.47-.18-.7-.39-.7-.64l0-.05s0,0,0,.05a5.71,5.71,0,0,0,.65.33,2.27,2.27,0,0,0,1,.26,1.63,1.63,0,0,0,1-.31,1,1,0,0,0,.44-.8,5.48,5.48,0,0,0-1.73-3.2q-2.19,5.1-2.8,6.6a23.48,23.48,0,0,0-.89,2.54,8.27,8.27,0,0,0-.28,2.19c0,1.15.37,1.72,1.12,1.72a3.6,3.6,0,0,0,1.79-.64,1.59,1.59,0,0,1-.75.61,2.2,2.2,0,0,1-.92.26,2.31,2.31,0,0,1-1.66-.72,2.28,2.28,0,0,1-.73-1.62,5,5,0,0,1,.36-1.82c.24-.62.58-1.4,1-2.33s1.6-3.3,3.49-7.12a4.86,4.86,0,0,1-1.07-2.6c0-.71.29-1.06.86-1.06.73,0,1.1.44,1.1,1.34a6.81,6.81,0,0,1-.38,1.86A19.87,19.87,0,0,1,66.22,10.16Zm-1.71-2a4.5,4.5,0,0,0,.33-1.79q0-1-.72-1c-.22,0-.33.23-.33.7A3.63,3.63,0,0,0,64.51,8.2Z"/><path class="cls-1" d="M72.75,9.93l.06-.37a.69.69,0,0,0-.2-.51.66.66,0,0,0-.48-.21A7.34,7.34,0,0,1,71,12.47h.6a.85.85,0,0,1-.38.15.37.37,0,0,1-.17,0l-.11,0s0,.06-.11.13l-.72.63a1.77,1.77,0,0,1-1.13.52c-.5,0-.76-.32-.76-1a4.16,4.16,0,0,1,.9-2.42,4.11,4.11,0,0,1-.31-1.6,3.06,3.06,0,0,1,.33-1.46,1.83,1.83,0,0,1,1.59-1.22c.8,0,1.26.68,1.39,2.05a.9.9,0,0,1,1,1c0,.53-.08.79-.25.79S72.75,10,72.75,9.93Zm-3.51,1a3.79,3.79,0,0,0-.64,1.71c0,.42.15.63.43.63a2,2,0,0,0,1.26-.81Q69.65,12.4,69.24,10.94Zm1.5-4.33c-.42,0-.8.41-1.15,1.22a3.52,3.52,0,0,0-.33,1.42,6.2,6.2,0,0,0,.06,1,5.09,5.09,0,0,1,2.48-2C71.54,7.17,71.19,6.61,70.74,6.61Zm1.08,2.21a3.4,3.4,0,0,0-1.33.79,4.26,4.26,0,0,0-1.11,1.15c.27,1,.6,1.52,1,1.61a4.64,4.64,0,0,0,1-1.69A5.76,5.76,0,0,0,71.82,8.82Z"/><path class="cls-1" d="M78.72,9.27a1.86,1.86,0,0,1-.33,1.05c-.23.32-.45.48-.65.48,0,0-.06,0-.06-.08l.27-.63a1.86,1.86,0,0,0,.15-.77c0-.29-.11-.44-.33-.44S77,9.24,76.37,10A11.24,11.24,0,0,0,75,11.71l-.83,2.23A.21.21,0,0,1,74,14a.6.6,0,0,1-.31-.14c-.13-.09-.2-.16-.2-.23s.06-.13.1-.25a1.72,1.72,0,0,1,.13-.27,17.36,17.36,0,0,0,1-2.61,7.5,7.5,0,0,0,.28-2,7,7,0,0,1-.7,1.38,7.34,7.34,0,0,1-1,1.61c-.07,0-.11,0-.11-.06s.27-.47.8-1.34a8.93,8.93,0,0,0,1.1-2.42c.08-.34.2-.51.39-.51s.31.26.31.78a8.82,8.82,0,0,1-.9,3.43c.7-.86,1.19-1.44,1.46-1.74.74-.79,1.31-1.19,1.72-1.19S78.72,8.73,78.72,9.27Z"/><path class="cls-1" d="M85.59,7.49c0,.21-1.09.64-3.28,1.26-.58,1.12-.93,1.84-1.06,2.15a5.89,5.89,0,0,0-.51,2.3c0,.43.14.64.43.64a2.43,2.43,0,0,0,1.38-.73l.87-.76a.05.05,0,0,1,.06.06.38.38,0,0,1-.06.17,4.89,4.89,0,0,1-1,1,2.2,2.2,0,0,1-1.16.57c-.65,0-1-.39-1-1.18a6.67,6.67,0,0,1,.43-2.11,1.36,1.36,0,0,0-.78-.8l-.52-.21-.57-.23a.4.4,0,0,1-.21-.4.33.33,0,0,1,.27-.36h.53a11.26,11.26,0,0,0,2.15-.23L83.4,4.5a.62.62,0,0,1,.65-.35c.34,0,.51.06.51.19s-.24.6-.72,1.66S83.08,7.63,83,7.68L82.7,8l-.23.46c.31-.09,1.25-.41,2.83-1l.24,0S85.59,7.46,85.59,7.49ZM81.4,9c-.72.17-1.38.3-2,.39a2.54,2.54,0,0,1,1.3,1.24C80.87,10.26,81.09,9.72,81.4,9Z"/><path class="cls-1" d="M89.84,12.62v0a1.9,1.9,0,0,1-1.5.93c-.54,0-.81-.48-.81-1.43q0-.59.09-1.65a8.55,8.55,0,0,1-2.42,2.71l-.66.51a.56.56,0,0,1-.34.08q-.24,0-.24-.12a4.57,4.57,0,0,1,.63-1.92A12.59,12.59,0,0,0,85.38,10a5.9,5.9,0,0,0,.15-1.51,7,7,0,0,1-.7,1.38,8.09,8.09,0,0,1-1,1.61c-.08,0-.12,0-.12-.08l.58-1a11,11,0,0,0,1.2-2.73c.08-.34.24-.51.47-.51s.35.3.35.89a8.8,8.8,0,0,1-.51,2.47L85,13.09A10.74,10.74,0,0,0,87.66,10a4.25,4.25,0,0,1,.53-1.78.55.55,0,0,1,.43-.13c.22,0,.32.07.32.21a1.72,1.72,0,0,1-.37,1.07,10.11,10.11,0,0,0-.42,2.83c0,.62.19.93.58.93a.94.94,0,0,0,.59-.26l.39-.33c.06-.05.08-.07.07-.07S89.84,12.55,89.84,12.62Z"/><path class="cls-1" d="M89.25,13.84l1.09-4.9a8.55,8.55,0,0,0-.43-1c0-.09.11-.17.33-.25a4.87,4.87,0,0,1,1.25-.37c.19,0,.28.06.28.18-.47,1.19-.8,2-1,2.48V10c0,.41-.06.61-.18.61s0,0-.06-.06c-.27.81-.46,1.41-.56,1.78a20.85,20.85,0,0,1,1.82-2.54c1-1.12,1.77-1.69,2.41-1.69.3,0,.44.12.44.35s-.37,1.52-1.12,4.27A7.1,7.1,0,0,0,95.28,11q.1-.12.15-.12s0,0,0,.06a.29.29,0,0,1-.06.15,7.56,7.56,0,0,1-2.07,2.41.34.34,0,0,1-.25.11c-.09,0-.14-.06-.14-.17s.08-.56.23-1.32.27-1.34.34-1.74a11.31,11.31,0,0,0,.14-1.52,7.38,7.38,0,0,0-2,1.67,11.23,11.23,0,0,0-1.55,2,5.34,5.34,0,0,0-.48,1.17c-.07.3-.16.46-.27.46s-.17-.09-.17-.26Zm1.38-6.06a2,2,0,0,1-.37.19l.2.45Z"/><path class="cls-1" d="M98.7,11.07a0,0,0,0,1,0,0c0,.22-.36.71-1.07,1.46-.57.56-1,.85-1.3.85a.88.88,0,0,1-1-1,5.94,5.94,0,0,1,.39-1.86l-.35.54c-.17.29-.28.43-.35.43s0,0,0-.11a1.44,1.44,0,0,1,.29-.49,10.47,10.47,0,0,0,.86-1.59,7,7,0,0,1,.42-.91c.07-.12.22-.18.46-.18s.36.07.36.19a1.54,1.54,0,0,1-.2.59,1,1,0,0,1-.33.44,7.79,7.79,0,0,0-1,3c0,.43.14.64.42.64a2.21,2.21,0,0,0,1.53-1l.43-.49.16-.19.13-.15A.89.89,0,0,0,98.7,11.07ZM98.1,5.8a2.17,2.17,0,0,1,.52-.2c.07,0,.1,0,.1.05a3.48,3.48,0,0,1-.45.56l-.29.6c-.12.25-.27.38-.45.38s-.38-.13-.38-.4a.83.83,0,0,1,.26-.5A1.91,1.91,0,0,1,98.1,5.8Z"/><path class="cls-1" d="M105.35,7.49c0,.21-1.09.64-3.28,1.26-.58,1.12-.94,1.84-1.07,2.15a6,6,0,0,0-.5,2.3c0,.43.14.64.43.64a2.38,2.38,0,0,0,1.37-.73l.88-.76s0,0,0,.06a.35.35,0,0,1,0,.17,4.89,4.89,0,0,1-1.05,1,2.2,2.2,0,0,1-1.16.57c-.65,0-1-.39-1-1.18a6.91,6.91,0,0,1,.42-2.11,1.35,1.35,0,0,0-.77-.8l-.53-.21-.56-.23a.4.4,0,0,1-.21-.4.33.33,0,0,1,.27-.36h.52a11.36,11.36,0,0,0,2.16-.23l1.86-4.17c.09-.23.3-.35.65-.35s.51.06.51.19-.24.6-.73,1.66a18.4,18.4,0,0,1-.8,1.68l-.33.31-.23.46c.31-.09,1.25-.41,2.83-1l.24,0S105.35,7.46,105.35,7.49ZM101.16,9c-.72.17-1.38.3-2,.39a2.54,2.54,0,0,1,1.3,1.24C100.63,10.26,100.85,9.72,101.16,9Z"/><path class="cls-1" d="M110.86,6.05s-.06.07-.18.11a2.13,2.13,0,0,0-.37.14c-.58.42-1.08,1.52-1.51,3.32-.65,2.75-1,4.16-1,4.22a19.64,19.64,0,0,1-1.63,4.27,7.85,7.85,0,0,1-2.9,3.09,3.38,3.38,0,0,1-4-.45,2.44,2.44,0,0,1-1.18-1.86c0-.05,0-.08,0-.08s.07,0,.11.12a3,3,0,0,0,3,2,4,4,0,0,0,2-.52,6.79,6.79,0,0,0,2.82-3.16,21.66,21.66,0,0,0,1.18-4.15c.31-1.67.57-2.9.8-3.71l.32-1.2c-.81.64-1.79,2.45-2.92,5.45,0,0,0,0-.12,0a.56.56,0,0,1-.41-.43l.33-.81a10.36,10.36,0,0,0,.37-3.18c0-1.06-.23-1.59-.68-1.59a1.55,1.55,0,0,0-.91.48l-.54.51s-.06,0-.06,0a.54.54,0,0,1,0-.17,3.51,3.51,0,0,1,.89-.87,1.88,1.88,0,0,1,1-.44c.54,0,.81.52.81,1.57a8.93,8.93,0,0,1-.52,2.83q1.6-3,2.73-3.55a4.22,4.22,0,0,1,.66-1.48,1.75,1.75,0,0,1,1.44-.6C110.74,5.93,110.86,6,110.86,6.05Z"/></g></g></svg>