<svg xmlns="http://www.w3.org/2000/svg" viewBox="0 0 199.11 32.98"><defs><style>.cls-1{fill:#a56d29;}</style></defs><title>5</title><g id="Layer_2" data-name="Layer 2"><g id="_ÎÓÈ_1" data-name="—ÎÓÈ_1"><path class="cls-1" d="M21.92,19.87l.94,0H23c.17,0,.25,0,.25.1,0,.24-.21.38-.65.4q-5.17.36-6.12.5a47.31,47.31,0,0,1-8.38,8.43,13.21,13.21,0,0,0,3.2.86c.22,0,.32.1.32.22s-.12.18-.36.18a8.81,8.81,0,0,1-3.52-1q-3.54,2.52-6.12,2.52C.55,32.08,0,31.73,0,31A1.27,1.27,0,0,1,.43,30a2.26,2.26,0,0,0-.11.69c0,.64.46,1,1.37,1q2.38,0,5.47-2.34a11.07,11.07,0,0,1-1.11-.69,7.52,7.52,0,0,1-3.89,1.77c-.17,0-.25-.05-.25-.15s.12-.26.36-.28a13,13,0,0,0,3.35-1.73A3,3,0,0,1,4.54,26q0-2.05,3.27-3.71a19.05,19.05,0,0,1,5.08-1.69A55.26,55.26,0,0,0,20.56,7.09c.09-.21.5-1.51,1.22-3.89A.26.26,0,0,1,22.07,3a.13.13,0,0,1,0,.07q0,2.88-3.24,9a68,68,0,0,1-5.14,8.42l1.72-.18a71.93,71.93,0,0,0,5.24-8.6c1.91-3.58,2.86-6.25,2.86-8A1.64,1.64,0,0,0,22.07,1.8c-.22-.05-.33-.13-.33-.25s.14-.18.4-.18a2.61,2.61,0,0,1,2.05.83,3.4,3.4,0,0,1,.72,2.19q0,2.93-2.84,8.17a64.62,64.62,0,0,1-5,7.6C19.18,20,20.8,19.87,21.92,19.87Zm-10,2c-3.89,1.53-5.83,3.17-5.83,4.89a2.49,2.49,0,0,0,.18.9A38.15,38.15,0,0,0,12,21.89Zm2.88-.79c-.55.12-1.2.28-1.94.5a38.53,38.53,0,0,1-6.3,6.55,3.28,3.28,0,0,0,1,.83A43.64,43.64,0,0,0,14.83,21.1Zm17.64,5.32a3.18,3.18,0,0,1-.79,1.64A5,5,0,0,1,30.2,29.5a3.46,3.46,0,0,1-1.69.38,4.07,4.07,0,0,1-2.37-1.1,7,7,0,0,1-2-2.55,10.5,10.5,0,0,1-.66-4.18A66,66,0,0,1,24,14.74c.36-3.06.56-5,.61-5.69S24.73,8,24.88,8s.33.25.36.75v5.73q0,9.5,1.54,13c.63,1.41,1.35,2.12,2.16,2.12Q30.56,29.52,32.47,26.42Z"/><path class="cls-1" d="M39.17,7.27a2.59,2.59,0,0,0-.65.54Q31.89,20.16,31.9,23.69c0,.79.26,1.19.79,1.19a5.12,5.12,0,0,0,2.81-1.59l.41-.36c.08-.07.11-.11.09-.11s.14,0,.14.11a.68.68,0,0,1-.14.33c-1.06,1.48-2.14,2.23-3.24,2.23S31,24.85,31,23.58,31.57,20,32.8,16.7q-.9,1.23-1.26,1.23c-.08,0-.11,0-.11-.07a12.47,12.47,0,0,1,1-1.32c.64-.83,1-1.29,1-1.38a68,68,0,0,1,3.35-7.78q2.22-4.53,3.06-6A1.18,1.18,0,0,1,41,.72c.61,0,.92.08.92.25S41,3.24,39.17,7.27Z"/><path class="cls-1" d="M45.4,7.27a2.43,2.43,0,0,0-.65.54q-6.63,12.35-6.63,15.88c0,.79.27,1.19.8,1.19a5.1,5.1,0,0,0,2.8-1.59l.42-.36c.08-.07.11-.11.09-.11s.14,0,.14.11a.8.8,0,0,1-.14.33c-1.06,1.48-2.14,2.23-3.24,2.23s-1.8-.64-1.8-1.91S37.8,20,39,16.7q-.9,1.23-1.26,1.23c-.07,0-.1,0-.1-.07a10.85,10.85,0,0,1,1-1.32c.64-.83,1-1.29,1-1.38A69.55,69.55,0,0,1,43,7.38q2.24-4.53,3.06-6A1.21,1.21,0,0,1,47.25.72c.61,0,.92.08.92.25S47.24,3.24,45.4,7.27Z"/><path class="cls-1" d="M64.62,19.87l.94,0h.18c.16,0,.25,0,.25.1,0,.24-.22.38-.65.4q-5.19.36-6.12.5a47.33,47.33,0,0,1-8.39,8.43,13.46,13.46,0,0,0,3.21.86c.21,0,.32.1.32.22s-.12.18-.36.18a8.85,8.85,0,0,1-3.53-1q-3.53,2.52-6.12,2.52-1.65,0-1.65-1A1.27,1.27,0,0,1,43.13,30a2.26,2.26,0,0,0-.11.69c0,.64.46,1,1.37,1,1.58,0,3.41-.78,5.47-2.34a12.15,12.15,0,0,1-1.12-.69,7.49,7.49,0,0,1-3.89,1.77c-.16,0-.25-.05-.25-.15s.12-.26.36-.28a12.83,12.83,0,0,0,3.35-1.73A3,3,0,0,1,47.23,26q0-2.05,3.28-3.71a19.1,19.1,0,0,1,5.07-1.69A54.94,54.94,0,0,0,63.25,7.09c.1-.21.51-1.51,1.23-3.89A.26.26,0,0,1,64.76,3s0,0,0,.07q0,2.88-3.24,9a66.88,66.88,0,0,1-5.15,8.42l1.73-.18a73.27,73.27,0,0,0,5.24-8.6c1.91-3.58,2.86-6.25,2.86-8A1.64,1.64,0,0,0,64.76,1.8c-.21-.05-.32-.13-.32-.25s.13-.18.39-.18a2.63,2.63,0,0,1,2.06.83,3.4,3.4,0,0,1,.72,2.19q0,2.93-2.85,8.17a64.47,64.47,0,0,1-5,7.6C61.87,20,63.49,19.87,64.62,19.87Zm-10,2c-3.89,1.53-5.84,3.17-5.84,4.89a2.51,2.51,0,0,0,.19.9A38.63,38.63,0,0,0,54.65,21.89Zm2.88-.79c-.56.12-1.2.28-2,.5a37.78,37.78,0,0,1-6.3,6.55,3.34,3.34,0,0,0,1,.83A44,44,0,0,0,57.53,21.1Zm17.64,5.32a3.27,3.27,0,0,1-.79,1.64A5.14,5.14,0,0,1,72.9,29.5a3.49,3.49,0,0,1-1.69.38,4.1,4.1,0,0,1-2.38-1.1,6.94,6.94,0,0,1-2-2.55,10.31,10.31,0,0,1-.67-4.18,66,66,0,0,1,.54-7.31c.36-3.06.56-5,.61-5.69S67.43,8,67.57,8s.34.25.36.75v5.73q0,9.5,1.55,13c.62,1.41,1.34,2.12,2.16,2.12Q73.26,29.52,75.17,26.42Z"/><path class="cls-1" d="M84,20.88l-1-.07a14.13,14.13,0,0,1-3.51,3.85A7.29,7.29,0,0,1,75,26.28a4.36,4.36,0,0,1-1.19-.14l-.11.75c-.07.39-.18.58-.34.58s-.23-.16-.23-.49a5.75,5.75,0,0,1,.11-1.1,1.44,1.44,0,0,1-.83-1.26c0-.79.63-1.57,1.91-2.34.52-1.53,1-2.86,1.47-4-.5.5-1,1.09-1.62,1.76-.12.12-.21.18-.29.18s-.1-.05-.1-.14c0-.39.8-1.31,2.41-2.77q4.27-10.62,7.13-16A1.39,1.39,0,0,1,84.54.72c.59,0,.89.11.89.32,0,0-.83,1.65-2.49,4.88s-3.24,6.46-4.75,9.7c1.92-1.36,3.44-2,4.57-2s1.7.74,1.7,2.22a9.67,9.67,0,0,1-1.3,4.59c.67,0,1,.14,1,.36S84.09,20.88,84,20.88ZM73.8,23.62c-.43.4-.65.73-.65,1a.77.77,0,0,0,.22.59A15,15,0,0,1,73.8,23.62Zm1,2a6.83,6.83,0,0,0,4-1.43,7.83,7.83,0,0,0,2.75-3.36,16.41,16.41,0,0,0-6.66,2l-1,2.7A6.22,6.22,0,0,0,74.81,25.6Zm7-5.26a10.36,10.36,0,0,0,.54-3.49c0-1.32-.42-2-1.25-2a6.3,6.3,0,0,0-3.36,1.65q-1.8,3.93-2.3,5.15A18.9,18.9,0,0,1,81.83,20.34Z"/><path class="cls-1" d="M93.09,18.43l.11-.68a1.28,1.28,0,0,0-.38-1,1.19,1.19,0,0,0-.88-.37,13.78,13.78,0,0,1-2.12,6.73h1.11a1.57,1.57,0,0,1-.7.29,1.08,1.08,0,0,1-.32,0,.65.65,0,0,0-.2,0s0,.11-.2.24l-1.35,1.17a3.27,3.27,0,0,1-2.09,1c-.93,0-1.4-.6-1.4-1.8a7.72,7.72,0,0,1,1.66-4.5,7.67,7.67,0,0,1-.58-3,5.72,5.72,0,0,1,.61-2.72c.79-1.51,1.78-2.27,3-2.27,1.49,0,2.36,1.28,2.6,3.82a1.66,1.66,0,0,1,1.8,1.87c0,1-.16,1.48-.47,1.48C93.14,18.65,93.09,18.58,93.09,18.43ZM86.58,20.3a7,7,0,0,0-1.19,3.19c0,.78.26,1.17.79,1.17s1.43-.5,2.34-1.51C87.73,23.05,87.08,22.1,86.58,20.3Zm2.77-8c-.77,0-1.48.75-2.12,2.26a6.45,6.45,0,0,0-.62,2.63A11.87,11.87,0,0,0,86.72,19a9.43,9.43,0,0,1,4.61-3.67Q90.61,12.28,89.35,12.28Zm2,4.1a6.32,6.32,0,0,0-2.47,1.46A7.87,7.87,0,0,0,86.83,20c.5,1.82,1.12,2.82,1.84,3a8.87,8.87,0,0,0,1.78-3.13A10.91,10.91,0,0,0,91.37,16.38Z"/><path class="cls-1" d="M105.77,23.44v.07A3.52,3.52,0,0,1,103,25.24c-1,0-1.51-.89-1.51-2.67q0-1.08.18-3.06a16.15,16.15,0,0,1-4.5,5l-1.22.94a1.08,1.08,0,0,1-.63.14q-.45,0-.45-.21A8.54,8.54,0,0,1,96,21.85a22.36,22.36,0,0,0,1.46-3.26,10.63,10.63,0,0,0,.28-2.79,13.27,13.27,0,0,1-1.29,2.56,13.42,13.42,0,0,1-2,3q-.21,0-.21-.15l1.08-1.83a21.12,21.12,0,0,0,2.23-5.08c.14-.62.43-.93.86-.93s.65.54.65,1.63a16.42,16.42,0,0,1-.93,4.59L96.69,24.3a20,20,0,0,0,5-5.65,7.74,7.74,0,0,1,1-3.31,1,1,0,0,1,.81-.26c.39,0,.59.14.59.4a3.23,3.23,0,0,1-.68,2,18.57,18.57,0,0,0-.8,5.26c0,1.15.36,1.72,1.08,1.72a1.72,1.72,0,0,0,1.1-.46l.72-.62c.11-.09.15-.14.13-.14S105.77,23.29,105.77,23.44Z"/><path class="cls-1" d="M118.29,13.9c0,.4-2,1.18-6.08,2.34-1.08,2.08-1.74,3.42-2,4a11.17,11.17,0,0,0-.94,4.29c0,.79.27,1.18.8,1.18a4.5,4.5,0,0,0,2.55-1.36l1.62-1.41a.1.1,0,0,1,.11.11.85.85,0,0,1-.11.32,8.77,8.77,0,0,1-1.94,1.93,4,4,0,0,1-2.16,1.06q-1.8,0-1.8-2.19a12.64,12.64,0,0,1,.79-3.93,2.48,2.48,0,0,0-1.44-1.47l-1-.4-1-.43a.73.73,0,0,1-.39-.74.61.61,0,0,1,.5-.67h1a20,20,0,0,0,4-.43l3.46-7.74a1.13,1.13,0,0,1,1.2-.65q1,0,1,.36c0,.08-.45,1.1-1.35,3.08a34.36,34.36,0,0,1-1.5,3.12l-.61.57-.43.87c.57-.17,2.33-.77,5.25-1.8a3.57,3.57,0,0,1,.45-.08C118.26,13.82,118.29,13.85,118.29,13.9Zm-7.77,2.8c-1.35.32-2.56.56-3.64.72a4.8,4.8,0,0,1,2.41,2.31Q109.65,18.72,110.52,16.7Z"/><path class="cls-1" d="M138,2.38,137.88.29c0-.19.06-.29.18-.29s.13.2.25.61a7.6,7.6,0,0,1,.18,2c0,.88,0,1.5,0,1.83a13.58,13.58,0,0,1,2.6-.29,7.07,7.07,0,0,1,5,1.7,6.2,6.2,0,0,1,2,4.86v.14c0,.41-.17.61-.5.61a1.33,1.33,0,0,1-.65-.21q-2.44-1.48-4.5-2.58a25.29,25.29,0,0,0-4.21-1.78,82.65,82.65,0,0,1-2,10.51,58.79,58.79,0,0,1-3.49,10.08,7.09,7.09,0,0,0,.94,0,17.49,17.49,0,0,0,7.95-2,15,15,0,0,0,6.09-5.23l.32-.44s0,.1,0,.22a1,1,0,0,1-.11.4,16.32,16.32,0,0,1-6.91,6.08,21,21,0,0,1-9,2.34c-1.56,2.78-3,4.18-4.36,4.18-.21,0-.32-.08-.32-.22a.23.23,0,0,1,.21-.25l.69-.15q1.65-.57,3.38-3.56a8.88,8.88,0,0,1-5.87-2.05q-2.16-2-2.16-5.92a14.78,14.78,0,0,1,3.1-8.39,19.8,19.8,0,0,1,7.2-6.5,18.25,18.25,0,0,0-2-.11,12.6,12.6,0,0,0-2.74.42,11.26,11.26,0,0,0-3.15,1.24c-1.39.81-2.09,1.73-2.09,2.73a1.06,1.06,0,0,0,0,.29v.29c0,.31-.11.47-.32.47s-.51-.19-.65-.58a2.82,2.82,0,0,1-.29-1.08c0-1.41,1.27-2.51,3.82-3.27a19.35,19.35,0,0,1,5.58-.83,20.85,20.85,0,0,1,2.26.18,21.43,21.43,0,0,1,3.42-1.19C137.94,4,138,3.29,138,2.38ZM125.67,20.09a6.92,6.92,0,0,0,1.8,5.07,7.22,7.22,0,0,0,5,2.24,48.91,48.91,0,0,0,3.39-9.72,80.89,80.89,0,0,0,1.94-11,28.14,28.14,0,0,0-3.1-.69,15.29,15.29,0,0,0-6.4,5.8A15,15,0,0,0,125.67,20.09Zm12.17-15a12.54,12.54,0,0,0-2.59.69l2.56.39Q137.84,5.83,137.84,5.11Zm8.86,4.32c.17,0,.25-.12.25-.36a2.14,2.14,0,0,0-.22-.86,5.56,5.56,0,0,0-2.95-2.41,11.08,11.08,0,0,0-4.1-.8c-.29,0-.72,0-1.3.08l-.11,1.22a28.31,28.31,0,0,1,8,3A1.51,1.51,0,0,0,146.7,9.43Z"/><path class="cls-1" d="M156.53,18.43l.1-.68a1.31,1.31,0,0,0-.37-1,1.23,1.23,0,0,0-.89-.37,13.68,13.68,0,0,1-2.12,6.73h1.12a1.64,1.64,0,0,1-.71.29,1.08,1.08,0,0,1-.32,0,.65.65,0,0,0-.2,0s0,.11-.2.24l-1.35,1.17a3.27,3.27,0,0,1-2.08,1q-1.41,0-1.41-1.8a7.72,7.72,0,0,1,1.66-4.5,7.67,7.67,0,0,1-.58-3,5.84,5.84,0,0,1,.61-2.72c.8-1.51,1.78-2.27,3-2.27,1.48,0,2.35,1.28,2.59,3.82a1.66,1.66,0,0,1,1.8,1.87c0,1-.16,1.48-.47,1.48C156.57,18.65,156.53,18.58,156.53,18.43ZM150,20.3a7,7,0,0,0-1.19,3.19c0,.78.27,1.17.79,1.17s1.43-.5,2.34-1.51C151.16,23.05,150.51,22.1,150,20.3Zm2.77-8c-.77,0-1.47.75-2.12,2.26a6.43,6.43,0,0,0-.61,2.63,12.15,12.15,0,0,0,.1,1.87,9.43,9.43,0,0,1,4.61-3.67Q154,12.28,152.78,12.28Zm2,4.1a6.32,6.32,0,0,0-2.47,1.46A8.21,8.21,0,0,0,150.26,20c.51,1.82,1.12,2.82,1.84,3a8.87,8.87,0,0,0,1.78-3.13A10.91,10.91,0,0,0,154.8,16.38Z"/><path class="cls-1" d="M159.3,15.66l.68,0h.72a16.67,16.67,0,0,0,3.85-.54,41.73,41.73,0,0,1,9.08-11.85A4.2,4.2,0,0,1,176,2.05c.77,0,1.15.58,1.15,1.75a5.43,5.43,0,0,1-1,3.18c-.41.56-.7.83-.87.83s-.25,0-.25-.14a7.7,7.7,0,0,1,.7-1.42,4.69,4.69,0,0,0,.7-2.11.73.73,0,0,0-.82-.83q-1.31,0-3.6,2.61a32.81,32.81,0,0,0-3.46,4.52q-1.29,2-2.52,4.32L171.5,13c.1,0,.15,0,.15.07s-.22.31-.65.51c-1.68.69-3.45,1.32-5.29,1.87a29.64,29.64,0,0,0-2.88,8.1s-.11,1-.33,2.81c-.05.4-.33.61-.86.61s-.82-.21-.87-.61c.2-1.9.29-3.15.29-3.75q0-3.74-1.22-5l-.76-.5a.84.84,0,0,1-.39-.76C158.69,15.89,158.89,15.66,159.3,15.66Zm4.89.14c-1,.24-2.28.5-4,.76.8.43,1.26,2.15,1.41,5.15A37.66,37.66,0,0,1,164.19,15.8Z"/><path class="cls-1" d="M168.91,15.66l.68,0h.72a16.82,16.82,0,0,0,3.86-.54,41.71,41.71,0,0,1,9.07-11.85,4.2,4.2,0,0,1,2.37-1.26c.77,0,1.16.58,1.16,1.75a5.44,5.44,0,0,1-1,3.18c-.41.56-.7.83-.87.83s-.25,0-.25-.14a8.56,8.56,0,0,1,.7-1.42,4.73,4.73,0,0,0,.71-2.11.74.74,0,0,0-.83-.83q-1.31,0-3.6,2.61a32.81,32.81,0,0,0-3.46,4.52q-1.29,2-2.52,4.32l5.47-1.8c.1,0,.15,0,.15.07s-.22.31-.65.51a55.65,55.65,0,0,1-5.29,1.87,29.64,29.64,0,0,0-2.88,8.1s-.11,1-.33,2.81c0,.4-.33.61-.86.61s-.82-.21-.86-.61c.19-1.9.28-3.15.28-3.75,0-2.49-.4-4.15-1.22-5l-.76-.5a.84.84,0,0,1-.39-.76C168.3,15.89,168.5,15.66,168.91,15.66Zm4.9.14c-1,.24-2.28.5-4,.76q1.18.64,1.4,5.15A37.75,37.75,0,0,1,173.81,15.8Z"/><path class="cls-1" d="M188.1,20.59s0,0,0,.11a2.06,2.06,0,0,1-.28.61,12.1,12.1,0,0,1-3.24,3.33,7,7,0,0,1-4,1.53c-1.7,0-2.56-1.1-2.56-3.31a12.1,12.1,0,0,1,.26-2.38,2.49,2.49,0,0,1-.58-.79.36.36,0,0,0,.18.09l.27.11a1.07,1.07,0,0,0,.27.09,7.51,7.51,0,0,1,2.2-3.64,5.19,5.19,0,0,1,3.56-1.87c.26,0,.4,0,.4.09s-.17.19-.51.38a7.88,7.88,0,0,0-2.48,2.23,10.38,10.38,0,0,0-1.77,3l.08.07a5.55,5.55,0,0,0,3.6-1.66,4.64,4.64,0,0,0,1.87-3.38,1.84,1.84,0,0,0-.27-1,1,1,0,0,0-.88-.45,3.16,3.16,0,0,0-1.53.56,6.94,6.94,0,0,1-1,.56c-.06,0-.09,0-.09,0q0-.42,1.17-.9a5.41,5.41,0,0,1,1.91-.46A1.87,1.87,0,0,1,186,14a1.65,1.65,0,0,1,.54,1.3c0,1.27-.78,2.47-2.35,3.6a9.15,9.15,0,0,1-4.45,1.87,5.33,5.33,0,0,0-.29,1.66c0,2,.72,3,2.16,3a5.29,5.29,0,0,0,3.31-1.32,11,11,0,0,0,2.67-3Q187.88,20.59,188.1,20.59Z"/><path class="cls-1" d="M199.08,20.59s0,0,0,.11a2.06,2.06,0,0,1-.28.61,12.1,12.1,0,0,1-3.24,3.33,7,7,0,0,1-4,1.53c-1.7,0-2.56-1.1-2.56-3.31a12.1,12.1,0,0,1,.26-2.38,2.49,2.49,0,0,1-.58-.79.36.36,0,0,0,.18.09l.27.11a1.07,1.07,0,0,0,.27.09,7.51,7.51,0,0,1,2.2-3.64,5.19,5.19,0,0,1,3.56-1.87c.26,0,.4,0,.4.09s-.17.19-.51.38a7.88,7.88,0,0,0-2.48,2.23,10.38,10.38,0,0,0-1.77,3l.08.07a5.55,5.55,0,0,0,3.6-1.66,4.64,4.64,0,0,0,1.87-3.38,1.84,1.84,0,0,0-.27-1,1,1,0,0,0-.88-.45,3.16,3.16,0,0,0-1.53.56,6.94,6.94,0,0,1-1,.56c-.06,0-.09,0-.09,0q0-.42,1.17-.9a5.41,5.41,0,0,1,1.91-.46A1.87,1.87,0,0,1,197,14a1.65,1.65,0,0,1,.54,1.3c0,1.27-.78,2.47-2.35,3.6a9.15,9.15,0,0,1-4.45,1.87,5.33,5.33,0,0,0-.29,1.66c0,2,.72,3,2.16,3a5.29,5.29,0,0,0,3.31-1.32,11,11,0,0,0,2.67-3Q198.86,20.59,199.08,20.59Z"/></g></g></svg>