<svg xmlns="http://www.w3.org/2000/svg" viewBox="0 0 146.48 29.66"><defs><style>.cls-1{fill:#a56d29;}</style></defs><title>9</title><g id="Layer_2" data-name="Layer 2"><g id="_ÎÓÈ_1" data-name="—ÎÓÈ_1"><path class="cls-1" d="M16,2.23l-.07-2c0-.17,0-.25.14-.25s.06.06.11.18a16.66,16.66,0,0,1,.21,2.52V4.14h.33a24.72,24.72,0,0,1,5,.5c1.7-2.2,3.44-3.31,5.22-3.31a4.2,4.2,0,0,1,2.08.58,2.66,2.66,0,0,1,1.21,1.33,3.83,3.83,0,0,1,.27,1c0,.18,0,.27-.07.27s-.24-.21-.34-.62a2,2,0,0,0-1.12-1.11,3.82,3.82,0,0,0-1.78-.51Q24.88,2.3,23,4.82a13.62,13.62,0,0,1,7,3.21,8.82,8.82,0,0,1,3.16,6.8,11.78,11.78,0,0,1-5.68,10,13.51,13.51,0,0,1-6.9,1.8,21.93,21.93,0,0,1-8.22-1.8A8.25,8.25,0,0,1,5.4,27.94c-.36,0-.89,0-1.58-.09a4.82,4.82,0,0,1-2.43-1.21A3.14,3.14,0,0,1,0,24.19a2.15,2.15,0,0,1,1.3-2,5.49,5.49,0,0,1,2.75-.58A16,16,0,0,1,9.4,23.08a24.89,24.89,0,0,0,4.35-8.34,42.2,42.2,0,0,0,2.09-10Q8.9,5.08,5.4,8.78a4.4,4.4,0,0,0-1.3,3A4.33,4.33,0,0,0,7,15.84a6.79,6.79,0,0,0,1.69.5q.18.07.18.15c0,.12-.08.18-.25.18l-.07,0A6.69,6.69,0,0,1,4.66,14.9a4.43,4.43,0,0,1-1.78-3.36A4.33,4.33,0,0,1,4.14,8.42Q8,4.4,15.88,4.14C15.92,3.28,16,2.64,16,2.23ZM4.28,26.6c-.45,0-.68-.08-.68-.25s.2-.18.61-.18q2.49,0,4.93-2.73a14.21,14.21,0,0,0-5.58-1.52,4.53,4.53,0,0,0-2,.49,1.73,1.73,0,0,0-1,1.69,2.59,2.59,0,0,0,1.36,2.13,5.2,5.2,0,0,0,2.94.91,8.34,8.34,0,0,0,3.4-.82,6.15,6.15,0,0,0,2.63-2l-1.23-.61Q7.1,26.6,4.28,26.6ZM17.06,4.68h-.75a40.36,40.36,0,0,1-1.95,10.1A25,25,0,0,1,10,23.33l1.23.47A18.43,18.43,0,0,0,14,19.12q.72-1.44,1.94-4.23t1.41-3.15a25.58,25.58,0,0,1,3.92-6.66A23,23,0,0,0,17.06,4.68ZM31,15.19a9.66,9.66,0,0,0-2.41-6.41,10,10,0,0,0-5.94-3.49,51.92,51.92,0,0,0-3.2,6.34Q17.53,16,15.93,19.24a23.49,23.49,0,0,1-3.29,5.17,19.09,19.09,0,0,0,7.52,1.69A10.51,10.51,0,0,0,31,15.19Z"/><path class="cls-1" d="M43.09,17.68,43.2,17a1.3,1.3,0,0,0-.38-.95,1.2,1.2,0,0,0-.88-.38,13.85,13.85,0,0,1-2.12,6.73h1.11a1.57,1.57,0,0,1-.7.29.79.79,0,0,1-.32,0,.64.64,0,0,0-.2,0s0,.1-.2.23L38.16,24a3.27,3.27,0,0,1-2.09,1c-.93,0-1.4-.6-1.4-1.8a7.77,7.77,0,0,1,1.65-4.5,7.78,7.78,0,0,1-.57-3A5.65,5.65,0,0,1,36.36,13c.79-1.52,1.78-2.27,3-2.27q2.23,0,2.59,3.81a1.67,1.67,0,0,1,1.8,1.88c0,1-.15,1.47-.46,1.47Q43.09,17.89,43.09,17.68Zm-6.51,1.87a6.88,6.88,0,0,0-1.19,3.18c0,.78.26,1.17.79,1.17s1.43-.5,2.34-1.51C37.73,22.3,37.08,21.35,36.58,19.55Zm2.77-8c-.77,0-1.48.76-2.13,2.27a6.56,6.56,0,0,0-.61,2.63,12,12,0,0,0,.11,1.87,9.33,9.33,0,0,1,4.61-3.67C40.85,12.55,40.19,11.52,39.35,11.52Zm2,4.1a6.44,6.44,0,0,0-2.46,1.46,8,8,0,0,0-2.07,2.14c.5,1.83,1.11,2.82,1.83,3a8.86,8.86,0,0,0,1.79-3.13A10.76,10.76,0,0,0,41.36,15.62Z"/><path class="cls-1" d="M44,25l2-9.11a19.11,19.11,0,0,0-.79-1.94c0-.17.2-.33.61-.47a9,9,0,0,1,2.32-.69c.35,0,.52.11.52.33-.89,2.21-1.5,3.74-1.83,4.61v.21c0,.75-.11,1.12-.33,1.12,0,0-.08,0-.11-.11-.5,1.51-.85,2.62-1,3.31a36.26,36.26,0,0,1,3.38-4.71q2.7-3.13,4.47-3.14c.55,0,.83.22.83.65q0,.26-2.09,7.92a13.12,13.12,0,0,0,3.24-3.31c.12-.14.21-.22.27-.22s.09,0,.09.11a.66.66,0,0,1-.11.29,13.85,13.85,0,0,1-3.85,4.46.55.55,0,0,1-.45.22c-.18,0-.27-.11-.27-.32a22.32,22.32,0,0,1,.43-2.45q.44-2.13.63-3.24a22.7,22.7,0,0,0,.27-2.81,13.65,13.65,0,0,0-3.64,3.1,20.82,20.82,0,0,0-2.86,3.7,9.69,9.69,0,0,0-.9,2.18c-.13.57-.3.85-.5.85S44,25.33,44,25Zm2.56-11.27a2.93,2.93,0,0,1-.69.36l.36.83Z"/><path class="cls-1" d="M60.12,12.6q.72,0,.72.81a4.46,4.46,0,0,1-1.3,2.36c-.86,1-1.51,1.55-1.94,1.55-.05,0-.07-.05-.07-.13a2.77,2.77,0,0,1,.54-.79q.54-.66,1.47-2c-.43,0-.64-.26-.64-.79S59.3,12.6,60.12,12.6Z"/><path class="cls-1" d="M74.38,13.14q0,.62-6.09,2.34c-1.08,2.09-1.74,3.42-2,4a11.07,11.07,0,0,0-.93,4.28c0,.79.26,1.19.79,1.19a4.5,4.5,0,0,0,2.55-1.37l1.62-1.4c.08,0,.11,0,.11.1a.73.73,0,0,1-.11.33,8.76,8.76,0,0,1-1.94,1.92,4.07,4.07,0,0,1-2.16,1.07c-1.2,0-1.8-.74-1.8-2.2a12.59,12.59,0,0,1,.79-3.92A2.47,2.47,0,0,0,63.79,18l-1-.4c-.43-.16-.78-.31-1-.43a.72.72,0,0,1-.4-.74.6.6,0,0,1,.5-.66h1a20.65,20.65,0,0,0,4-.43L70.31,7.6A1.13,1.13,0,0,1,71.51,7q1,0,1,.36c0,.07-.45,1.1-1.35,3.08a31.73,31.73,0,0,1-1.5,3.11l-.61.58-.43.86q.87-.26,5.26-1.8a2.89,2.89,0,0,1,.45-.07C74.35,13.07,74.38,13.09,74.38,13.14ZM66.6,16c-1.34.31-2.56.55-3.64.72A4.82,4.82,0,0,1,65.38,19C65.62,18.3,66,17.29,66.6,16Z"/><path class="cls-1" d="M100,5.94a23.84,23.84,0,0,1-3.2,11.16,29.37,29.37,0,0,1-7.49,9.36,12.61,12.61,0,0,1-8,3.2,3.1,3.1,0,0,1-2.16-.75,2.8,2.8,0,0,1-.82-2.16,5.15,5.15,0,0,1,1.15-3,.3.3,0,0,1,.18-.11s.07.05.07.15a7.2,7.2,0,0,0-.32.9,4.41,4.41,0,0,0-.4,1.83,2.76,2.76,0,0,0,.67,1.77,2.18,2.18,0,0,0,1.81.82q4.25,0,8.57-4.21a32.15,32.15,0,0,0,6.32-9.25A23.27,23.27,0,0,0,99,6.16a4.88,4.88,0,0,0,0-.62,5.35,5.35,0,0,1-1.26.4,32,32,0,0,1-2.34,8A39.87,39.87,0,0,1,91,21.82a18.87,18.87,0,0,1-5.65,5.54,6.19,6.19,0,0,1-2.95,1q-.36,0-.36-.27c0-.18.12-.28.36-.29A9.77,9.77,0,0,0,84,27.43q3.35-1.26,6.8-6A36.07,36.07,0,0,0,97.16,6c-1.2.2-2.93.41-5.2.65a48.82,48.82,0,0,0-5.2.76q-4.24,1.08-4.25,3.24a4.5,4.5,0,0,0,1.59,3.2,6.49,6.49,0,0,0,3.16,1.84c.15,0,.22.06.22.1s-.1.15-.29.15a5,5,0,0,1-3.62-1.66,5.15,5.15,0,0,1-1.63-3.72q0-2.07,3.24-3.59a25.17,25.17,0,0,1,6.66-1.8c1.22-.21,3.06-.49,5.5-.82.08-.68.11-1.83.11-3.46,0-.19.09-.29.25-.29s.22.45.22,1.33,0,1.67-.07,2.34L98.93,4a.69.69,0,0,1,.47-.26c.23,0,.39.17.46.49A8.36,8.36,0,0,1,100,5.94Zm26.1.11.33-1.8c0-1.61-.85-2.41-2.52-2.41q-3.93,0-9.29,6.55a91.24,91.24,0,0,0-1.26,11.66q0,5.4,2,5.4,1.66,0,4.18-4l.79-1.26c.1-.17.18-.26.25-.26s0,.08,0,.17a.24.24,0,0,1-.07.19q-3,5.58-5.44,5.58-3.56,0-3.56-5.07,0-3.52,2.16-11.31-2.1,2.67-7.92,12a25.5,25.5,0,0,1-3.62,4.84c-1,1-1.6,1.43-1.82,1.43,0,0-.07-.08-.07-.24s.09-.26.29-.3a4.78,4.78,0,0,0,.39-2.33,33.75,33.75,0,0,0-.72-5.52,37.32,37.32,0,0,1-.5-5.87,27.65,27.65,0,0,1,.68-5.87q1-4.24,2.92-4.25c.05,0,.07,0,.07.09s-.06.13-.18.2q-1.69.87-1.69,5.87a66.15,66.15,0,0,0,1,9.86,8.64,8.64,0,0,1,.11,1.37A11.3,11.3,0,0,1,101,27q1.69-1.08,5.8-8c1-1.66,2.17-3.62,3.63-5.89s2.72-4.06,3.78-5.38a9.48,9.48,0,0,1,.65-2.16c.07,0,.11.1.11.29A7.72,7.72,0,0,1,114.8,7a29.07,29.07,0,0,1,4.14-4.1q3-2.44,5-2.45a2.57,2.57,0,0,1,2.06.94,3,3,0,0,1,.64,1.85,10.56,10.56,0,0,1-.18,1.95c-.12.63-.26,1-.43,1Z"/><path class="cls-1" d="M127.19,19.8a.06.06,0,0,1,.07.07q0,.61-2,2.7c-1.06,1.06-1.86,1.59-2.41,1.59A1.63,1.63,0,0,1,121,22.32a11.15,11.15,0,0,1,.72-3.46l-.65,1c-.31.53-.53.79-.64.79s-.08-.06-.08-.19a2.47,2.47,0,0,1,.54-.92,20.25,20.25,0,0,0,1.59-2.95,13.66,13.66,0,0,1,.79-1.7c.12-.21.4-.32.85-.32s.66.12.66.36a2.76,2.76,0,0,1-.36,1.08c-.24.48-.44.76-.61.83Q122,20.59,122,22.36c0,.79.26,1.18.79,1.18.86,0,1.81-.62,2.84-1.87l.8-.92c.09-.1.19-.22.28-.34l.26-.29A1.56,1.56,0,0,0,127.19,19.8ZM126.07,10a3.85,3.85,0,0,1,1-.36q.18,0,.18.09a5.89,5.89,0,0,1-.82,1l-.55,1.12c-.21.48-.49.72-.82.72-.48,0-.72-.25-.72-.76a1.57,1.57,0,0,1,.48-.91A3.63,3.63,0,0,1,126.07,10Z"/><path class="cls-1" d="M136.87,19.37c.07,0,.11.05.11.14a.41.41,0,0,1-.07.25,4.66,4.66,0,0,1-3,2.42,4,4,0,0,1-.77,2.12,2.56,2.56,0,0,1-2.16.86,3.87,3.87,0,0,1-2.83-1.42,4.45,4.45,0,0,1-1.33-3.11c0-.75.19-1.12.58-1.12q.36,0,.72.54a43.27,43.27,0,0,1,3.06-5.69,3.56,3.56,0,0,1,2.95-1.94,1.77,1.77,0,0,1,.84.27c.33.18.49.38.49.59s-.1.26-.31.26a2.11,2.11,0,0,1-.44,0h-.29A2.16,2.16,0,0,0,133,14a1.35,1.35,0,0,0-.59,1,2.83,2.83,0,0,0,.11.85l.86,2.88a11.3,11.3,0,0,1,.51,3,3,3,0,0,0,1.53-.61,7.85,7.85,0,0,0,1.28-1.55A.29.29,0,0,1,136.87,19.37ZM130.43,24a1.89,1.89,0,0,0,1.9-1.41,6.94,6.94,0,0,1-4.39-1.19,3,3,0,0,0,.87,1.71A2.2,2.2,0,0,0,130.43,24Zm1.94-1.84a5.26,5.26,0,0,0,0-.76,16.79,16.79,0,0,0-.52-2.7,16.15,16.15,0,0,1-.53-2.66,4,4,0,0,1,0-.68,25.79,25.79,0,0,0-3.06,5.18c1,.58,1.76,1,2.27,1.21A5.12,5.12,0,0,0,132.37,22.14Z"/><path class="cls-1" d="M146.38,19.37c.07,0,.1.05.1.14a.41.41,0,0,1-.07.25,4.64,4.64,0,0,1-3,2.42,4,4,0,0,1-.78,2.12,2.53,2.53,0,0,1-2.16.86,3.85,3.85,0,0,1-2.82-1.42,4.46,4.46,0,0,1-1.34-3.11c0-.75.2-1.12.58-1.12s.48.18.72.54a43.27,43.27,0,0,1,3.06-5.69,3.56,3.56,0,0,1,2.95-1.94,1.84,1.84,0,0,1,.85.27c.32.18.49.38.49.59s-.11.26-.31.26a2.15,2.15,0,0,1-.45,0h-.29a2.13,2.13,0,0,0-1.42.49,1.32,1.32,0,0,0-.59,1,2.87,2.87,0,0,0,.1.85l.87,2.88a11.65,11.65,0,0,1,.5,3,3,3,0,0,0,1.53-.61,7.52,7.52,0,0,0,1.28-1.55A.29.29,0,0,1,146.38,19.37ZM139.93,24a1.9,1.9,0,0,0,1.91-1.41,6.94,6.94,0,0,1-4.39-1.19,2.91,2.91,0,0,0,.86,1.71A2.24,2.24,0,0,0,139.93,24Zm1.95-1.84a5.86,5.86,0,0,0,0-.76,15.67,15.67,0,0,0-.52-2.7,15.68,15.68,0,0,1-.52-2.66,4.43,4.43,0,0,1,0-.68,26.83,26.83,0,0,0-3.06,5.18c1,.58,1.77,1,2.27,1.21A5.12,5.12,0,0,0,141.88,22.14Z"/></g></g></svg>