<svg xmlns="http://www.w3.org/2000/svg" viewBox="0 0 131.4 40.99"><defs><style>.cls-1{fill:#a56d29;}</style></defs><title>Mission</title><g id="Layer_2" data-name="Layer 2"><g id="Layer_1-2" data-name="Layer 1"><path class="cls-1" d="M30.34,7.72q0,7.28-4.49,15.65A41.4,41.4,0,0,1,15.35,36.5C11.64,39.49,7.93,41,4.19,41a4.29,4.29,0,0,1-3-1.06A3.92,3.92,0,0,1,0,36.9a7.23,7.23,0,0,1,1.62-4.19.4.4,0,0,1,.25-.15c.06,0,.1.07.1.2A11.65,11.65,0,0,0,1.51,34,6.33,6.33,0,0,0,1,36.6a3.88,3.88,0,0,0,.93,2.47,3.09,3.09,0,0,0,2.55,1.16q6,0,12-5.9a45.26,45.26,0,0,0,8.86-13Q28.92,13.62,28.93,8a4.7,4.7,0,0,0-.06-.86,7.51,7.51,0,0,1-1.76.55,45.09,45.09,0,0,1-3.28,11.21A55.59,55.59,0,0,1,17.72,30a26.69,26.69,0,0,1-7.93,7.77,8.6,8.6,0,0,1-4.14,1.41c-.33,0-.5-.12-.5-.38s.17-.38.5-.4a13.84,13.84,0,0,0,2.28-.53q4.7-1.77,9.54-8.43A50.66,50.66,0,0,0,26.4,7.82c-1.68.27-4.11.58-7.29.91a72.33,72.33,0,0,0-7.3,1.06q-6,1.52-5.95,4.55a6.33,6.33,0,0,0,2.22,4.49,8.91,8.91,0,0,0,4.44,2.57q.3.06.3.15c0,.14-.13.21-.4.21a7,7,0,0,1-5.08-2.33,7.22,7.22,0,0,1-2.29-5.22c0-1.93,1.51-3.61,4.54-5a35.64,35.64,0,0,1,9.34-2.53q2.58-.45,7.72-1.16c.1-.94.15-2.55.15-4.84,0-.27.12-.41.36-.41s.3.63.3,1.87,0,2.34-.1,3.28c.91-.23,1.41-.37,1.51-.4a1,1,0,0,1,.66-.36q.51,0,.66.69A12.78,12.78,0,0,1,30.34,7.72Zm36.6.16.45-2.53Q67.39,2,63.86,2q-5.51,0-13,9.19a129,129,0,0,0-1.76,16.35q0,7.57,2.82,7.57c1.55,0,3.5-1.86,5.86-5.6l1.11-1.77c.13-.23.25-.35.35-.35s0,.11,0,.23a.37.37,0,0,1-.1.28Q55,35.68,51.54,35.69q-5,0-5-7.12,0-5,3-15.85-2.93,3.74-11.1,16.81a36.14,36.14,0,0,1-5.08,6.79c-1.39,1.33-2.24,2-2.55,2-.06,0-.1-.1-.1-.32s.14-.37.41-.43a6.61,6.61,0,0,0,.55-3.26,47.86,47.86,0,0,0-1-7.75,51.29,51.29,0,0,1-.7-8.23,38,38,0,0,1,1-8.22c.91-4,2.28-6,4.09-6,.07,0,.1,0,.1.13s-.08.17-.25.27q-2.37,1.21-2.37,8.23A92.92,92.92,0,0,0,33.87,26.6,11.86,11.86,0,0,1,34,28.52a15.75,15.75,0,0,1-2.27,8.73q2.37-1.5,8.13-11.2c1.35-2.32,3-5.08,5.1-8.26s3.82-5.69,5.3-7.54a12.94,12.94,0,0,1,.91-3c.1,0,.15.13.15.4a12.16,12.16,0,0,1-.2,1.57,40.9,40.9,0,0,1,5.8-5.76Q61.13,0,64,0a3.61,3.61,0,0,1,2.88,1.31,4.3,4.3,0,0,1,.9,2.6,14.52,14.52,0,0,1-.25,2.73c-.17.89-.37,1.35-.6,1.39Z"/><path class="cls-1" d="M68,27.16a.09.09,0,0,1,.1.1q0,.85-2.78,3.78c-1.48,1.49-2.61,2.23-3.38,2.23a2.28,2.28,0,0,1-2.58-2.58,15.57,15.57,0,0,1,1-4.84l-.9,1.41c-.44.74-.74,1.11-.91,1.11s-.1-.09-.1-.28a3.66,3.66,0,0,1,.75-1.29,26.46,26.46,0,0,0,2.22-4.13,20.94,20.94,0,0,1,1.11-2.38c.17-.3.57-.45,1.19-.45s.94.17.94.5a3.83,3.83,0,0,1-.51,1.52c-.34.67-.62,1.06-.86,1.16q-2.62,5.25-2.62,7.72c0,1.11.37,1.67,1.11,1.67q1.82,0,4-2.63c.6-.7,1-1.13,1.11-1.28s.27-.31.4-.48a4.24,4.24,0,0,1,.35-.41A2.06,2.06,0,0,0,68,27.16ZM66.43,13.43a5.44,5.44,0,0,1,1.36-.51c.17,0,.26.05.26.13a9.34,9.34,0,0,1-1.16,1.44l-.76,1.56c-.3.68-.69,1-1.16,1-.68,0-1-.35-1-1.06a2.3,2.3,0,0,1,.68-1.29A5,5,0,0,1,66.43,13.43Z"/><path class="cls-1" d="M81.07,26.55c.1,0,.15.07.15.2a.61.61,0,0,1-.1.36,6.49,6.49,0,0,1-4.24,3.38,5.55,5.55,0,0,1-1.08,3,3.6,3.6,0,0,1-3,1.21,5.44,5.44,0,0,1-4-2,6.29,6.29,0,0,1-1.86-4.37c0-1,.27-1.57.8-1.57.34,0,.68.26,1,.76a60.33,60.33,0,0,1,4.29-8q1.77-2.73,4.14-2.73a2.55,2.55,0,0,1,1.19.38c.45.25.68.53.68.83s-.14.36-.43.36a2.46,2.46,0,0,1-.63-.06h-.4a3,3,0,0,0-2,.69,1.88,1.88,0,0,0-.83,1.41,3.92,3.92,0,0,0,.15,1.19l1.21,4a16.23,16.23,0,0,1,.71,4.14A4.22,4.22,0,0,0,79,28.92a10.56,10.56,0,0,0,1.79-2.17A.41.41,0,0,1,81.07,26.55ZM72,33a2.65,2.65,0,0,0,2.68-2,9.81,9.81,0,0,1-6.16-1.66,4.28,4.28,0,0,0,1.21,2.4A3.13,3.13,0,0,0,72,33Zm2.73-2.57a7.39,7.39,0,0,0,0-1.06,22,22,0,0,0-.73-3.79,22.25,22.25,0,0,1-.73-3.73,4.72,4.72,0,0,1,.05-1q-1.32,1.37-4.29,7.27c1.41.81,2.47,1.37,3.18,1.69A7.23,7.23,0,0,0,74.76,30.44Z"/><path class="cls-1" d="M93.89,26.55c.1,0,.15.07.15.2a.61.61,0,0,1-.1.36,6.49,6.49,0,0,1-4.24,3.38,5.55,5.55,0,0,1-1.08,3,3.6,3.6,0,0,1-3,1.21,5.4,5.4,0,0,1-4-2,6.26,6.26,0,0,1-1.87-4.37c0-1,.27-1.57.81-1.57.33,0,.67.26,1,.76a59.18,59.18,0,0,1,4.29-8q1.75-2.73,4.14-2.73a2.55,2.55,0,0,1,1.18.38c.46.25.68.53.68.83s-.14.36-.43.36a2.46,2.46,0,0,1-.63-.06h-.4a3,3,0,0,0-2,.69,1.86,1.86,0,0,0-.84,1.41,3.92,3.92,0,0,0,.15,1.19l1.22,4a16.14,16.14,0,0,1,.7,4.14,4.19,4.19,0,0,0,2.15-.86,10.24,10.24,0,0,0,1.79-2.17A.41.41,0,0,1,93.89,26.55Zm-9,6.46a2.64,2.64,0,0,0,2.67-2,9.83,9.83,0,0,1-6.16-1.66,4.28,4.28,0,0,0,1.21,2.4A3.13,3.13,0,0,0,84.86,33Zm2.72-2.57a6.11,6.11,0,0,0,0-1.06,22,22,0,0,0-.73-3.79,22.25,22.25,0,0,1-.73-3.73,5.67,5.67,0,0,1,0-1q-1.32,1.37-4.29,7.27c1.41.81,2.47,1.37,3.18,1.69A7.29,7.29,0,0,0,87.58,30.44Z"/><path class="cls-1" d="M102.42,27.16c.07,0,.1,0,.1.1q0,.85-2.77,3.78c-1.48,1.49-2.61,2.23-3.38,2.23a2.28,2.28,0,0,1-2.58-2.58,15.57,15.57,0,0,1,1-4.84l-.91,1.41c-.43.74-.74,1.11-.91,1.11s-.1-.09-.1-.28a3.59,3.59,0,0,1,.76-1.29,28.34,28.34,0,0,0,2.22-4.13A20.94,20.94,0,0,1,97,20.29c.17-.3.57-.45,1.19-.45s.93.17.93.5a4,4,0,0,1-.5,1.52A2.62,2.62,0,0,1,97.73,23q-2.62,5.25-2.63,7.72c0,1.11.37,1.67,1.11,1.67,1.22,0,2.54-.88,4-2.63l1.11-1.28.41-.48a4.24,4.24,0,0,1,.35-.41A1.72,1.72,0,0,0,102.42,27.16Zm-1.56-13.73a5.3,5.3,0,0,1,1.36-.51c.17,0,.25.05.25.13a8.63,8.63,0,0,1-1.16,1.44l-.75,1.56c-.31.68-.69,1-1.17,1-.67,0-1-.35-1-1.06a2.26,2.26,0,0,1,.69-1.29A5,5,0,0,1,100.86,13.43Z"/><path class="cls-1" d="M114.44,24.18l.15-1a1.84,1.84,0,0,0-.53-1.34,1.71,1.71,0,0,0-1.24-.53q-.6,6.16-3,9.44h1.57a2.24,2.24,0,0,1-1,.41,1.49,1.49,0,0,1-.45-.05.64.64,0,0,0-.28,0s-.06.14-.27.32l-1.9,1.64a4.62,4.62,0,0,1-2.93,1.37c-1.31,0-2-.84-2-2.53A10.87,10.87,0,0,1,105,25.59a10.82,10.82,0,0,1-.81-4.16,8,8,0,0,1,.86-3.81q1.66-3.18,4.14-3.18c2.08,0,3.3,1.78,3.63,5.35a2.33,2.33,0,0,1,2.53,2.62q0,2.07-.66,2.07C114.5,24.48,114.44,24.38,114.44,24.18ZM105.3,26.8a9.82,9.82,0,0,0-1.67,4.47c0,1.1.37,1.64,1.12,1.64.9,0,2-.7,3.28-2.12Q106.37,30.6,105.3,26.8Zm3.89-11.25q-1.62,0-3,3.18a9.06,9.06,0,0,0-.86,3.68A16.71,16.71,0,0,0,105.5,25c2-2.76,4.21-4.48,6.46-5.15Q111,15.56,109.19,15.55ZM112,21.3a8.73,8.73,0,0,0-3.45,2.05,11.22,11.22,0,0,0-2.91,3q1.06,3.84,2.58,4.19a12.3,12.3,0,0,0,2.5-4.39A15,15,0,0,0,112,21.3Z"/><path class="cls-1" d="M115.2,34.38,118,21.61a23.22,23.22,0,0,0-1.11-2.73c0-.24.29-.45.86-.66a12.74,12.74,0,0,1,3.26-1c.48,0,.73.16.73.46q-1.87,4.65-2.58,6.46v.3c0,1.05-.15,1.57-.45,1.57q-.11,0-.15-.15c-.71,2.12-1.2,3.66-1.47,4.64a51.3,51.3,0,0,1,4.75-6.61q3.78-4.39,6.26-4.39c.77,0,1.16.3,1.16.9q0,.36-2.93,11.11a18.36,18.36,0,0,0,4.54-4.64c.17-.21.3-.31.38-.31s.13,0,.13.15a.86.86,0,0,1-.15.41,19.45,19.45,0,0,1-5.4,6.26.8.8,0,0,1-.64.3c-.25,0-.37-.15-.37-.45a33.31,33.31,0,0,1,.6-3.44c.41-2,.7-3.5.89-4.54a30.26,30.26,0,0,0,.37-3.94,19.16,19.16,0,0,0-5.09,4.34,29.66,29.66,0,0,0-4,5.2A14.37,14.37,0,0,0,116.33,34c-.19.79-.42,1.18-.71,1.18s-.42-.21-.42-.65Zm3.58-15.8a4.9,4.9,0,0,1-1,.5l.5,1.16Z"/></g></g></svg>