<svg xmlns="http://www.w3.org/2000/svg" viewBox="0 0 168.12 40.79"><defs><style>.cls-1{fill:#a56d29;}</style></defs><title>6</title><g id="Layer_2" data-name="Layer 2"><g id="_ÎÓÈ_1" data-name="—ÎÓÈ_1"><path class="cls-1" d="M18,18.76q8-.41,8.39-.4c.24,0,.36,0,.36.11s-.25.35-.76.47a48.15,48.15,0,0,0-8.39.64,41.81,41.81,0,0,1-6.22,8.72c.43.12.9.22,1.42.32s.77.18.77.25-.18.18-.54.18a7.13,7.13,0,0,1-1.94-.47Q5.95,34,1.8,34C.6,34,0,33.58,0,32.76a1.17,1.17,0,0,1,.29-.94v.36c0,.89.5,1.34,1.51,1.34q3.71,0,8.14-5.33a7.83,7.83,0,0,1-1.26-.65c-2.28,2.86-4.28,4.28-6,4.28-.22,0-.32-.06-.32-.19a.24.24,0,0,1,.19-.26l1-.19c1.49-.46,3.09-1.74,4.79-3.86a3.64,3.64,0,0,1-1.76-2.91c0-1.08.81-2.13,2.45-3.13a13.81,13.81,0,0,1,4-1.7A39.43,39.43,0,0,0,16.88,4.86a3.55,3.55,0,0,0-1.29-.22A9.13,9.13,0,0,0,10.15,6.8Q7.32,9,7.31,11.29c0,1.54,1,2.85,3.09,3.9.08,0,.11.11.11.25s-.08.22-.25.22h-.14a9.23,9.23,0,0,1-2.87-1.87A3.69,3.69,0,0,1,6,11.09,5.1,5.1,0,0,1,8.24,7.2,11.26,11.26,0,0,1,12,5a12.26,12.26,0,0,1,3.76-.64,9.47,9.47,0,0,1,1.08.07V3.2c0-.19.08-.28.22-.28s.16.52.18,1.58q3.67.75,3.67,5Q21,13,18,18.76ZM8,25.2a2.45,2.45,0,0,0,.72,1.66,42.55,42.55,0,0,0,3.56-5.8Q8,23,8,25.2Zm7.23-5.15c-1.34.41-2.16.67-2.44.79A39.09,39.09,0,0,1,9,27.11a3.1,3.1,0,0,0,1.18.72A44.59,44.59,0,0,0,15.26,20.05ZM19.08,8.68c0-1.85-.6-3.06-1.8-3.64q-.08,6.3-3.78,14.44A18.12,18.12,0,0,1,15.84,19Q19.08,12.35,19.08,8.68ZM29.2,32.29c-2.72,0-4.07-1.55-4.07-4.64A26.54,26.54,0,0,1,27,19.4L31.28,8.93l1.48-3.71c.22-.55.4-.83.56-.83s.23.11.23.33a46,46,0,0,1-1.85,6c-1.24,3.58-2.16,6.37-2.76,8.39a34.05,34.05,0,0,0-1.51,8.5c0,2.8.85,4.21,2.56,4.21A4,4,0,0,0,32.18,31c.7-.51,1.92-1.58,3.68-3.21l.07,0a.66.66,0,0,1-.11.25,11.35,11.35,0,0,1-3,3A6.34,6.34,0,0,1,29.2,32.29Z"/><path class="cls-1" d="M40.21,19l.11-.68a1.3,1.3,0,0,0-.38-.95,1.17,1.17,0,0,0-.88-.38,13.85,13.85,0,0,1-2.12,6.73h1.11a1.57,1.57,0,0,1-.7.29A.79.79,0,0,1,37,24a.64.64,0,0,0-.2,0s0,.1-.2.23l-1.35,1.17a3.27,3.27,0,0,1-2.09,1c-.93,0-1.4-.6-1.4-1.8a7.77,7.77,0,0,1,1.65-4.5,7.78,7.78,0,0,1-.57-3,5.72,5.72,0,0,1,.61-2.72c.79-1.51,1.78-2.26,3-2.26q2.24,0,2.59,3.81a1.66,1.66,0,0,1,1.8,1.87c0,1-.15,1.48-.46,1.48C40.26,19.26,40.21,19.19,40.21,19ZM33.7,20.92a6.84,6.84,0,0,0-1.19,3.18c0,.78.26,1.17.79,1.17s1.43-.5,2.34-1.51C34.85,23.66,34.2,22.72,33.7,20.92Zm2.77-8c-.77,0-1.48.75-2.13,2.27a6.51,6.51,0,0,0-.61,2.62,12.11,12.11,0,0,0,.11,1.88A9.36,9.36,0,0,1,38.45,16Q37.73,12.89,36.47,12.89Zm2,4.1A6.3,6.3,0,0,0,36,18.45,7.87,7.87,0,0,0,34,20.59c.5,1.83,1.11,2.82,1.83,3a8.86,8.86,0,0,0,1.79-3.13A10.76,10.76,0,0,0,38.48,17Z"/><path class="cls-1" d="M55.4,19.48A3.2,3.2,0,0,0,55.85,21a.92.92,0,0,1,.31.5c0,.11,0,.16-.11.16s-.61-.55-1.19-1.65a12.81,12.81,0,0,1-1.29,3.09C52.8,24.38,52,25,51.17,25a2.3,2.3,0,0,1-1.89-.81,2.73,2.73,0,0,1-.64-1.73,8.63,8.63,0,0,1,.1-1.49A28,28,0,0,1,46,24.16c-1.46,1.44-2.57,2.16-3.31,2.16s-1-.46-1-1.37a12.06,12.06,0,0,1,2-5.65,13.91,13.91,0,0,0-.9,1.2,5.58,5.58,0,0,1-.81,1c-.06,0-.09,0-.09-.11A7.39,7.39,0,0,1,43.42,19a19,19,0,0,1,2.28-2.41,2,2,0,0,1,1.12-.47c.32,0,.48.08.48.22a.33.33,0,0,1-.14.22,25.05,25.05,0,0,0-2.84,4.23q-1.8,3.11-1.8,4.23c0,.28.09.43.28.43q2.28,0,6.16-5.94a6.07,6.07,0,0,0,.43-.7c.24-.42.43-.75.58-1a1,1,0,0,1,.92-.34c.46,0,.7.18.7.54a8.13,8.13,0,0,0-1.37,4.5c0,1.15.3,1.73.9,1.73s1.32-.65,2.16-1.94a13.29,13.29,0,0,0,1.33-2.78,26.78,26.78,0,0,1-.9-3.24c0-.4.18-.61.54-.61a1.27,1.27,0,0,1,1.06.78A2.94,2.94,0,0,1,55.76,18,3.46,3.46,0,0,1,55.4,19.48Z"/><path class="cls-1" d="M77.44,14.51q0,.62-6.09,2.34-1.62,3.13-2,4a11.15,11.15,0,0,0-.93,4.29c0,.79.26,1.19.79,1.19A4.5,4.5,0,0,0,71.78,25l1.62-1.41a.1.1,0,0,1,.11.11.77.77,0,0,1-.11.33,9,9,0,0,1-1.94,1.92A4,4,0,0,1,69.3,27q-1.8,0-1.8-2.19a12.64,12.64,0,0,1,.79-3.93,2.48,2.48,0,0,0-1.44-1.47c-.21-.1-.54-.23-1-.4l-1-.43a.73.73,0,0,1-.39-.74.6.6,0,0,1,.5-.66h1a20,20,0,0,0,4-.44L73.37,9c.16-.43.57-.64,1.2-.64s1,.12,1,.36c0,.07-.45,1.09-1.35,3.07a34.36,34.36,0,0,1-1.5,3.12l-.61.57-.43.87q.87-.25,5.26-1.8a2.58,2.58,0,0,1,.45-.07C77.4,14.44,77.44,14.46,77.44,14.51Zm-7.78,2.81c-1.35.31-2.56.55-3.64.72a4.78,4.78,0,0,1,2.42,2.3C68.67,19.67,69.08,18.66,69.66,17.32Z"/><path class="cls-1" d="M83.38,19l.1-.68a1.26,1.26,0,0,0-.38-.95,1.17,1.17,0,0,0-.88-.38,13.64,13.64,0,0,1-2.12,6.73h1.11a1.57,1.57,0,0,1-.7.29.82.82,0,0,1-.32,0,.64.64,0,0,0-.2,0s0,.1-.2.23l-1.35,1.17a3.27,3.27,0,0,1-2.09,1c-.93,0-1.4-.6-1.4-1.8a7.72,7.72,0,0,1,1.66-4.5,7.6,7.6,0,0,1-.58-3,5.72,5.72,0,0,1,.61-2.72c.8-1.51,1.78-2.26,3-2.26q2.23,0,2.6,3.81A1.66,1.66,0,0,1,84,17.78c0,1-.16,1.48-.47,1.48C83.42,19.26,83.38,19.19,83.38,19Zm-6.52,1.88a7,7,0,0,0-1.19,3.18c0,.78.26,1.17.79,1.17s1.43-.5,2.34-1.51C78,23.66,77.36,22.72,76.86,20.92Zm2.77-8c-.77,0-1.48.75-2.12,2.27a6.35,6.35,0,0,0-.61,2.62,12.39,12.39,0,0,0,.1,1.88A9.4,9.4,0,0,1,81.61,16Q80.89,12.89,79.63,12.89Zm2,4.1a6.32,6.32,0,0,0-2.47,1.46,7.87,7.87,0,0,0-2.07,2.14c.5,1.83,1.12,2.82,1.84,3a8.87,8.87,0,0,0,1.78-3.13A10.85,10.85,0,0,0,81.65,17Z"/><path class="cls-1" d="M100.58,19.44a1.64,1.64,0,0,0-1.8-1.3,4.66,4.66,0,0,0-4.1,2.56,8.64,8.64,0,0,0-1.41,4.68,6.16,6.16,0,0,0,1.08,3.85,3.85,3.85,0,0,0,3.39,1.62q4.24,0,8.24-5.72A43.91,43.91,0,0,0,112.9,9.76c0-.1.08-.36.18-.8s.17-.8.25-1.11a1.28,1.28,0,0,1,1.4-1.08c.43,0,.65.18.65.54a8.18,8.18,0,0,1-.25,1.44,43.27,43.27,0,0,1-3.39,9.79h.58a25.05,25.05,0,0,0,6.66-1q6.15-1.77,6.15-5.94a5.7,5.7,0,0,0-2.37-4.5A12.29,12.29,0,0,0,118,4.68,21,21,0,0,0,112.61,4h-.69a35.4,35.4,0,0,1-1.83,8.56,49.12,49.12,0,0,1-3.93,8.68,22.19,22.19,0,0,1-5.9,7.31,5.44,5.44,0,0,1-2.88,1.22c-.22,0-.32-.08-.32-.23s.09-.25.28-.27A6.22,6.22,0,0,0,99,28.84q3.32-1.62,6.77-7.56a47.54,47.54,0,0,0,4-9.13A34.22,34.22,0,0,0,111.46,4a25.28,25.28,0,0,0-6.54,1.19,12.68,12.68,0,0,0-5.38,3.2,4.16,4.16,0,0,0-1.37,3A3.9,3.9,0,0,0,99.11,14a4.32,4.32,0,0,0,2.16,1.51,9.54,9.54,0,0,0,1.1.34q.48.13.48.24c0,.12-.1.15-.29.11h0a8.36,8.36,0,0,1-4.11-1.88,4.56,4.56,0,0,1-1.9-3.63A3.83,3.83,0,0,1,97.77,8a13.21,13.21,0,0,1,6-3.24,34.6,34.6,0,0,1,7.78-1.26V1.15c0-.19.07-.29.21-.29S112,1.25,112,2v1.4h1.62A28.56,28.56,0,0,1,119,4a15,15,0,0,1,5.22,2.12,5.58,5.58,0,0,1,2.74,4.63,6.09,6.09,0,0,1-2.63,4.81,15,15,0,0,1-5.22,2.61,24.24,24.24,0,0,1-6.88.95h-.72q-5.91,12.17-13.64,12.17a5.5,5.5,0,0,1-4.25-1.71A6.45,6.45,0,0,1,92,25,8.23,8.23,0,0,1,93.8,19.8a5.56,5.56,0,0,1,4.62-2.3,2.66,2.66,0,0,1,1.52.46,1.32,1.32,0,0,1,.75,1.23C100.69,19.33,100.65,19.42,100.58,19.44Z"/><path class="cls-1" d="M137.19,21.28c.08,0,.11,0,.11.16a.58.58,0,0,1-.14.34c-2.16,3.22-3.83,4.82-5,4.82a1.55,1.55,0,0,1-1.45-.91,4.29,4.29,0,0,1-.49-2.06,11.26,11.26,0,0,1,.36-2.61q-2.26,5-4.68,5c-1,0-1.48-.63-1.48-1.9q0-3.06,3-6.38c2-2.2,4-3.31,5.93-3.31.93,0,1.4.41,1.4,1.23,0,1-.67,2-2,3a13.45,13.45,0,0,0-1,5c0,1.59.3,2.39.9,2.39q1.19,0,4.32-4.54C137,21.37,137.12,21.28,137.19,21.28Zm-4.14-3.78a2.67,2.67,0,0,0,.58-1.59c0-.53-.25-.79-.76-.79q-1.8,0-4.71,3.55t-2.92,5.45c0,.55.27.83.79.83,1.52,0,3-1.68,4.4-5a4.19,4.19,0,0,1-.87.18c-.14,0-.21,0-.21-.11s.16-.24.5-.36L131,19a3.87,3.87,0,0,1,.75-1.6c.46-.66.89-1,1.3-1,.14,0,.21.1.21.29A2.89,2.89,0,0,1,133.05,17.5Z"/><path class="cls-1" d="M150.91,11.84c0,.08-.11.14-.32.2a3.77,3.77,0,0,0-.69.27c-1.08.77-2,2.82-2.81,6.16q-1.8,7.66-1.87,7.85a37.57,37.57,0,0,1-3,7.92A14.42,14.42,0,0,1,136.8,40a6.69,6.69,0,0,1-3.31.83,6.89,6.89,0,0,1-4-1.66q-2.19-1.65-2.19-3.45,0-.15.09-.15c.06,0,.12.07.2.22A5.47,5.47,0,0,0,133,39.53a7.58,7.58,0,0,0,3.74-1A12.62,12.62,0,0,0,142,32.69a39.21,39.21,0,0,0,2.2-7.71c.57-3.09,1.07-5.38,1.47-6.87l.62-2.23Q144,17.64,140.83,26c0,.05-.07.07-.22.07a.74.74,0,0,1-.48-.27.76.76,0,0,1-.27-.52l.61-1.51a19.27,19.27,0,0,0,.68-5.9c0-2-.42-3-1.26-3a2.85,2.85,0,0,0-1.69.9l-1,.94c-.07,0-.1,0-.1-.09a1.11,1.11,0,0,1,.07-.31,6.51,6.51,0,0,1,1.65-1.62,3.6,3.6,0,0,1,1.95-.82c1,0,1.51,1,1.51,2.91a16.51,16.51,0,0,1-1,5.26q3-5.51,5.07-6.59a7.27,7.27,0,0,1,1.23-2.74,3.23,3.23,0,0,1,2.66-1.11C150.69,11.63,150.91,11.7,150.91,11.84Z"/><path class="cls-1" d="M152,26.64c-.19,0-.37-.13-.52-.4a1.64,1.64,0,0,1-.24-.88c0-.32.22-.57.65-.74a4.49,4.49,0,0,1,1-.68,3.36,3.36,0,0,1,1-.43.33.33,0,0,1,.25.07l-.54.65a4.15,4.15,0,0,0-.5,1.22C152.85,26.24,152.49,26.64,152,26.64ZM168.12,5.11c0,2.4-1.41,4.5-4.21,6.3l-2.67,1.44q-7.59,4.14-7.59,6.41a1.21,1.21,0,0,0,.32.86l.32.4c0,.26-.14.4-.43.4a.13.13,0,0,1-.07,0,1.94,1.94,0,0,1-.79-1.55c0-1,.63-2,1.91-3.24a31.61,31.61,0,0,1,4.6-3.53c.32-.21,1.59-1,3.82-2.41q4.14-2.62,4.14-5.69a3.42,3.42,0,0,0-1.64-3.06,7.38,7.38,0,0,0-4-1,8.43,8.43,0,0,0-4.64,1.46A8,8,0,0,0,154,5.65a4,4,0,0,0-.36,1.44c0,.77.44,1.15,1.33,1.15A11.82,11.82,0,0,0,159.19,7c.05,0,.07.05.07.14a.29.29,0,0,1-.07.22A6.14,6.14,0,0,1,157,8.5a9.16,9.16,0,0,1-2.63.46c-1.37,0-2.05-.52-2.05-1.58a4.62,4.62,0,0,1,.43-1.69,8.41,8.41,0,0,1,3.78-4.05A10.74,10.74,0,0,1,161.89,0a7,7,0,0,1,4.41,1.39A4.43,4.43,0,0,1,168.12,5.11Z"/></g></g></svg>