<svg xmlns="http://www.w3.org/2000/svg" viewBox="0 0 155.73 39.46"><defs><style>.cls-1{fill:#a56d29;}</style></defs><title>4</title><g id="Layer_2" data-name="Layer 2"><g id="_ÎÓÈ_1" data-name="—ÎÓÈ_1"><path class="cls-1" d="M29.23,21.49q.18-.36.54-.93c.24-.39.4-.58.47-.58s.11,0,.11.09a.65.65,0,0,1-.07.23q-3.13,5.63-5.51,5.62-3.64,0-3.64-5.29a35.85,35.85,0,0,1,1.3-8.25,69.8,69.8,0,0,1-5.76,8.21q-4.61,5.81-7.24,5.8c-1.51,0-2.27-1.05-2.27-3.13a24.6,24.6,0,0,1,2.11-8.43,68.48,68.48,0,0,1,4.45-9.29L12.28,5A42.53,42.53,0,0,0,7,15.46a33.34,33.34,0,0,0-2.28,11c0,.22-.06.33-.17.33s-.16-.35-.16-1.05A31,31,0,0,1,6.7,15,41.5,41.5,0,0,1,12,4.86a13,13,0,0,0-4.1-.72A8.77,8.77,0,0,0,1.48,6.59,1.91,1.91,0,0,0,.79,8q0,1.37,2.31,2.34a4.16,4.16,0,0,1,.82.45s0,.06-.16.06A3.34,3.34,0,0,1,3,10.62Q0,9.36,0,7.56A2.42,2.42,0,0,1,.83,5.9C2.56,4.15,5.06,3.28,8.35,3.28a17.12,17.12,0,0,1,4.39.57c1.08-1.32,1.77-2,2.06-2,.09,0,.13,0,.1.11a4,4,0,0,1-.7.72,10.4,10.4,0,0,0-1.13,1.22c1.87.56,2.81,1,2.81,1.44v.11a25.92,25.92,0,0,0-1.66,2.92Q9,18.11,9,23.47c0,1.49.37,2.23,1.11,2.23q2.08,0,6.66-6.19a68.9,68.9,0,0,0,6.34-9.9A26.9,26.9,0,0,0,24,6.26a.88.88,0,0,1,.9-.57c.46,0,.69.14.69.43a57.71,57.71,0,0,1-1.28,6.14A39.16,39.16,0,0,0,23,20.34q0,5.15,2,5.15Q26.71,25.49,29.23,21.49Z"/><path class="cls-1" d="M29.77,25l2-9.1a19,19,0,0,0-.79-2c0-.17.2-.32.61-.47a9.29,9.29,0,0,1,2.32-.68c.35,0,.52.11.52.32q-1.34,3.31-1.83,4.61v.22q0,1.11-.33,1.11s-.08,0-.11-.1c-.5,1.51-.85,2.61-1,3.31a37.11,37.11,0,0,1,3.38-4.72Q37.22,14.4,39,14.4c.55,0,.83.22.83.65q0,.25-2.09,7.92A13.28,13.28,0,0,0,41,19.66c.12-.15.21-.22.27-.22s.09,0,.09.11a.66.66,0,0,1-.11.29,13.85,13.85,0,0,1-3.85,4.46.58.58,0,0,1-.45.22q-.27,0-.27-.33a23.21,23.21,0,0,1,.43-2.45q.44-2.11.63-3.24A22.52,22.52,0,0,0,38,15.7a13.77,13.77,0,0,0-3.64,3.09,20.8,20.8,0,0,0-2.86,3.71,9.51,9.51,0,0,0-.9,2.18c-.13.56-.3.84-.5.84s-.31-.15-.31-.46Zm2.56-11.26a4,4,0,0,1-.69.36l.36.82Z"/><path class="cls-1" d="M53.75,13.18q0,.6-6.09,2.34c-1.08,2.08-1.74,3.42-2,4a11.15,11.15,0,0,0-.93,4.29c0,.79.26,1.18.79,1.18a4.52,4.52,0,0,0,2.56-1.36l1.62-1.41c.07,0,.1,0,.1.11a.79.79,0,0,1-.1.32,9.08,9.08,0,0,1-1.95,1.93,4,4,0,0,1-2.16,1.06q-1.8,0-1.8-2.19a12.64,12.64,0,0,1,.79-3.93A2.48,2.48,0,0,0,43.16,18c-.21-.1-.54-.23-1-.4s-.78-.31-1-.43a.73.73,0,0,1-.4-.74.61.61,0,0,1,.5-.67h1a19.9,19.9,0,0,0,4-.43l3.46-7.74A1.15,1.15,0,0,1,50.89,7c.63,0,1,.12,1,.36,0,.08-.45,1.1-1.35,3.08s-1.4,3-1.49,3.12l-.62.57L48,15q.87-.25,5.26-1.8a3.57,3.57,0,0,1,.45-.08C53.72,13.1,53.75,13.13,53.75,13.18ZM46,16c-1.34.32-2.55.56-3.64.72A4.83,4.83,0,0,1,44.75,19C45,18.34,45.4,17.33,46,16Z"/><path class="cls-1" d="M59.69,17.71,59.8,17a1.32,1.32,0,0,0-.38-1,1.21,1.21,0,0,0-.88-.37,13.78,13.78,0,0,1-2.13,6.73h1.12a1.62,1.62,0,0,1-.7.29,1.11,1.11,0,0,1-.33,0,.59.59,0,0,0-.2,0s0,.11-.19.24l-1.35,1.17a3.29,3.29,0,0,1-2.09,1q-1.41,0-1.41-1.8a7.72,7.72,0,0,1,1.66-4.5,7.86,7.86,0,0,1-.58-3A5.72,5.72,0,0,1,53,13c.79-1.51,1.77-2.27,2.95-2.27,1.49,0,2.35,1.28,2.59,3.82a1.66,1.66,0,0,1,1.8,1.87c0,1-.16,1.48-.47,1.48C59.74,17.93,59.69,17.86,59.69,17.71Zm-6.52,1.87A7,7,0,0,0,52,22.77c0,.78.27,1.17.8,1.17s1.42-.5,2.34-1.51C54.32,22.33,53.68,21.38,53.17,19.58Zm2.77-8c-.77,0-1.47.75-2.12,2.26a6.43,6.43,0,0,0-.61,2.63,10.75,10.75,0,0,0,.11,1.87,9.37,9.37,0,0,1,4.6-3.67Q57.2,11.56,55.94,11.56Zm2,4.1a6.32,6.32,0,0,0-2.47,1.46,8.21,8.21,0,0,0-2.07,2.14c.51,1.82,1.12,2.82,1.84,3A8.72,8.72,0,0,0,57,19.12,10.91,10.91,0,0,0,58,15.66Z"/><path class="cls-1" d="M70.38,6.55a2.59,2.59,0,0,0-.65.54Q63.1,19.44,63.11,23c0,.79.26,1.19.79,1.19a5.12,5.12,0,0,0,2.81-1.59l.41-.36c.08-.07.11-.11.09-.11s.14,0,.14.11a.68.68,0,0,1-.14.33C66.15,24,65.07,24.77,64,24.77s-1.8-.64-1.8-1.91S62.78,19.3,64,16q-.9,1.23-1.26,1.23c-.08,0-.11,0-.11-.07a12.47,12.47,0,0,1,1-1.32c.64-.83,1-1.29,1-1.38A68,68,0,0,1,68,6.66q2.22-4.53,3.06-6A1.18,1.18,0,0,1,72.23,0c.62,0,.92.08.92.25S72.23,2.52,70.38,6.55Z"/><path class="cls-1" d="M79,11.23c.29.07.44.31.44.7A5.28,5.28,0,0,1,78.5,14a7.15,7.15,0,0,1-1.42,1.87,18,18,0,0,0-1.21,3.51,15.67,15.67,0,0,0-.52,3.73q0,1.62.93,1.62c.75,0,1.62-.65,2.63-1.95a25.55,25.55,0,0,0,1.94-2.91c.1-.15.19-.22.26-.22s.1,0,.1.11l-.07.22c-1.85,3.57-3.57,5.36-5.18,5.36-1.39,0-2.09-1-2.09-3a22.51,22.51,0,0,1,.65-4.4,39.26,39.26,0,0,1-2.41,4.14q-2,2.67-3.6,2.67c-1.11,0-1.66-.75-1.66-2.23q0-3.42,3.64-7.28c2.42-2.56,4.8-4,7.13-4.24Q80.25,4.57,82.12.94A2.22,2.22,0,0,1,84.06.11c.34,0,.5.08.5.25Q81.76,5.66,79,11.23ZM67.75,21.85c0,1.06.33,1.59,1,1.59q2.63,0,5.15-5.87a4.32,4.32,0,0,1-1,.21c-.18,0-.27-.05-.27-.16s.16-.21.49-.32a5.05,5.05,0,0,0,1.2-.67c.22-.57.39-1.07.53-1.47s.24-.62.34-.62.25.11.25.33a4.47,4.47,0,0,1-.32,1.19l.64-.47,1.51-3.75q-2.73.62-6.11,4T67.75,21.85Z"/><path class="cls-1" d="M112.71,5.69c0,.79-.5,1.37-1.51,1.73a6.92,6.92,0,0,1-2.52.43,12.13,12.13,0,0,1-3-.4,7,7,0,0,1-2.77-1.11.22.22,0,0,1-.08-.15c0-.05,0-.07.09-.07s.11,0,.13,0a10.19,10.19,0,0,0,5.58,1.29A5.39,5.39,0,0,0,110.84,7a1.45,1.45,0,0,0,1-1.35c0-.86-.62-1.51-1.87-1.94a8.64,8.64,0,0,0-2.92-.47q-4.5,0-6.15,2.92A3.73,3.73,0,0,0,100.4,8a4.69,4.69,0,0,0,2.45,3.85q1.62,1.08,4.5,2.88a6.12,6.12,0,0,1,2.41,4.93c0,2.67-1.37,4.8-4.1,6.41a14.23,14.23,0,0,1-7.33,2,12.16,12.16,0,0,1-6.21-1.37,5.26,5.26,0,0,1-2.88-4.81,6.52,6.52,0,0,1,2.32-5.15,8,8,0,0,1,5.39-2c1.12,0,1.69.09,1.69.28s-.19.08-.58.08h-.61a7.76,7.76,0,0,0-5,1.72,5.71,5.71,0,0,0-2.27,4.74,5.6,5.6,0,0,0,2,4.61A7.52,7.52,0,0,0,97,27.86a15.52,15.52,0,0,0,5.9-1.29q5.4-2.16,5.4-6.73a5.3,5.3,0,0,0-2.48-4.54c-.53-.38-1.31-.9-2.34-1.55s-1.77-1.11-2.2-1.4a4.82,4.82,0,0,1-2.45-4A4.16,4.16,0,0,1,100,5.44a2.62,2.62,0,0,0-1.83,1,3.55,3.55,0,0,0-.72,2.09,5.21,5.21,0,0,0,2.34,4.25c.5.38,1.94,1.38,4.32,3a5.69,5.69,0,0,1,2.3,4.47A6.25,6.25,0,0,1,103.93,25a7.87,7.87,0,0,1-5.15,2.18c-.12,0-.18,0-.18-.11s.09-.21.25-.21a11.13,11.13,0,0,0,1.91-.4,9.47,9.47,0,0,0,3.49-2.52,5.35,5.35,0,0,0,1.55-3.64A5.19,5.19,0,0,0,103.53,16q-.68-.54-2.1-1.5c-1-.63-1.65-1.12-2.11-1.45A5.24,5.24,0,0,1,97,8.6,3.4,3.4,0,0,1,98,6.25a2.92,2.92,0,0,1,2.24-1h.07a9.14,9.14,0,0,1,6.59-2.45c2.68,0,4.5.59,5.43,1.77A1.79,1.79,0,0,1,112.71,5.69Z"/><path class="cls-1" d="M124.38,13.18q0,.6-6.09,2.34c-1.08,2.08-1.74,3.42-2,4a11.15,11.15,0,0,0-.93,4.29c0,.79.26,1.18.79,1.18a4.52,4.52,0,0,0,2.56-1.36l1.62-1.41c.07,0,.1,0,.1.11a.79.79,0,0,1-.1.32,9.08,9.08,0,0,1-1.95,1.93,4,4,0,0,1-2.16,1.06q-1.8,0-1.8-2.19a12.94,12.94,0,0,1,.79-3.93A2.48,2.48,0,0,0,113.79,18c-.21-.1-.54-.23-1-.4s-.78-.31-1-.43a.73.73,0,0,1-.4-.74.61.61,0,0,1,.51-.67h1a19.82,19.82,0,0,0,4-.43l3.46-7.74A1.15,1.15,0,0,1,121.52,7c.63,0,1,.12,1,.36,0,.08-.45,1.1-1.35,3.08s-1.4,3-1.49,3.12l-.62.57-.43.87q.87-.25,5.26-1.8a3.57,3.57,0,0,1,.45-.08C124.35,13.1,124.38,13.13,124.38,13.18ZM116.6,16q-2,.48-3.63.72A4.85,4.85,0,0,1,115.38,19C115.62,18.34,116,17.33,116.6,16Z"/><path class="cls-1" d="M130.32,17.71l.11-.68a1.32,1.32,0,0,0-.38-1,1.21,1.21,0,0,0-.88-.37A13.78,13.78,0,0,1,127,22.43h1.12a1.62,1.62,0,0,1-.7.29,1.11,1.11,0,0,1-.33,0,.59.59,0,0,0-.2,0s0,.11-.19.24l-1.35,1.17a3.29,3.29,0,0,1-2.09,1q-1.41,0-1.41-1.8a7.79,7.79,0,0,1,1.66-4.5,7.86,7.86,0,0,1-.58-3,5.72,5.72,0,0,1,.62-2.72c.79-1.51,1.77-2.27,3-2.27,1.49,0,2.35,1.28,2.59,3.82a1.66,1.66,0,0,1,1.8,1.87c0,1-.16,1.48-.47,1.48C130.37,17.93,130.32,17.86,130.32,17.71Zm-6.52,1.87a7,7,0,0,0-1.19,3.19c0,.78.27,1.17.8,1.17s1.42-.5,2.34-1.51C125,22.33,124.31,21.38,123.8,19.58Zm2.77-8c-.76,0-1.47.75-2.12,2.26a6.43,6.43,0,0,0-.61,2.63,10.75,10.75,0,0,0,.11,1.87,9.42,9.42,0,0,1,4.6-3.67Q127.83,11.56,126.57,11.56Zm2,4.1a6.32,6.32,0,0,0-2.47,1.46,8.21,8.21,0,0,0-2.07,2.14c.51,1.82,1.12,2.82,1.84,3a8.72,8.72,0,0,0,1.78-3.13A10.91,10.91,0,0,0,128.59,15.66Z"/><path class="cls-1" d="M141.77,16.49a3.33,3.33,0,0,1-.63,1.94c-.42.6-.83.9-1.21.9-.07,0-.11,0-.11-.14.15-.36.31-.75.51-1.17a3.46,3.46,0,0,0,.28-1.44c0-.54-.2-.81-.61-.81s-1.42.66-2.61,2a20.8,20.8,0,0,0-2.5,3.25l-1.55,4.14a.38.38,0,0,1-.27.08,1.21,1.21,0,0,1-.57-.26c-.26-.16-.38-.31-.38-.43s.11-.25.2-.47a3.5,3.5,0,0,1,.23-.5,33.41,33.41,0,0,0,1.93-4.84,13.82,13.82,0,0,0,.52-3.66,14.26,14.26,0,0,1-1.3,2.56,14.11,14.11,0,0,1-1.94,3c-.15,0-.22,0-.22-.11s.5-.88,1.5-2.48a16.8,16.8,0,0,0,2-4.5c.14-.63.38-.94.72-.94s.58.48.58,1.44a16.63,16.63,0,0,1-1.66,6.37q1.95-2.41,2.7-3.24c1.37-1.46,2.44-2.19,3.2-2.19S141.77,15.48,141.77,16.49Z"/><path class="cls-1" d="M155.73,10.51c0,.07-.1.14-.32.2a3.69,3.69,0,0,0-.68.27q-1.62,1.15-2.81,6.16c-1.2,5.11-1.83,7.72-1.87,7.84a37.64,37.64,0,0,1-3,7.92,14.45,14.45,0,0,1-5.4,5.73,6.67,6.67,0,0,1-3.31.83,6.94,6.94,0,0,1-4-1.66c-1.47-1.1-2.2-2.26-2.2-3.46,0-.09,0-.14.09-.14s.13.07.2.22a5.47,5.47,0,0,0,5.47,3.78,7.52,7.52,0,0,0,3.75-1,12.54,12.54,0,0,0,5.22-5.86A39.3,39.3,0,0,0,149,23.65c.58-3.09,1.07-5.39,1.48-6.87l.61-2.24q-2.26,1.77-5.44,10.12c0,.05-.07.07-.21.07a.74.74,0,0,1-.49-.27.76.76,0,0,1-.27-.52l.61-1.51a19.29,19.29,0,0,0,.69-5.91c0-2-.42-2.95-1.26-2.95a2.83,2.83,0,0,0-1.69.9l-1,.94c-.07,0-.11,0-.11-.09A1.11,1.11,0,0,1,142,15a6.26,6.26,0,0,1,1.66-1.62,3.6,3.6,0,0,1,1.94-.83c1,0,1.51,1,1.51,2.92a16.55,16.55,0,0,1-1,5.26c2-3.68,3.69-5.87,5.08-6.59a7.45,7.45,0,0,1,1.22-2.74,3.23,3.23,0,0,1,2.67-1.11C155.52,10.3,155.73,10.37,155.73,10.51Z"/></g></g></svg>