<svg xmlns="http://www.w3.org/2000/svg" viewBox="0 0 63.79 20.11"><defs><style>.cls-1{fill:#a56d29;}</style></defs><title>Benefit</title><g id="Layer_2" data-name="Layer 2"><g id="Layer_1-2" data-name="Layer 1"><path class="cls-1" d="M11.19,1.56l0-1.38c0-.12,0-.18.1-.18s0,0,.07.13a9.84,9.84,0,0,1,.15,1.66V2.9c.54,0,.88,0,1,0a15.43,15.43,0,0,1,3.18.4,4.28,4.28,0,0,1,3-1.33,2,2,0,0,1,1.47.61,2.08,2.08,0,0,1,.62,1.53c0,.22,0,.32-.13.32a2,2,0,0,1-.17-.68c-.1-.7-.62-1.05-1.54-1.05a3.32,3.32,0,0,0-2.09.9,8.11,8.11,0,0,1,2.54,1.29,3,3,0,0,1,1.31,2.37,2.89,2.89,0,0,1-1.86,2.57,8.07,8.07,0,0,1-3.25.83q4.93,2.3,4.94,5.44a3.07,3.07,0,0,1-1.24,2.48,4.29,4.29,0,0,1-2.74,1A13.36,13.36,0,0,1,12.4,19L8.62,17.41a7.18,7.18,0,0,1-2.55,2.12,7.82,7.82,0,0,1-3.32.58A3,3,0,0,1,1,19.48a2,2,0,0,1-1-1.67,1.65,1.65,0,0,1,1-1.53,5,5,0,0,1,2.37-.53,10.42,10.42,0,0,1,3.07.53,18.19,18.19,0,0,0,3.25-6.13A29.87,29.87,0,0,0,11.11,3.3a10.4,10.4,0,0,0-7,2.85,3.19,3.19,0,0,0-1,2.19,3,3,0,0,0,2.12,2.8,2.67,2.67,0,0,0,.71.24c.28,0,.42.11.42.16s0,.13-.15.13l-.07,0a4.85,4.85,0,0,1-2.82-1.26A3.36,3.36,0,0,1,2,7.79a2.71,2.71,0,0,1,.88-2q2.61-2.7,8.24-2.92C11.17,2.29,11.19,1.85,11.19,1.56ZM3,18.62q-.48,0-.48-.18c0-.08.15-.12.43-.12A4.69,4.69,0,0,0,6.3,16.53,8.72,8.72,0,0,0,3.48,16a5.43,5.43,0,0,0-2.15.39,1.33,1.33,0,0,0-.9,1.28,1.63,1.63,0,0,0,.83,1.41,3.21,3.21,0,0,0,1.83.5,5.66,5.66,0,0,0,2.52-.74,5.44,5.44,0,0,0,2.07-1.73l-.95-.43A5,5,0,0,1,3,18.62ZM15.37,3.55a13.62,13.62,0,0,0-2.58-.3q-1.08,0-1.35,0a28.14,28.14,0,0,1-1.29,6.92,18.48,18.48,0,0,1-3.22,6.23l1,.32A13.75,13.75,0,0,0,10,13.26c.76-1.62,1.57-3.35,2.45-5.2A18.21,18.21,0,0,1,15.37,3.55Zm4.16,13.28q0-3-4-4.89l-1.44-.6a.44.44,0,0,1-.05-.25.77.77,0,0,1,.68-.81h.48a4.1,4.1,0,0,0,.83-.1,5.72,5.72,0,0,0,2.32-1,2.63,2.63,0,0,0,1.08-2.09,2.75,2.75,0,0,0-.84-2,5.51,5.51,0,0,0-2.1-1.26,12.45,12.45,0,0,0-2.77,4c-.51,1.07-1.22,2.64-2.15,4.69a18.3,18.3,0,0,1-2.67,4.55c1.53.57,2.85,1,4,1.4A11.11,11.11,0,0,0,16.3,19C18.45,19,19.53,18.29,19.53,16.83Z"/><path class="cls-1" d="M29.55,13.88s0,0,0,.08a1.74,1.74,0,0,1-.2.43,8.44,8.44,0,0,1-2.27,2.33,4.88,4.88,0,0,1-2.8,1.07c-1.19,0-1.79-.78-1.79-2.32a8.25,8.25,0,0,1,.18-1.66,1.75,1.75,0,0,1-.4-.56s.06,0,.12.07l.19.07a.6.6,0,0,0,.19.06,5.27,5.27,0,0,1,1.54-2.54A3.63,3.63,0,0,1,26.83,9.6c.19,0,.28,0,.28.06s-.12.13-.35.27A5.25,5.25,0,0,0,25,11.49a7.41,7.41,0,0,0-1.24,2.12l0,.05a3.89,3.89,0,0,0,2.52-1.16,3.24,3.24,0,0,0,1.31-2.37,1.24,1.24,0,0,0-.19-.67.65.65,0,0,0-.61-.31,2.16,2.16,0,0,0-1.07.39,4.44,4.44,0,0,1-.71.39s-.06,0-.06,0c0-.2.27-.41.82-.63a3.75,3.75,0,0,1,1.33-.33,1.33,1.33,0,0,1,.9.33,1.14,1.14,0,0,1,.37.91,3.24,3.24,0,0,1-1.65,2.52A6.41,6.41,0,0,1,23.68,14a3.77,3.77,0,0,0-.2,1.16c0,1.39.5,2.09,1.51,2.09a3.75,3.75,0,0,0,2.32-.92,7.84,7.84,0,0,0,1.86-2.1C29.33,14,29.45,13.88,29.55,13.88Z"/><path class="cls-1" d="M29,17.46l1.41-6.37a11,11,0,0,0-.55-1.36c0-.12.14-.23.43-.33a6.4,6.4,0,0,1,1.62-.48c.24,0,.37.08.37.23L31,12.37v.15c0,.52-.07.78-.22.78s-.06,0-.08-.07c-.35,1.06-.6,1.83-.73,2.31a25.65,25.65,0,0,1,2.37-3.29c1.26-1.47,2.3-2.2,3.12-2.2.39,0,.58.15.58.46q0,.16-1.46,5.54a9.35,9.35,0,0,0,2.27-2.32c.08-.1.14-.15.19-.15s.06,0,.06.08a.48.48,0,0,1-.08.2A9.61,9.61,0,0,1,34.29,17a.41.41,0,0,1-.32.15c-.12,0-.19-.07-.19-.22a14.84,14.84,0,0,1,.31-1.72c.2-1,.34-1.74.44-2.27a16.89,16.89,0,0,0,.19-2,9.66,9.66,0,0,0-2.55,2.17,14.49,14.49,0,0,0-2,2.59,6.51,6.51,0,0,0-.63,1.53c-.09.39-.21.59-.35.59s-.22-.11-.22-.33Zm1.79-7.89a1.91,1.91,0,0,1-.48.26l.25.58Z"/><path class="cls-1" d="M44.24,13.88s0,0,0,.08a1.4,1.4,0,0,1-.2.43,8.4,8.4,0,0,1-2.26,2.33A4.93,4.93,0,0,1,39,17.79c-1.19,0-1.79-.78-1.79-2.32a8.25,8.25,0,0,1,.18-1.66,1.93,1.93,0,0,1-.41-.56l.13.07.19.07a.6.6,0,0,0,.19.06A5.32,5.32,0,0,1,39,10.91a3.65,3.65,0,0,1,2.5-1.31c.18,0,.28,0,.28.06s-.12.13-.36.27a5.33,5.33,0,0,0-1.73,1.56,7,7,0,0,0-1.24,2.12l.05.05A3.89,3.89,0,0,0,41,12.5a3.28,3.28,0,0,0,1.31-2.37,1.24,1.24,0,0,0-.19-.67.65.65,0,0,0-.62-.31,2.23,2.23,0,0,0-1.07.39,4.65,4.65,0,0,1-.7.39s-.06,0-.06,0q0-.3.81-.63a3.79,3.79,0,0,1,1.34-.33,1.31,1.31,0,0,1,.89.33,1.15,1.15,0,0,1,.38.91,3.24,3.24,0,0,1-1.65,2.52A6.45,6.45,0,0,1,38.37,14a3.77,3.77,0,0,0-.2,1.16c0,1.39.5,2.09,1.51,2.09A3.77,3.77,0,0,0,42,16.34a7.84,7.84,0,0,0,1.86-2.1C44,14,44.14,13.88,44.24,13.88Z"/><path class="cls-1" d="M45,10.43l.48,0H46a11.84,11.84,0,0,0,2.7-.38A29,29,0,0,1,55,1.79,2.93,2.93,0,0,1,56.66.91c.54,0,.81.4.81,1.22a3.82,3.82,0,0,1-.71,2.23c-.29.39-.49.58-.6.58s-.18,0-.18-.1a5.42,5.42,0,0,1,.49-1A3.22,3.22,0,0,0,57,2.37a.51.51,0,0,0-.58-.58q-.9,0-2.52,1.83a23.11,23.11,0,0,0-2.42,3.16c-.6.94-1.19,2-1.76,3l3.83-1.26c.07,0,.1,0,.1.05s-.15.22-.45.35a35.93,35.93,0,0,1-3.71,1.31,20.9,20.9,0,0,0-2,5.67s-.08.67-.23,2c0,.28-.23.43-.6.43s-.57-.15-.61-.43c.14-1.33.2-2.2.2-2.62,0-1.75-.28-2.91-.85-3.48l-.53-.35a.59.59,0,0,1-.28-.53C44.54,10.59,44.68,10.43,45,10.43Zm3.43.1c-.68.17-1.6.35-2.78.53q.84.45,1,3.6A26.08,26.08,0,0,1,48.4,10.53Z"/><path class="cls-1" d="M55.15,13.86s.05,0,.05.05c0,.28-.46.91-1.39,1.89-.74.74-1.3,1.11-1.69,1.11a1.14,1.14,0,0,1-1.28-1.29,7.93,7.93,0,0,1,.5-2.42l-.45.71c-.22.37-.37.55-.45.55s0,0,0-.14a1.78,1.78,0,0,1,.37-.64,12.52,12.52,0,0,0,1.11-2.06,10.19,10.19,0,0,1,.56-1.19c.08-.15.28-.23.59-.23s.47.09.47.26a1.94,1.94,0,0,1-.26.75,1.18,1.18,0,0,1-.43.58,10.06,10.06,0,0,0-1.3,3.86c0,.55.18.83.55.83a2.9,2.9,0,0,0,2-1.31l.55-.65a2.2,2.2,0,0,0,.2-.23l.18-.21A1,1,0,0,0,55.15,13.86ZM54.37,7a2.93,2.93,0,0,1,.68-.25c.08,0,.12,0,.12.07a4.06,4.06,0,0,1-.58.71l-.37.78c-.16.34-.35.51-.58.51a.46.46,0,0,1-.51-.53,1.14,1.14,0,0,1,.34-.64A2.68,2.68,0,0,1,54.37,7Z"/><path class="cls-1" d="M63.79,9.2c0,.28-1.42.83-4.26,1.63-.75,1.46-1.22,2.4-1.38,2.8a7.69,7.69,0,0,0-.66,3c0,.55.19.83.55.83a3.14,3.14,0,0,0,1.79-1l1.14-1c.05,0,.07,0,.07.08a.53.53,0,0,1-.07.22,6.16,6.16,0,0,1-1.36,1.35,2.83,2.83,0,0,1-1.51.74q-1.26,0-1.26-1.53a8.86,8.86,0,0,1,.55-2.75,1.74,1.74,0,0,0-1-1l-.68-.28L55,12a.53.53,0,0,1-.28-.52.42.42,0,0,1,.36-.46h.68a14.17,14.17,0,0,0,2.79-.31l2.42-5.41c.12-.31.4-.46.85-.46s.66.09.66.26-.31.76-.94,2.15-1,2.11-1,2.18l-.42.4-.31.61c.41-.12,1.63-.54,3.68-1.26a1.53,1.53,0,0,1,.32,0S63.79,9.16,63.79,9.2Zm-5.44,2q-1.41.33-2.55.51a3.33,3.33,0,0,1,1.69,1.61C57.66,12.81,57.94,12.1,58.35,11.16Z"/></g></g></svg>