<svg xmlns="http://www.w3.org/2000/svg" viewBox="0 0 168.08 40.86"><defs><style>.cls-1{fill:#a56d29;}</style></defs><title>8</title><g id="Layer_2" data-name="Layer 2"><g id="_ÎÓÈ_1" data-name="—ÎÓÈ_1"><path class="cls-1" d="M23.47,5.58C23.47,6.37,23,7,22,7.31a6.72,6.72,0,0,1-2.52.43,12.13,12.13,0,0,1-3-.4,7,7,0,0,1-2.78-1.11.26.26,0,0,1-.07-.15s0-.07.09-.07a.17.17,0,0,1,.13,0,10.19,10.19,0,0,0,5.58,1.29,5.42,5.42,0,0,0,2.23-.45,1.45,1.45,0,0,0,1-1.35c0-.86-.63-1.51-1.87-1.94a8.64,8.64,0,0,0-2.92-.47q-4.5,0-6.16,2.92a3.83,3.83,0,0,0-.5,1.87,4.69,4.69,0,0,0,2.45,3.85q1.62,1.08,4.5,2.88a6.13,6.13,0,0,1,2.41,4.93c0,2.67-1.37,4.8-4.1,6.41a14.16,14.16,0,0,1-7.33,2,12.16,12.16,0,0,1-6.21-1.37A5.25,5.25,0,0,1,0,21.83a6.45,6.45,0,0,1,2.32-5.14,8,8,0,0,1,5.38-2c1.13,0,1.7.09,1.7.29,0,0-.2.07-.58.07H8.21a7.67,7.67,0,0,0-5,1.73A5.68,5.68,0,0,0,.9,21.51,5.55,5.55,0,0,0,3,26.12a7.53,7.53,0,0,0,4.83,1.64,15.58,15.58,0,0,0,5.9-1.3q5.4-2.16,5.4-6.73a5.31,5.31,0,0,0-2.48-4.54c-.53-.38-1.31-.9-2.34-1.55s-1.77-1.11-2.2-1.4a4.8,4.8,0,0,1-2.45-4A4.16,4.16,0,0,1,10.8,5.33,2.66,2.66,0,0,0,9,6.37a3.55,3.55,0,0,0-.72,2.09,5.2,5.2,0,0,0,2.34,4.25q.76.57,4.32,3a5.65,5.65,0,0,1,2.31,4.46,6.25,6.25,0,0,1-2.52,4.73,7.82,7.82,0,0,1-5.15,2.18c-.12,0-.18,0-.18-.11s.08-.21.25-.21a11.13,11.13,0,0,0,1.91-.4A9.47,9.47,0,0,0,15,23.83a5.39,5.39,0,0,0,1.55-3.63,5.22,5.22,0,0,0-2.27-4.36c-.45-.36-1.16-.86-2.1-1.49s-1.65-1.13-2.11-1.46A5.2,5.2,0,0,1,7.78,8.5a3.4,3.4,0,0,1,.93-2.36,2.92,2.92,0,0,1,2.23-1H11A9.13,9.13,0,0,1,17.6,2.66q4,0,5.44,1.77A1.79,1.79,0,0,1,23.47,5.58Z"/><path class="cls-1" d="M35.14,13.07q0,.62-6.09,2.34-1.62,3.14-2,4a11.15,11.15,0,0,0-.93,4.29c0,.79.26,1.19.79,1.19a4.5,4.5,0,0,0,2.55-1.37L31.1,22.1a.1.1,0,0,1,.11.11.77.77,0,0,1-.11.33,9,9,0,0,1-1.94,1.92A4,4,0,0,1,27,25.52q-1.8,0-1.8-2.19A12.64,12.64,0,0,1,26,19.4a2.48,2.48,0,0,0-1.44-1.47c-.21-.1-.54-.23-1-.4s-.78-.31-1-.43a.73.73,0,0,1-.4-.74.6.6,0,0,1,.5-.66h1a19.94,19.94,0,0,0,4-.44l3.46-7.74a1.14,1.14,0,0,1,1.2-.64q1,0,1,.36c0,.07-.45,1.09-1.35,3.07a34.36,34.36,0,0,1-1.5,3.12l-.61.57-.43.87q.87-.26,5.26-1.8a2.89,2.89,0,0,1,.45-.07C35.11,13,35.14,13,35.14,13.07Zm-7.78,2.81c-1.34.31-2.56.55-3.64.72a4.78,4.78,0,0,1,2.42,2.3C26.38,18.23,26.78,17.22,27.36,15.88Z"/><path class="cls-1" d="M44.21,19.84c.07,0,.11.05.11.16a.54.54,0,0,1-.15.34c-2.16,3.22-3.83,4.82-5,4.82a1.55,1.55,0,0,1-1.46-.91,4.41,4.41,0,0,1-.49-2.06,11.26,11.26,0,0,1,.36-2.61q-2.27,5-4.68,5c-1,0-1.47-.63-1.47-1.9q0-3.06,3-6.38c2-2.2,4-3.31,5.92-3.31.94,0,1.4.41,1.4,1.23,0,1-.67,2-2,3a13.27,13.27,0,0,0-1.05,5c0,1.59.3,2.39.9,2.39q1.2,0,4.32-4.54C44,19.93,44.14,19.84,44.21,19.84Zm-4.14-3.78a2.72,2.72,0,0,0,.57-1.59c0-.53-.25-.79-.75-.79q-1.8,0-4.72,3.55t-2.91,5.45c0,.55.26.83.79.83q2.27,0,4.39-5a4.14,4.14,0,0,1-.86.18c-.15,0-.22,0-.22-.11s.17-.24.5-.36L38,17.53a3.91,3.91,0,0,1,.76-1.6q.67-1,1.29-1c.15,0,.22.1.22.29A2.89,2.89,0,0,1,40.07,16.06Z"/><path class="cls-1" d="M57.92,10.4c0,.08-.11.14-.32.2a3.43,3.43,0,0,0-.68.27c-1.09.77-2,2.82-2.81,6.16-1.2,5.11-1.83,7.73-1.87,7.85a38.08,38.08,0,0,1-3,7.92,14.42,14.42,0,0,1-5.4,5.72,6.67,6.67,0,0,1-3.31.83,6.84,6.84,0,0,1-4-1.66c-1.47-1.1-2.2-2.25-2.2-3.45q0-.15.09-.15c.06,0,.13.07.2.22A5.47,5.47,0,0,0,40,38.09a7.56,7.56,0,0,0,3.74-1A12.58,12.58,0,0,0,49,31.25a39.3,39.3,0,0,0,2.19-7.71q.87-4.63,1.48-6.87l.61-2.23Q51,16.2,47.84,24.55c0,.05-.07.07-.21.07a.74.74,0,0,1-.49-.27.76.76,0,0,1-.27-.52l.61-1.51a19.21,19.21,0,0,0,.69-5.9c0-2-.42-3-1.26-3a2.83,2.83,0,0,0-1.69.9l-1,.94c-.07,0-.11,0-.11-.09a1.11,1.11,0,0,1,.07-.31,6.57,6.57,0,0,1,1.66-1.62,3.55,3.55,0,0,1,1.94-.82c1,0,1.51,1,1.51,2.91a16.51,16.51,0,0,1-1,5.26C50.3,17,52,14.76,53.39,14a7.29,7.29,0,0,1,1.22-2.74,3.23,3.23,0,0,1,2.66-1.11C57.71,10.19,57.92,10.26,57.92,10.4Z"/><path class="cls-1" d="M92.88,21.38q.18-.36.54-.93c.24-.39.39-.58.47-.58s.11,0,.11.09a.6.6,0,0,1-.08.24q-3.14,5.61-5.5,5.61-3.65,0-3.64-5.29a36.15,36.15,0,0,1,1.29-8.24,68.13,68.13,0,0,1-5.76,8.2q-4.61,5.81-7.23,5.8c-1.51,0-2.27-1-2.27-3.13a24.37,24.37,0,0,1,2.11-8.43,68.35,68.35,0,0,1,4.44-9.28l-1.44-.58a42.53,42.53,0,0,0-5.27,10.49,33.13,33.13,0,0,0-2.29,11c0,.21,0,.32-.16.32s-.16-.35-.16-1a31.16,31.16,0,0,1,2.3-10.75A42,42,0,0,1,75.6,4.75,13,13,0,0,0,71.5,4a8.8,8.8,0,0,0-6.38,2.45,1.93,1.93,0,0,0-.68,1.4c0,.92.77,1.7,2.3,2.34a4.51,4.51,0,0,1,.83.45s0,.06-.16.06a2.73,2.73,0,0,1-.74-.22c-2-.84-3-1.86-3-3.06a2.34,2.34,0,0,1,.83-1.65C66.2,4,68.71,3.17,72,3.17a17.12,17.12,0,0,1,4.39.57c1.08-1.32,1.76-2,2-2,.1,0,.13,0,.11.11a4.42,4.42,0,0,1-.7.72,9.84,9.84,0,0,0-1.14,1.23c1.88.55,2.81,1,2.81,1.44v.1a28.49,28.49,0,0,0-1.65,2.92Q72.68,18,72.68,23.36c0,1.49.37,2.24,1.12,2.24q2.08,0,6.66-6.2a68.72,68.72,0,0,0,6.33-9.9,24,24,0,0,0,.87-3.34.86.86,0,0,1,.9-.58c.45,0,.68.14.68.43A54.92,54.92,0,0,1,88,12.15a39.08,39.08,0,0,0-1.27,8.08q0,5.15,2,5.15C89.79,25.38,91.2,24.05,92.88,21.38Z"/><path class="cls-1" d="M100.69,18a6.92,6.92,0,0,1,1.58,3.72A2.45,2.45,0,0,1,101,24a4.59,4.59,0,0,1-2.41.76,7,7,0,0,1-2.47-.49q-1.29-.48-1.29-1.17l0-.11s0,.06.08.11.57.3,1.2.61a4.21,4.21,0,0,0,1.91.47,3,3,0,0,0,1.76-.57,1.76,1.76,0,0,0,.81-1.48c0-1.56-1.06-3.54-3.2-5.94q-4.07,9.47-5.2,12.26a42.46,42.46,0,0,0-1.66,4.71,15.83,15.83,0,0,0-.52,4c0,2.14.7,3.21,2.09,3.21a6.74,6.74,0,0,0,3.31-1.19,2.93,2.93,0,0,1-1.39,1.13,4.09,4.09,0,0,1-1.71.49,4.23,4.23,0,0,1-3.07-1.35,4.16,4.16,0,0,1-1.35-3,9.43,9.43,0,0,1,.66-3.38q.67-1.72,1.89-4.32T97,15.59a9.07,9.07,0,0,1-2-4.83q0-2,1.59-2c1.36,0,2,.83,2,2.49a12.18,12.18,0,0,1-.72,3.45A38.29,38.29,0,0,1,100.69,18ZM97.52,14.4a8.42,8.42,0,0,0,.61-3.33c0-1.26-.44-1.89-1.33-1.89-.41,0-.61.43-.61,1.3A6.75,6.75,0,0,0,97.52,14.4Z"/><path class="cls-1" d="M115.88,11.12c.29.08.43.31.43.71a5.25,5.25,0,0,1-.91,2.1A7.12,7.12,0,0,1,114,15.8a18.76,18.76,0,0,0-1.2,3.51,15.67,15.67,0,0,0-.52,3.73q0,1.62.93,1.62c.75,0,1.62-.65,2.63-1.94a28.81,28.81,0,0,0,1.94-2.92c.1-.14.18-.22.26-.22s.1,0,.1.11l-.07.22c-1.85,3.57-3.57,5.36-5.18,5.36-1.39,0-2.09-1-2.09-3a22.33,22.33,0,0,1,.65-4.39A41.45,41.45,0,0,1,109,22q-2,2.66-3.6,2.66c-1.11,0-1.66-.74-1.66-2.23,0-2.28,1.21-4.71,3.64-7.27s4.8-4,7.12-4.25Q117.15,4.46,119,.83A2.27,2.27,0,0,1,121,0c.33,0,.5.08.5.25Q118.66,5.55,115.88,11.12ZM104.65,21.74c0,1.06.32,1.59,1,1.59q2.63,0,5.15-5.87a4.53,4.53,0,0,1-1,.22c-.18,0-.27-.06-.27-.17s.16-.21.49-.32a5.05,5.05,0,0,0,1.2-.67c.22-.57.39-1.06.52-1.47s.25-.61.35-.61.25.1.25.32A4.15,4.15,0,0,1,112,16l.65-.47,1.51-3.74c-1.82.4-3.86,1.74-6.12,4S104.65,20,104.65,21.74Z"/><path class="cls-1" d="M130,19.84c.07,0,.11.05.11.16a.54.54,0,0,1-.15.34c-2.16,3.22-3.82,4.82-5,4.82a1.56,1.56,0,0,1-1.46-.91,4.4,4.4,0,0,1-.48-2.06,11.26,11.26,0,0,1,.36-2.61q-2.28,5-4.68,5c-1,0-1.48-.63-1.48-1.9q0-3.06,3-6.38c2-2.2,4-3.31,5.92-3.31q1.41,0,1.41,1.23c0,1-.68,2-2,3a13.25,13.25,0,0,0-1,5c0,1.59.3,2.39.9,2.39q1.19,0,4.32-4.54C129.85,19.93,130,19.84,130,19.84Zm-4.14-3.78a2.73,2.73,0,0,0,.58-1.59.69.69,0,0,0-.76-.79q-1.8,0-4.72,3.55t-2.91,5.45c0,.55.26.83.79.83q2.26,0,4.39-5a4.14,4.14,0,0,1-.86.18c-.15,0-.22,0-.22-.11s.17-.24.51-.36l1.11-.65a3.91,3.91,0,0,1,.76-1.6q.68-1,1.29-1c.15,0,.22.1.22.29A2.89,2.89,0,0,1,125.89,16.06Z"/><path class="cls-1" d="M142.88,13.07q0,.62-6.08,2.34-1.62,3.14-2,4a11,11,0,0,0-.94,4.29c0,.79.27,1.19.79,1.19a4.55,4.55,0,0,0,2.56-1.37l1.62-1.41a.1.1,0,0,1,.11.11,1,1,0,0,1-.11.33,9,9,0,0,1-1.94,1.92,4.1,4.1,0,0,1-2.16,1.06c-1.21,0-1.8-.73-1.8-2.19a12.64,12.64,0,0,1,.79-3.93,2.48,2.48,0,0,0-1.44-1.47l-1-.4c-.44-.17-.78-.31-1.05-.43a.73.73,0,0,1-.39-.74.59.59,0,0,1,.5-.66h1a20,20,0,0,0,4-.44l3.45-7.74c.17-.43.57-.64,1.21-.64s.95.12.95.36c0,.07-.45,1.09-1.35,3.07s-1.39,3-1.49,3.12l-.61.57-.43.87q.85-.26,5.25-1.8a2.89,2.89,0,0,1,.45-.07C142.85,13,142.88,13,142.88,13.07Zm-7.77,2.81c-1.35.31-2.56.55-3.64.72a4.75,4.75,0,0,1,2.41,2.3C134.12,18.23,134.53,17.22,135.11,15.88Z"/><path class="cls-1" d="M150.8,19.76s0,0,0,.11a2.24,2.24,0,0,1-.29.61,12,12,0,0,1-3.24,3.33,7,7,0,0,1-4,1.53c-1.7,0-2.55-1.1-2.55-3.31a12,12,0,0,1,.25-2.37,2.67,2.67,0,0,1-.58-.8.49.49,0,0,0,.18.09l.27.11a1.43,1.43,0,0,0,.27.09,7.49,7.49,0,0,1,2.2-3.63,5.17,5.17,0,0,1,3.56-1.88c.27,0,.4,0,.4.09s-.17.19-.5.38a8,8,0,0,0-2.49,2.23,10.34,10.34,0,0,0-1.76,3l.07.07a5.55,5.55,0,0,0,3.6-1.66,4.61,4.61,0,0,0,1.87-3.38,1.8,1.8,0,0,0-.27-1A.94.94,0,0,0,147,13a3.13,3.13,0,0,0-1.53.55,5.53,5.53,0,0,1-1,.56q-.09,0-.09,0,0-.44,1.17-.9a5.29,5.29,0,0,1,1.91-.47,1.86,1.86,0,0,1,1.28.47,1.61,1.61,0,0,1,.54,1.29c0,1.27-.79,2.47-2.36,3.6a9.11,9.11,0,0,1-4.45,1.87,5.33,5.33,0,0,0-.29,1.66c0,2,.73,3,2.17,3a5.33,5.33,0,0,0,3.31-1.32,10.93,10.93,0,0,0,2.66-3Q150.59,19.76,150.8,19.76Z"/><path class="cls-1" d="M162.5,11.12c.29.08.43.31.43.71a5.25,5.25,0,0,1-.91,2.1,7.12,7.12,0,0,1-1.43,1.87,18.07,18.07,0,0,0-1.2,3.51,15.67,15.67,0,0,0-.52,3.73q0,1.62.93,1.62c.74,0,1.62-.65,2.63-1.94a28.81,28.81,0,0,0,1.94-2.92c.1-.14.18-.22.25-.22a.1.1,0,0,1,.11.11l-.07.22q-2.78,5.36-5.18,5.36c-1.4,0-2.09-1-2.09-3a21.59,21.59,0,0,1,.65-4.39A41.23,41.23,0,0,1,155.62,22q-1.94,2.66-3.6,2.66c-1.1,0-1.65-.74-1.65-2.23,0-2.28,1.21-4.71,3.63-7.27s4.8-4,7.13-4.25q2.63-6.45,4.5-10.08a2.27,2.27,0,0,1,2-.83c.33,0,.5.08.5.25Q165.28,5.55,162.5,11.12ZM151.27,21.74c0,1.06.32,1.59,1,1.59q2.63,0,5.15-5.87a4.53,4.53,0,0,1-1,.22c-.18,0-.27-.06-.27-.17s.16-.21.49-.32a5.05,5.05,0,0,0,1.2-.67c.22-.57.39-1.06.52-1.47s.25-.61.35-.61.25.1.25.32a4.15,4.15,0,0,1-.33,1.19l.65-.47,1.51-3.74c-1.82.4-3.86,1.74-6.12,4S151.27,20,151.27,21.74Z"/></g></g></svg>