<svg xmlns="http://www.w3.org/2000/svg" viewBox="0 0 175.43 41.44"><defs><style>.cls-1{fill:#a56d29;}</style></defs><title>1</title><g id="Layer_2" data-name="Layer 2"><g id="_ÎÓÈ_1" data-name="—ÎÓÈ_1"><path class="cls-1" d="M8.57,18.58a1.64,1.64,0,0,0-1.8-1.3,4.66,4.66,0,0,0-4.11,2.56,8.66,8.66,0,0,0-1.4,4.68,6.18,6.18,0,0,0,1.08,3.85A3.82,3.82,0,0,0,5.72,30a7.78,7.78,0,0,0,2.16-.33q3-.93,6.34-5.76A43.05,43.05,0,0,0,18.54,16a10.9,10.9,0,0,0-2.7-2.23l-.29-.25a.64.64,0,0,1,.47-.18c.58,0,1.49.72,2.74,2.16A59,59,0,0,0,22.07,4.86a8,8,0,0,0-.83,0,22.82,22.82,0,0,0-6.52,1q-4.63,1.37-4.64,3.6a1.86,1.86,0,0,0,.36,1.11l.36.51s0,.07-.11.07c-.29,0-.63-.28-1-.83A2.4,2.4,0,0,1,9,8.86q0-1.62,4.2-3.14a25.5,25.5,0,0,1,8.66-1.51,5.39,5.39,0,0,1,2,.25c.07,0,.11.18.11.47a19.39,19.39,0,0,1-1.39,5.78q-1.38,3.9-2.5,6.39a7.53,7.53,0,0,1,.9,1.15A47.36,47.36,0,0,1,27,9Q31.36,4,36.43,4A5.74,5.74,0,0,1,40.88,6a6.64,6.64,0,0,1,1.74,4.62c0,.51-.06.76-.18.76s-.1-.2-.1-.61a4.78,4.78,0,0,0-1.86-4A6.93,6.93,0,0,0,36,5.29q-4.61,0-8.89,4.61a49.23,49.23,0,0,0-5.91,8.68l4.47,6.08a24.62,24.62,0,0,0,4.89,5.26,6.14,6.14,0,0,0,3.14,1.29c1.29,0,1.94-.82,1.94-2.46a7.4,7.4,0,0,0-1.48-4.49.27.27,0,0,1-.1-.19c0-.06,0-.09.16-.09s.21.08.3.25a6.32,6.32,0,0,1,1.7,4.25,4,4,0,0,1-1,2.77,3.39,3.39,0,0,1-2.63,1.11,7.74,7.74,0,0,1-5-2.26,17.5,17.5,0,0,1-4.07-5c-.36-.72-.86-1.75-1.51-3.08s-1.08-2.2-1.29-2.61l-1.55,2.74q-2.88,5.15-4.47,5.14-.54,0-.54-.36c0-.12.16-.19.47-.21C15.78,26.6,17,25.37,18.4,23q.24-.39,2.12-4c-.29-.55-.54-1-.76-1.37Q13.61,30.39,5.83,30.38a5.53,5.53,0,0,1-4.25-1.71A6.48,6.48,0,0,1,0,24.1a8.19,8.19,0,0,1,1.78-5.16,5.58,5.58,0,0,1,4.63-2.31,2.64,2.64,0,0,1,1.51.47,1.3,1.3,0,0,1,.76,1.22C8.68,18.47,8.64,18.55,8.57,18.58Z"/><path class="cls-1" d="M39.85,20.34s0,0,0,.11a2.39,2.39,0,0,1-.29.61,11.82,11.82,0,0,1-3.24,3.33,7,7,0,0,1-4,1.53c-1.7,0-2.55-1.1-2.55-3.31a12,12,0,0,1,.25-2.38,2.49,2.49,0,0,1-.58-.79l.18.09.27.11.27.09a7.59,7.59,0,0,1,2.2-3.64A5.15,5.15,0,0,1,36,14.22c.27,0,.4,0,.4.09s-.17.19-.5.38a7.9,7.9,0,0,0-2.49,2.23,10.66,10.66,0,0,0-1.76,3l.07.08a5.6,5.6,0,0,0,3.6-1.66A4.61,4.61,0,0,0,37.15,15a1.84,1.84,0,0,0-.27-1,.94.94,0,0,0-.88-.45,3.16,3.16,0,0,0-1.53.56,6.39,6.39,0,0,1-1,.56c-.06,0-.09,0-.09,0q0-.44,1.17-.9a5.51,5.51,0,0,1,1.91-.47,1.91,1.91,0,0,1,1.28.47,1.63,1.63,0,0,1,.54,1.3c0,1.27-.79,2.47-2.36,3.6a9.08,9.08,0,0,1-4.45,1.87,5.3,5.3,0,0,0-.28,1.66c0,2,.72,3,2.16,3a5.31,5.31,0,0,0,3.31-1.31,11.11,11.11,0,0,0,2.66-3C39.53,20.51,39.71,20.34,39.85,20.34Z"/><path class="cls-1" d="M50.83,20.34s0,0,0,.11a2.39,2.39,0,0,1-.29.61,12,12,0,0,1-3.24,3.33,7,7,0,0,1-4,1.53c-1.7,0-2.55-1.1-2.55-3.31A12,12,0,0,1,41,20.23a2.49,2.49,0,0,1-.58-.79l.18.09.27.11.27.09a7.59,7.59,0,0,1,2.2-3.64,5.15,5.15,0,0,1,3.56-1.87c.27,0,.4,0,.4.09s-.17.19-.5.38a7.9,7.9,0,0,0-2.49,2.23,10.66,10.66,0,0,0-1.76,3l.07.08a5.6,5.6,0,0,0,3.6-1.66A4.61,4.61,0,0,0,48.13,15a1.84,1.84,0,0,0-.27-1,.94.94,0,0,0-.88-.45,3.16,3.16,0,0,0-1.53.56,6.39,6.39,0,0,1-1,.56c-.06,0-.09,0-.09,0q0-.44,1.17-.9a5.51,5.51,0,0,1,1.91-.47,1.91,1.91,0,0,1,1.28.47,1.63,1.63,0,0,1,.54,1.3c0,1.27-.79,2.47-2.36,3.6a9.11,9.11,0,0,1-4.45,1.87,5.3,5.3,0,0,0-.28,1.66c0,2,.72,3,2.16,3a5.31,5.31,0,0,0,3.31-1.31,11.11,11.11,0,0,0,2.66-3C50.51,20.51,50.69,20.34,50.83,20.34Z"/><path class="cls-1" d="M57.64,18.61a7,7,0,0,1,1.58,3.73A2.47,2.47,0,0,1,58,24.59a4.66,4.66,0,0,1-2.41.75,7.11,7.11,0,0,1-2.47-.48c-.86-.33-1.3-.72-1.3-1.17l0-.11s0,.06.07.11.57.3,1.21.61a4.3,4.3,0,0,0,1.91.47,3,3,0,0,0,1.76-.58,1.73,1.73,0,0,0,.81-1.47q0-2.34-3.2-5.94Q50.32,26.24,49.19,29a44.33,44.33,0,0,0-1.65,4.72,15.29,15.29,0,0,0-.52,4c0,2.14.69,3.2,2.08,3.2a6.71,6.71,0,0,0,3.32-1.18A3,3,0,0,1,51,41a3.81,3.81,0,0,1-4.79-.86,4.18,4.18,0,0,1-1.35-3,9.24,9.24,0,0,1,.67-3.38q.66-1.74,1.89-4.32t6.48-13.22a9,9,0,0,1-2-4.82c0-1.32.53-2,1.58-2,1.37,0,2,.83,2,2.48a12.23,12.23,0,0,1-.72,3.46A38.92,38.92,0,0,1,57.64,18.61ZM54.47,15a8.42,8.42,0,0,0,.61-3.33c0-1.26-.45-1.89-1.33-1.89-.41,0-.61.43-.61,1.29A6.78,6.78,0,0,0,54.47,15Z"/><path class="cls-1" d="M76.07,18.9,72.75,19a5.34,5.34,0,0,1-.86,0,.48.48,0,0,1,0,.24,2,2,0,0,1-.22.66,11.15,11.15,0,0,0-1.33,4.95,5.17,5.17,0,0,0,1.15,3.58,4,4,0,0,0,3.28,1.48q3.7,0,7.56-5.62A65.48,65.48,0,0,0,90,7.81a15.73,15.73,0,0,0,.72-2.32q0-.27,0-.27a13.18,13.18,0,0,0-3,1.44,47.71,47.71,0,0,1-3.45,11.52q-3.06,7-6.95,9.54a5.56,5.56,0,0,1-3,1.15c-.2,0-.29-.07-.29-.21s.12-.24.36-.27.75-.18,1.55-.42q3-1.37,5.86-6.23A43.79,43.79,0,0,0,87.08,7a17.74,17.74,0,0,0-2.91,2.16,11.09,11.09,0,0,0-1.75,2.47,5.4,5.4,0,0,0-.81,2.26,1.27,1.27,0,0,0,.54,1.14q.18.1.18.18s-.13.07-.4.07a1.38,1.38,0,0,1-.9-.54,1.86,1.86,0,0,1-.46-1.19q0-1.8,2.48-4.17a26.71,26.71,0,0,1,4.14-3.06,36.4,36.4,0,0,0,.5-6A.28.28,0,0,1,87.88,0a4.68,4.68,0,0,1,.17,1.89A33.7,33.7,0,0,1,87.77,6,9.26,9.26,0,0,1,91.69,4.5c.41,0,.61.19.61.58a18.87,18.87,0,0,1-.83,4.1q-3,10.26-8.38,16.45-4,4.73-8.39,4.72a4.32,4.32,0,0,1-3.85-1.8,7.77,7.77,0,0,1-1.23-4.48,9.31,9.31,0,0,1,.83-4.27.66.66,0,0,0,.11-.29c0-.07-.23-.15-.68-.23s-.69-.21-.69-.38.2-.46.61-.65a1.92,1.92,0,0,1,.9-.29l.72.08,5-.22A10,10,0,0,1,79,18a1.61,1.61,0,0,1,1.4,1.65,1.91,1.91,0,0,1-1.15,1.62c-.1,0-.15,0-.15-.07s.14-.28.4-.54a4.17,4.17,0,0,0,.36-.58C79.81,19.31,78.56,18.9,76.07,18.9Z"/><path class="cls-1" d="M91.15,25.45l2-9.11a20.13,20.13,0,0,0-.79-1.94c0-.17.2-.32.61-.47a9.29,9.29,0,0,1,2.32-.68c.35,0,.52.11.52.32Q94.5,16.88,94,18.18v.22q0,1.11-.33,1.11s-.08,0-.11-.11c-.5,1.52-.85,2.62-1,3.32A36.4,36.4,0,0,1,95.9,18q2.7-3.13,4.47-3.13c.55,0,.82.21.82.65q0,.24-2.08,7.92a13.31,13.31,0,0,0,3.24-3.32q.18-.21.27-.21c.06,0,.09,0,.09.11a.63.63,0,0,1-.11.28,13.89,13.89,0,0,1-3.85,4.47.57.57,0,0,1-.45.21c-.18,0-.27-.1-.27-.32a22.76,22.76,0,0,1,.43-2.45q.44-2.12.63-3.24a22.51,22.51,0,0,0,.27-2.81,13.69,13.69,0,0,0-3.64,3.1A20.45,20.45,0,0,0,92.86,23a9.51,9.51,0,0,0-.9,2.18c-.13.56-.3.84-.5.84s-.31-.15-.31-.47Zm2.56-11.27a2.93,2.93,0,0,1-.69.36l.36.83Z"/><path class="cls-1" d="M115.67,25.78l.57.1q2.78,0,6.23-7.81a61.82,61.82,0,0,0,3.6-10.37,43,43,0,0,0-8.14-1.15q-5.79,0-5.79,4,0,2.65,3.06,4.79c.09,0,.14.07.14.14s0,.11-.09.11a.65.65,0,0,1-.23-.07q-4-2.31-4-5.51a3.54,3.54,0,0,1,2.19-3.35,10.39,10.39,0,0,1,4.39-.79A51.66,51.66,0,0,1,126.25,7q.18-.9.36-2.52a.76.76,0,0,1,.22-.47c.07,0,.1.28.1.78a13.88,13.88,0,0,1-.28,2.28l2.62.51q3.21-5.37,7.06-5.37c1.54,0,2.3.65,2.3,1.95q0,.36-.12.36c-.09,0-.13-.1-.13-.29,0-.94-.62-1.41-1.87-1.41-1.73,0-3.55,1.7-5.47,5.08a32,32,0,0,0,5.54.68c2.35,0,3.53-.57,3.53-1.72a.91.91,0,0,0-.11-.49.55.55,0,0,1-.11-.25c0-.06,0-.09.08-.09s.27.17.39.52a2.8,2.8,0,0,1,.18.88c0,1.47-1.17,2.2-3.53,2.2a34.69,34.69,0,0,1-6.44-1c-1,2-2.25,4.56-3.8,7.77A44.88,44.88,0,0,1,122.4,24q-3.75,5-8,5a5.73,5.73,0,0,1-2.63-.57,2.25,2.25,0,0,1-1.47-2.13A2.51,2.51,0,0,1,112,24a6,6,0,0,1,2.88-.65c.21,0,.32,0,.32.11s-.11.1-.32.1a4.77,4.77,0,0,0-2.38.58A2,2,0,0,0,111.17,26a1.91,1.91,0,0,0,.91,1.77,3.89,3.89,0,0,0,2,.56,7.45,7.45,0,0,0,5.61-2.81A26.42,26.42,0,0,0,123.3,20c.93-1.95,1.86-4,2.79-6s1.85-4,2.79-5.65l-2.41-.51a51.32,51.32,0,0,1-5.08,13.61c-1.87,3.26-3.59,4.9-5.15,4.9q-.75,0-.75-.36A.16.16,0,0,1,115.67,25.78Z"/><path class="cls-1" d="M138.67,18.18l.11-.68a1.3,1.3,0,0,0-.38-1,1.22,1.22,0,0,0-.88-.38,13.78,13.78,0,0,1-2.13,6.74h1.12a1.57,1.57,0,0,1-.7.28,1.21,1.21,0,0,1-.33,0,.41.41,0,0,0-.19,0s0,.1-.2.24l-1.35,1.17a3.35,3.35,0,0,1-2.09,1c-.94,0-1.4-.6-1.4-1.8a7.72,7.72,0,0,1,1.65-4.5,7.85,7.85,0,0,1-.57-3,5.69,5.69,0,0,1,.61-2.72c.79-1.51,1.77-2.27,2.95-2.27q2.24,0,2.59,3.82a1.66,1.66,0,0,1,1.8,1.87c0,1-.15,1.48-.47,1.48C138.72,18.4,138.67,18.32,138.67,18.18Zm-6.52,1.87A7,7,0,0,0,131,23.24c0,.78.26,1.17.79,1.17s1.43-.51,2.34-1.51Q132.92,22.75,132.15,20.05Zm2.78-8c-.77,0-1.48.76-2.13,2.27a6.39,6.39,0,0,0-.61,2.63,12,12,0,0,0,.11,1.87,9.33,9.33,0,0,1,4.61-3.67C136.43,13.06,135.77,12,134.93,12Zm2,4.11a6.24,6.24,0,0,0-2.46,1.46,7.87,7.87,0,0,0-2.07,2.14c.5,1.82,1.11,2.82,1.83,3A8.79,8.79,0,0,0,136,19.58,10.6,10.6,0,0,0,136.94,16.13Z"/><path class="cls-1" d="M151.34,23.18v.08A3.49,3.49,0,0,1,148.57,25c-1,0-1.51-.88-1.51-2.66q0-1.08.18-3.06a16.15,16.15,0,0,1-4.5,5l-1.23.94a1.08,1.08,0,0,1-.63.14c-.3,0-.45-.07-.45-.22a8.55,8.55,0,0,1,1.17-3.56,21.29,21.29,0,0,0,1.46-3.26,10.56,10.56,0,0,0,.29-2.79,14.26,14.26,0,0,1-1.3,2.56,14.11,14.11,0,0,1-1.94,3c-.14,0-.22-.05-.22-.15L141,19.12A20.82,20.82,0,0,0,143.21,14c.14-.62.43-.94.86-.94s.65.55.65,1.64a16.28,16.28,0,0,1-.94,4.59l-1.51,4.72a20,20,0,0,0,5-5.65,7.88,7.88,0,0,1,1-3.32,1.09,1.09,0,0,1,.81-.25c.4,0,.6.13.6.4a3.18,3.18,0,0,1-.69,2,18.53,18.53,0,0,0-.79,5.25c0,1.16.36,1.73,1.08,1.73a1.69,1.69,0,0,0,1.1-.47l.72-.61c.11-.09.15-.14.12-.14S151.34,23,151.34,23.18Z"/><path class="cls-1" d="M153.29,26.24c-1.66,0-2.49-.93-2.49-2.8a11.27,11.27,0,0,1,2-6c1.32-2.1,2.85-3.15,4.57-3.15.27,0,.4,0,.4.12s-.24.27-.72.56a10.12,10.12,0,0,0-3.19,3.35,8,8,0,0,0-1.42,4.14c0,1.94.73,2.92,2.2,2.92a5.55,5.55,0,0,0,2.95-1.05,11.42,11.42,0,0,0,3.53-3.49c.21-.36.38-.54.5-.54l.07.07a1.49,1.49,0,0,1-.32.61,13.18,13.18,0,0,1-3.65,3.6A8,8,0,0,1,153.29,26.24Zm6.58-10.69a5.09,5.09,0,0,1-.28,1.53c-.2.59-.45.88-.76.88s-.47-.18-.47-.54a4.68,4.68,0,0,1,.22-1,4,4,0,0,0,.25-1.26c0-1.08-.43-1.62-1.3-1.62a3.81,3.81,0,0,0-1.63.52,6.93,6.93,0,0,1-1.1.53.1.1,0,0,1-.11-.11c0-.34.41-.64,1.24-.9a6.84,6.84,0,0,1,2-.4C159.23,13.21,159.87,14,159.87,15.55Z"/><path class="cls-1" d="M171,14.4l-.32,2.74a15.82,15.82,0,0,0,.65,4.42c.62,2.07,1.47,3.1,2.55,3.1a1.89,1.89,0,0,0,.72-.18,2.54,2.54,0,0,1,.51-.18c.19,0,.29.11.29.32s-.25.42-.74.62a3.41,3.41,0,0,1-1.14.28c-1.22,0-2.28-.92-3.18-2.77a11.69,11.69,0,0,1-1.35-5,4.21,4.21,0,0,1,0-.61,41.51,41.51,0,0,1-5.14,5.47c-.32,1.06-.58,2.11-.8,3.17a1.13,1.13,0,0,1-1.18,1c-.29,0-.41-.09-.36-.29a6.19,6.19,0,0,0-.53-.91,2.26,2.26,0,0,1-.41-.85c0-.14.08-.23.25-.25a13.58,13.58,0,0,0,1.62-1.26Q164.71,16.74,170,5c0-.1.12-.28.21-.54A10.62,10.62,0,0,1,171,2.92c.27-.56.9-.83,1.91-.83.36,0,.54.08.54.25l-2.16,4.07a117.73,117.73,0,0,0-6.95,15,29.85,29.85,0,0,0,5.58-7,.75.75,0,0,1,.69-.36C170.88,14.11,171,14.21,171,14.4Zm-8.89,9.83-.75.61a3.19,3.19,0,0,1,.36.76C161.94,24.88,162.07,24.42,162.14,24.23Z"/></g></g></svg>