<svg xmlns="http://www.w3.org/2000/svg" viewBox="0 0 122.39 41.7"><defs><style>.cls-1{fill:#a56d29;}</style></defs><title>Cooperation</title><g id="Layer_2" data-name="Layer 2"><g id="Layer_1-2" data-name="Layer 1"><path class="cls-1" d="M15.12,2.38,15.05.29c0-.19.06-.29.18-.29s.13.2.25.61a7.6,7.6,0,0,1,.18,2q0,1.34,0,1.83a13.41,13.41,0,0,1,2.59-.28,7.06,7.06,0,0,1,5,1.69,6.17,6.17,0,0,1,2,4.86v.14c0,.41-.17.62-.51.62a1.32,1.32,0,0,1-.64-.22c-1.64-1-3.14-1.84-4.51-2.58a24.94,24.94,0,0,0-4.21-1.78,83,83,0,0,1-1.94,10.52A59.58,59.58,0,0,1,10,27.44c.2,0,.51,0,.94,0a17.52,17.52,0,0,0,8-2A15,15,0,0,0,25,20.2l.33-.43a.43.43,0,0,1,0,.21.88.88,0,0,1-.1.4,16.36,16.36,0,0,1-6.92,6.09,21,21,0,0,1-9,2.34Q7,33,4.93,33c-.21,0-.32-.07-.32-.21a.22.22,0,0,1,.22-.25l.68-.15q1.65-.57,3.38-3.56A8.85,8.85,0,0,1,3,26.75C1.58,25.46.86,23.48.86,20.83A14.81,14.81,0,0,1,4,12.44a20,20,0,0,1,7.2-6.5,18.25,18.25,0,0,0-2-.11,12.6,12.6,0,0,0-2.74.42A11.26,11.26,0,0,0,3.31,7.49c-1.39.82-2.09,1.73-2.09,2.74a1,1,0,0,0,0,.28v.29c0,.32-.11.47-.32.47s-.51-.19-.65-.58A2.82,2.82,0,0,1,0,9.61Q0,7.49,3.82,6.34A19.7,19.7,0,0,1,9.4,5.51a21.17,21.17,0,0,1,2.27.18A20.78,20.78,0,0,1,15.09,4.5C15.11,4,15.12,3.29,15.12,2.38ZM2.84,20.09a6.91,6.91,0,0,0,1.81,5.08,7.18,7.18,0,0,0,5,2.23A48.91,48.91,0,0,0,13,17.68a78.85,78.85,0,0,0,1.94-11A29.83,29.83,0,0,0,11.85,6a15.25,15.25,0,0,0-6.41,5.8A15,15,0,0,0,2.84,20.09ZM15,5.11a12.64,12.64,0,0,0-2.6.69L15,6.19C15,6,15,5.59,15,5.11Zm8.85,4.32c.17,0,.26-.12.26-.36a2.36,2.36,0,0,0-.22-.86A5.64,5.64,0,0,0,21,5.8,11.17,11.17,0,0,0,16.85,5c-.29,0-.72,0-1.29.08L15.45,6.3a28.42,28.42,0,0,1,8,3A1.26,1.26,0,0,0,23.87,9.43Z"/><path class="cls-1" d="M33.34,18.44l.11-.69a1.26,1.26,0,0,0-.38-.95,1.2,1.2,0,0,0-.88-.38,13.74,13.74,0,0,1-2.12,6.73h1.11a1.46,1.46,0,0,1-.7.29,1.17,1.17,0,0,1-.32,0,.45.45,0,0,0-.2,0s0,.1-.2.23l-1.35,1.17a3.29,3.29,0,0,1-2.09,1c-.93,0-1.4-.6-1.4-1.8a7.77,7.77,0,0,1,1.65-4.51,7.78,7.78,0,0,1-.57-3,5.72,5.72,0,0,1,.61-2.72c.79-1.51,1.78-2.26,2.95-2.26q2.24,0,2.6,3.81A1.67,1.67,0,0,1,34,17.18c0,1-.16,1.47-.47,1.47Q33.34,18.65,33.34,18.44Zm-6.51,1.87a6.87,6.87,0,0,0-1.19,3.19c0,.78.26,1.17.79,1.17s1.43-.51,2.34-1.52C28,23.06,27.33,22.11,26.83,20.31Zm2.77-8c-.77,0-1.48.76-2.12,2.27a6.41,6.41,0,0,0-.62,2.63A12,12,0,0,0,27,19.05a9.33,9.33,0,0,1,4.61-3.67C31.1,13.31,30.44,12.28,29.6,12.28Zm2,4.1a6.45,6.45,0,0,0-2.47,1.46A8,8,0,0,0,27.08,20c.5,1.83,1.12,2.83,1.84,3a8.78,8.78,0,0,0,1.78-3.13A10.85,10.85,0,0,0,31.62,16.38Z"/><path class="cls-1" d="M43.35,18.44l.11-.69a1.26,1.26,0,0,0-.38-.95,1.2,1.2,0,0,0-.88-.38,13.74,13.74,0,0,1-2.12,6.73h1.11a1.46,1.46,0,0,1-.7.29,1.17,1.17,0,0,1-.32,0,.45.45,0,0,0-.2,0s0,.1-.2.23l-1.35,1.17a3.29,3.29,0,0,1-2.09,1c-.93,0-1.4-.6-1.4-1.8a7.77,7.77,0,0,1,1.65-4.51,7.78,7.78,0,0,1-.57-3,5.72,5.72,0,0,1,.61-2.72c.79-1.51,1.78-2.26,3-2.26q2.24,0,2.6,3.81A1.67,1.67,0,0,1,44,17.18c0,1-.16,1.47-.47,1.47Q43.35,18.65,43.35,18.44Zm-6.51,1.87a6.87,6.87,0,0,0-1.19,3.19c0,.78.26,1.17.79,1.17s1.43-.51,2.34-1.52C38,23.06,37.34,22.11,36.84,20.31Zm2.77-8c-.77,0-1.48.76-2.12,2.27a6.41,6.41,0,0,0-.62,2.63A12,12,0,0,0,37,19.05a9.33,9.33,0,0,1,4.61-3.67C41.11,13.31,40.45,12.28,39.61,12.28Zm2,4.1a6.45,6.45,0,0,0-2.47,1.46A8,8,0,0,0,37.09,20c.5,1.83,1.12,2.83,1.84,3a8.78,8.78,0,0,0,1.78-3.13A10.85,10.85,0,0,0,41.63,16.38Z"/><path class="cls-1" d="M51.17,18.87a7,7,0,0,1,1.58,3.73,2.47,2.47,0,0,1-1.24,2.25,4.66,4.66,0,0,1-2.41.75,7.15,7.15,0,0,1-2.47-.48c-.86-.33-1.3-.72-1.3-1.17l0-.11s0,.06.07.11.57.3,1.21.61a4.34,4.34,0,0,0,1.91.47,3,3,0,0,0,1.76-.58A1.75,1.75,0,0,0,51.13,23q0-2.34-3.2-5.94-4.08,9.48-5.21,12.26A44.33,44.33,0,0,0,41.07,34a15.29,15.29,0,0,0-.52,4.05c0,2.14.69,3.21,2.08,3.21A6.74,6.74,0,0,0,46,40.08a3,3,0,0,1-1.39,1.13,4.09,4.09,0,0,1-1.71.49,4.25,4.25,0,0,1-3.08-1.35,4.16,4.16,0,0,1-1.35-3A9.24,9.24,0,0,1,39.09,34q.66-1.74,1.89-4.33t6.48-13.21a9,9,0,0,1-2-4.83c0-1.32.53-2,1.58-2,1.37,0,2.06.83,2.06,2.49a12.23,12.23,0,0,1-.72,3.46A38.78,38.78,0,0,1,51.17,18.87ZM48,15.23a8.42,8.42,0,0,0,.61-3.33c0-1.26-.44-1.89-1.33-1.89-.41,0-.61.43-.61,1.3A6.75,6.75,0,0,0,48,15.23Z"/><path class="cls-1" d="M64.13,20.6s0,0,0,.11a2.39,2.39,0,0,1-.29.61,12.1,12.1,0,0,1-3.24,3.33,7,7,0,0,1-4,1.53c-1.7,0-2.56-1.11-2.56-3.31a12,12,0,0,1,.26-2.38,2.61,2.61,0,0,1-.58-.79l.18.09.27.1a1.07,1.07,0,0,0,.27.09,7.53,7.53,0,0,1,2.2-3.63,5.15,5.15,0,0,1,3.56-1.87c.27,0,.4,0,.4.09s-.17.18-.51.37a8,8,0,0,0-2.48,2.24,10,10,0,0,0-1.76,3l.07.07a5.58,5.58,0,0,0,3.6-1.65,4.64,4.64,0,0,0,1.87-3.39,1.83,1.83,0,0,0-.27-1,.94.94,0,0,0-.88-.45,3.06,3.06,0,0,0-1.53.56,5.82,5.82,0,0,1-1,.55q-.09,0-.09,0,0-.44,1.17-.9a5.51,5.51,0,0,1,1.91-.47A1.91,1.91,0,0,1,62,14a1.61,1.61,0,0,1,.54,1.29c0,1.28-.79,2.48-2.36,3.6a9.14,9.14,0,0,1-4.45,1.88,5.27,5.27,0,0,0-.29,1.65c0,2,.72,3,2.16,3a5.38,5.38,0,0,0,3.32-1.31,11.11,11.11,0,0,0,2.66-3C63.81,20.77,64,20.6,64.13,20.6Z"/><path class="cls-1" d="M73.85,17.21a3.33,3.33,0,0,1-.63,1.95q-.63.9-1.2.9c-.08,0-.11,0-.11-.15.14-.36.31-.75.5-1.17a3.46,3.46,0,0,0,.29-1.44c0-.54-.2-.81-.61-.81s-1.42.67-2.61,2A20.79,20.79,0,0,0,67,21.75l-1.55,4.14a.38.38,0,0,1-.27.07,1.19,1.19,0,0,1-.58-.25c-.25-.17-.38-.31-.38-.43a4.35,4.35,0,0,0,.2-.47,2.34,2.34,0,0,1,.24-.5,34.38,34.38,0,0,0,1.92-4.85,13.3,13.3,0,0,0,.52-3.65,13.61,13.61,0,0,1-1.29,2.55,13.11,13.11,0,0,1-2,3c-.14,0-.21,0-.21-.1s.5-.88,1.49-2.49a16.55,16.55,0,0,0,2-4.5c.14-.62.38-.94.72-.94s.57.48.57,1.44a16.63,16.63,0,0,1-1.65,6.38q1.94-2.41,2.7-3.24c1.36-1.47,2.43-2.2,3.2-2.2S73.85,16.2,73.85,17.21Z"/><path class="cls-1" d="M86,20.67c.07,0,.11,0,.11.16a.58.58,0,0,1-.14.34Q82.68,26,80.91,26a1.57,1.57,0,0,1-1.46-.92A4.36,4.36,0,0,1,79,23a11.12,11.12,0,0,1,.36-2.61q-2.28,5-4.68,5c-1,0-1.48-.64-1.48-1.91,0-2,1-4.17,3-6.37s4-3.32,5.92-3.32q1.41,0,1.41,1.23c0,1-.67,2-2,3a13.25,13.25,0,0,0-1,5c0,1.6.3,2.39.9,2.39q1.18,0,4.32-4.53C85.77,20.77,85.88,20.67,86,20.67Zm-4.14-3.78a2.73,2.73,0,0,0,.58-1.59c0-.52-.25-.79-.76-.79q-1.8,0-4.72,3.55T74,23.51c0,.56.26.83.79.83,1.51,0,3-1.68,4.39-5a4.14,4.14,0,0,1-.86.18c-.15,0-.22,0-.22-.11s.17-.24.51-.36l1.11-.65a4,4,0,0,1,.76-1.6q.69-1,1.29-1c.15,0,.22.1.22.29A2.89,2.89,0,0,1,81.81,16.89Z"/><path class="cls-1" d="M98.45,13.9q0,.62-6.09,2.34c-1.08,2.09-1.74,3.42-2,4a11.13,11.13,0,0,0-.94,4.28c0,.79.27,1.19.8,1.19a4.5,4.5,0,0,0,2.55-1.37l1.62-1.4c.08,0,.11,0,.11.11a.7.7,0,0,1-.11.32,8.77,8.77,0,0,1-1.94,1.93,4.11,4.11,0,0,1-2.16,1.06c-1.2,0-1.8-.73-1.8-2.2a12.64,12.64,0,0,1,.79-3.92,2.5,2.5,0,0,0-1.44-1.48l-1-.4c-.43-.16-.78-.31-1-.43a.72.72,0,0,1-.39-.74.6.6,0,0,1,.5-.66h1a20.75,20.75,0,0,0,4-.43l3.46-7.75a1.14,1.14,0,0,1,1.2-.64q1,0,1,.36c0,.07-.45,1.09-1.35,3.07a34.36,34.36,0,0,1-1.5,3.12l-.61.58-.43.86q.87-.25,5.26-1.8a2.89,2.89,0,0,1,.45-.07C98.42,13.83,98.45,13.85,98.45,13.9Zm-7.78,2.81c-1.35.31-2.56.55-3.64.72a4.79,4.79,0,0,1,2.41,2.3C89.68,19.06,90.09,18.05,90.67,16.71Z"/><path class="cls-1" d="M101.72,20.56s.07,0,.07.07q0,.61-2,2.7c-1,1.06-1.86,1.59-2.41,1.59a1.63,1.63,0,0,1-1.84-1.84,11.21,11.21,0,0,1,.73-3.46l-.65,1c-.32.53-.53.79-.65.79s-.07-.06-.07-.19a2.55,2.55,0,0,1,.54-.92A19.52,19.52,0,0,0,97,17.36a15.28,15.28,0,0,1,.79-1.7c.12-.21.41-.32.85-.32s.67.12.67.36A2.76,2.76,0,0,1,99,16.78c-.24.48-.45.76-.62.83-1.24,2.5-1.87,4.33-1.87,5.51,0,.79.27,1.19.79,1.19.87,0,1.82-.63,2.85-1.88.43-.5.69-.81.79-.91s.19-.23.29-.35.18-.21.25-.29A1.12,1.12,0,0,0,101.72,20.56Zm-1.11-9.79a3.72,3.72,0,0,1,1-.36q.18,0,.18.09a6.33,6.33,0,0,1-.83,1l-.54,1.12c-.22.48-.49.72-.83.72s-.72-.25-.72-.76a1.59,1.59,0,0,1,.49-.92A3.65,3.65,0,0,1,100.61,10.77Z"/><path class="cls-1" d="M110.29,18.44l.11-.69a1.3,1.3,0,0,0-.38-.95,1.2,1.2,0,0,0-.88-.38A13.85,13.85,0,0,1,107,23.15h1.11a1.46,1.46,0,0,1-.7.29,1.12,1.12,0,0,1-.32,0,.45.45,0,0,0-.2,0s0,.1-.2.23l-1.35,1.17a3.29,3.29,0,0,1-2.09,1c-.93,0-1.4-.6-1.4-1.8a7.77,7.77,0,0,1,1.65-4.51,7.78,7.78,0,0,1-.57-3,5.72,5.72,0,0,1,.61-2.72c.79-1.51,1.78-2.26,3-2.26q2.23,0,2.59,3.81a1.67,1.67,0,0,1,1.8,1.88c0,1-.15,1.47-.46,1.47Q110.29,18.65,110.29,18.44Zm-6.51,1.87a6.87,6.87,0,0,0-1.19,3.19c0,.78.26,1.17.79,1.17s1.43-.51,2.34-1.52C104.93,23.06,104.28,22.11,103.78,20.31Zm2.77-8c-.77,0-1.48.76-2.13,2.27a6.56,6.56,0,0,0-.61,2.63,12,12,0,0,0,.11,1.87,9.33,9.33,0,0,1,4.61-3.67C108.05,13.31,107.39,12.28,106.55,12.28Zm2,4.1a6.44,6.44,0,0,0-2.46,1.46A8,8,0,0,0,104,20c.5,1.83,1.11,2.83,1.83,3a8.76,8.76,0,0,0,1.79-3.13A10.76,10.76,0,0,0,108.56,16.38Z"/><path class="cls-1" d="M110.83,25.71l2-9.11a19.11,19.11,0,0,0-.79-1.94c0-.17.2-.33.61-.47A9,9,0,0,1,115,13.5c.35,0,.52.11.52.33-.88,2.21-1.5,3.74-1.83,4.61v.21c0,.75-.11,1.12-.33,1.12,0,0-.08,0-.1-.11-.51,1.51-.86,2.62-1,3.31a36.28,36.28,0,0,1,3.39-4.71q2.7-3.13,4.46-3.14c.55,0,.83.22.83.65q0,.25-2.09,7.92A13.12,13.12,0,0,0,122,20.38q.18-.21.27-.21c.06,0,.09,0,.09.1a.55.55,0,0,1-.11.29A13.88,13.88,0,0,1,118.43,25a.57.57,0,0,1-.45.21c-.18,0-.27-.11-.27-.32a22.76,22.76,0,0,1,.43-2.45q.44-2.13.63-3.24a22.7,22.7,0,0,0,.27-2.81,13.64,13.64,0,0,0-3.63,3.1,20.62,20.62,0,0,0-2.87,3.71,10,10,0,0,0-.9,2.17c-.13.57-.3.85-.5.85s-.31-.16-.31-.47Zm2.56-11.27a3,3,0,0,1-.68.36l.36.83Z"/></g></g></svg>