<svg xmlns="http://www.w3.org/2000/svg" viewBox="0 0 74.62 22.47"><defs><style>.cls-1{fill:#a56d29;}</style></defs><title>Join us</title><g id="Layer_2" data-name="Layer 2"><g id="Layer_1-2" data-name="Layer 1"><path class="cls-1" d="M9,14.51l.81-.07c.06,0,.1,0,.1.05s-.5.25-1.48.25a4.39,4.39,0,0,1-2.61-.81,3,3,0,0,1-1.36-2.59q0-5.52,9.53-8.09c.08-.81.12-1.67.12-2.59a.16.16,0,0,1,.15-.18c.11,0,.16.31.16.89s0,1.17,0,1.78l2.11-.5A5.34,5.34,0,0,1,17.8.58,3.43,3.43,0,0,1,20,0a2.93,2.93,0,0,1,1.26.28,1.14,1.14,0,0,1,.7,1c0,.5-.4.84-1.19,1s-1.75.33-2.84.5Q16,9.05,15.7,10q-3,8.93-8.7,11.89a5.3,5.3,0,0,1-2.58.63A4.67,4.67,0,0,1,1.5,21.26,3.44,3.44,0,0,1,0,18.57c0-.12,0-.18.1-.18s0,.07.09.2.16.44.36.91a3.61,3.61,0,0,0,3.56,2,6.59,6.59,0,0,0,3-.75A11.81,11.81,0,0,0,12,16,34.69,34.69,0,0,0,14.46,9.5l1.89-6.45-2,.5a32.35,32.35,0,0,1-2.24,8.85c-1.41,3.52-3.09,6-5,7.35a4.25,4.25,0,0,1-2.26.91c-.15,0-.23-.05-.23-.15s.07-.17.2-.2c2-.27,3.87-2,5.62-5.29A31.5,31.5,0,0,0,14,3.65q-8.6,2.58-8.59,7.69a2.82,2.82,0,0,0,1.05,2.33A4,4,0,0,0,9,14.51ZM21.79,1.13c0-.57-.45-.85-1.36-.85-.75,0-1.5.69-2.24,2.09.49-.05,1.48-.24,3-.56C21.58,1.65,21.79,1.42,21.79,1.13Z"/><path class="cls-1" d="M22.67,11.74l.08-.48a.94.94,0,0,0-.26-.67.89.89,0,0,0-.62-.26A9.59,9.59,0,0,1,20.38,15h.78a1,1,0,0,1-.49.2l-.23,0a.28.28,0,0,0-.13,0s0,.07-.14.17l-1,.81a2.29,2.29,0,0,1-1.46.69c-.65,0-1-.42-1-1.26a5.41,5.41,0,0,1,1.16-3.15,5.42,5.42,0,0,1-.4-2.08A4,4,0,0,1,18,8.47Q18.8,6.88,20,6.88c1,0,1.64.89,1.81,2.67a1.16,1.16,0,0,1,1.26,1.31c0,.69-.11,1-.32,1S22.67,11.84,22.67,11.74Zm-4.56,1.31a4.9,4.9,0,0,0-.83,2.23c0,.55.19.82.56.82A2.53,2.53,0,0,0,19.47,15C18.92,15,18.47,14.31,18.11,13.05Zm1.94-5.62c-.53,0-1,.53-1.48,1.59a4.43,4.43,0,0,0-.43,1.84,10,10,0,0,0,.07,1.31A6.58,6.58,0,0,1,21.44,9.6C21.1,8.16,20.64,7.43,20.05,7.43Zm1.41,2.87a4.67,4.67,0,0,0-1.72,1,5.9,5.9,0,0,0-1.45,1.49q.53,1.92,1.29,2.1a6.23,6.23,0,0,0,1.24-2.2A7.43,7.43,0,0,0,21.46,10.3Z"/><path class="cls-1" d="M28.07,13.23s.05,0,.05,0c0,.28-.47.91-1.39,1.89-.74.74-1.3,1.11-1.69,1.11A1.14,1.14,0,0,1,23.76,15a7.93,7.93,0,0,1,.5-2.42l-.45.71c-.22.37-.37.55-.46.55s-.05,0-.05-.14a1.88,1.88,0,0,1,.38-.64A14.31,14.31,0,0,0,24.79,11a10,10,0,0,1,.55-1.19c.09-.15.29-.23.6-.23s.46.09.46.26a1.88,1.88,0,0,1-.25.75c-.17.34-.31.53-.43.58A10.12,10.12,0,0,0,24.41,15c0,.55.19.83.56.83a2.9,2.9,0,0,0,2-1.31l.55-.65a2.2,2.2,0,0,0,.2-.23l.18-.21A1.46,1.46,0,0,0,28.07,13.23Zm-.78-6.86A2.92,2.92,0,0,1,28,6.12c.09,0,.13,0,.13.07a4.06,4.06,0,0,1-.58.71l-.38.78c-.15.34-.34.51-.58.51s-.5-.18-.5-.53A1.08,1.08,0,0,1,26.39,7,2.68,2.68,0,0,1,27.29,6.37Z"/><path class="cls-1" d="M27.44,16.83l1.41-6.37a13.84,13.84,0,0,0-.56-1.36c0-.12.14-.23.43-.33a6.4,6.4,0,0,1,1.62-.48c.25,0,.37.08.37.23-.62,1.54-1.05,2.62-1.28,3.22v.15c0,.52-.08.78-.23.78s-.06,0-.08-.07c-.35,1.06-.59,1.83-.73,2.32a26.06,26.06,0,0,1,2.37-3.3c1.26-1.47,2.3-2.2,3.12-2.2.39,0,.58.15.58.46,0,.11-.48,2-1.46,5.54a9.18,9.18,0,0,0,2.27-2.32c.08-.1.15-.15.19-.15s.06,0,.06.08a.43.43,0,0,1-.07.2,9.63,9.63,0,0,1-2.7,3.12.39.39,0,0,1-.31.15c-.13,0-.19-.07-.19-.22a16.19,16.19,0,0,1,.3-1.72c.2-1,.35-1.74.44-2.27a14.94,14.94,0,0,0,.19-2,9.66,9.66,0,0,0-2.55,2.17,15,15,0,0,0-2,2.59A6.51,6.51,0,0,0,28,16.62c-.09.39-.21.59-.35.59s-.21-.11-.21-.33Zm1.78-7.89a2,2,0,0,1-.47.26l.25.58Z"/><path class="cls-1" d="M59.94,14.39c.08-.17.21-.39.37-.66s.28-.4.33-.4.08,0,.08.06a.41.41,0,0,1,0,.16c-1.46,2.62-2.75,3.94-3.86,3.94q-2.54,0-2.54-3.71A25.42,25.42,0,0,1,55.17,8a47.85,47.85,0,0,1-4,5.75q-3.22,4.05-5.06,4-1.59,0-1.59-2.19A16.92,16.92,0,0,1,46,9.73a47.68,47.68,0,0,1,3.11-6.5l-1-.41a29.6,29.6,0,0,0-3.69,7.35,23.15,23.15,0,0,0-1.6,7.67c0,.15,0,.22-.11.22s-.12-.24-.12-.73a21.86,21.86,0,0,1,1.61-7.52,29.38,29.38,0,0,1,3.68-7.06A9,9,0,0,0,45,2.24,6.12,6.12,0,0,0,40.51,4a1.34,1.34,0,0,0-.48,1c0,.64.54,1.18,1.61,1.64a2.62,2.62,0,0,1,.58.31s0,0-.11,0a2.19,2.19,0,0,1-.52-.15c-1.41-.59-2.11-1.3-2.11-2.14a1.64,1.64,0,0,1,.58-1.16,7,7,0,0,1,5.26-1.84A11.89,11.89,0,0,1,48.4,2c.75-.92,1.23-1.38,1.43-1.38s.09,0,.08.07a3.29,3.29,0,0,1-.49.51,6.93,6.93,0,0,0-.8.85c1.31.39,2,.72,2,1v.07a20.13,20.13,0,0,0-1.16,2.05Q45.8,12,45.8,15.77q0,1.56.78,1.56,1.47,0,4.66-4.33a48.42,48.42,0,0,0,4.44-6.93,16.37,16.37,0,0,0,.6-2.34.6.6,0,0,1,.63-.4q.48,0,.48.3a41,41,0,0,1-.89,4.29,27.25,27.25,0,0,0-.9,5.66c0,2.4.46,3.6,1.39,3.6S58.76,16.25,59.94,14.39Z"/><path class="cls-1" d="M67.22,12.92s.07,0,.07.11a.34.34,0,0,1-.05.17,3.25,3.25,0,0,1-2.12,1.69,2.79,2.79,0,0,1-.54,1.49,1.79,1.79,0,0,1-1.51.6,2.73,2.73,0,0,1-2-1,3.14,3.14,0,0,1-.93-2.18c0-.52.14-.78.41-.78s.33.12.5.37a30.36,30.36,0,0,1,2.14-4,2.51,2.51,0,0,1,2.07-1.36,1.25,1.25,0,0,1,.59.19c.22.13.34.27.34.42s-.07.17-.22.17l-.31,0h-.2a1.52,1.52,0,0,0-1,.34.94.94,0,0,0-.41.7,2,2,0,0,0,.07.6l.61,2a8.23,8.23,0,0,1,.35,2.07,2.14,2.14,0,0,0,1.07-.43,5.5,5.5,0,0,0,.9-1.08C67.12,13,67.17,12.92,67.22,12.92Zm-4.51,3.23a1.32,1.32,0,0,0,1.33-1A4.9,4.9,0,0,1,61,14.34a2.08,2.08,0,0,0,.6,1.19A1.57,1.57,0,0,0,62.71,16.15Zm1.36-1.28c0-.09,0-.27,0-.53a11.18,11.18,0,0,0-.36-1.89,10.84,10.84,0,0,1-.37-1.87,2.29,2.29,0,0,1,0-.48,19,19,0,0,0-2.14,3.63c.7.4,1.23.69,1.58.85A4.11,4.11,0,0,0,64.07,14.87Z"/><path class="cls-1" d="M69.71,14.94a7.75,7.75,0,0,1-.53,1.23,1.52,1.52,0,0,1-.38.57.81.81,0,0,1-.53.32c-.15,0-.27-.1-.37-.31a.93.93,0,0,1-.18-.5c0-.29.24-.59.72-.91a2.31,2.31,0,0,1,1.19-.47s.06,0,.08,0ZM74.62,1a6.23,6.23,0,0,1-.71,1.36c-.48.79-1.2,2.22-2.16,4.31a30.17,30.17,0,0,0-2,5.26l-.13.76a.18.18,0,0,1-.2.17c-.12,0-.18-.06-.18-.2a24,24,0,0,1,1.55-5.87,24.91,24.91,0,0,1,2.48-5.69,1,1,0,0,1,.83-.48C74.46.58,74.62.71,74.62,1Z"/></g></g></svg>