<svg xmlns="http://www.w3.org/2000/svg" viewBox="0 0 148.71 32.98"><defs><style>.cls-1{fill:#a56d29;}</style></defs><title>3</title><g id="Layer_2" data-name="Layer 2"><g id="_ÎÓÈ_1" data-name="—ÎÓÈ_1"><path class="cls-1" d="M15.12,2.38,15.05.29c0-.19.06-.29.18-.29s.13.2.25.61a7.6,7.6,0,0,1,.18,2c0,.88,0,1.5,0,1.83a13.58,13.58,0,0,1,2.6-.29,7.07,7.07,0,0,1,5,1.7,6.2,6.2,0,0,1,2,4.86v.14c0,.41-.17.61-.5.61a1.33,1.33,0,0,1-.65-.21q-2.45-1.48-4.5-2.58a25.29,25.29,0,0,0-4.21-1.78,82.65,82.65,0,0,1-1.95,10.51A58.79,58.79,0,0,1,10,27.43a7.09,7.09,0,0,0,.94,0,17.49,17.49,0,0,0,8-2A15,15,0,0,0,25,20.2l.32-.44s0,.1,0,.22a1,1,0,0,1-.11.4,16.32,16.32,0,0,1-6.91,6.08,21,21,0,0,1-9,2.34C7.73,31.58,6.28,33,4.93,33c-.21,0-.32-.08-.32-.22a.23.23,0,0,1,.21-.25l.69-.15q1.65-.57,3.38-3.56A8.88,8.88,0,0,1,3,26.75Q.86,24.8.86,20.83A14.78,14.78,0,0,1,4,12.44a19.8,19.8,0,0,1,7.2-6.5,18.25,18.25,0,0,0-2-.11,12.6,12.6,0,0,0-2.74.42A11.26,11.26,0,0,0,3.31,7.49c-1.39.81-2.09,1.73-2.09,2.73a1.06,1.06,0,0,0,0,.29v.29c0,.31-.11.47-.32.47s-.51-.19-.65-.58A2.82,2.82,0,0,1,0,9.61C0,8.2,1.27,7.1,3.82,6.34A19.35,19.35,0,0,1,9.4,5.51a20.85,20.85,0,0,1,2.26.18A21.43,21.43,0,0,1,15.08,4.5C15.11,4,15.12,3.29,15.12,2.38ZM2.84,20.09a6.92,6.92,0,0,0,1.8,5.07,7.22,7.22,0,0,0,5,2.24A48.91,48.91,0,0,0,13,17.68a80.89,80.89,0,0,0,1.94-11A28.14,28.14,0,0,0,11.84,6a15.29,15.29,0,0,0-6.4,5.8A15,15,0,0,0,2.84,20.09ZM15,5.11a12.54,12.54,0,0,0-2.59.69L15,6.19Q15,5.83,15,5.11Zm8.86,4.32c.17,0,.25-.12.25-.36a2.14,2.14,0,0,0-.22-.86A5.56,5.56,0,0,0,21,5.8a11.08,11.08,0,0,0-4.1-.8c-.29,0-.72,0-1.3.08L15.44,6.3a28.31,28.31,0,0,1,8,3A1.51,1.51,0,0,0,23.87,9.43Z"/><path class="cls-1" d="M34,7.27a2.59,2.59,0,0,0-.65.54q-6.61,12.35-6.62,15.88c0,.79.26,1.19.79,1.19a5.12,5.12,0,0,0,2.81-1.59l.41-.36c.09-.07.12-.11.09-.11s.15,0,.15.11a.73.73,0,0,1-.15.33c-1.05,1.48-2.13,2.23-3.24,2.23s-1.8-.64-1.8-1.91.61-3.56,1.84-6.88q-.9,1.23-1.26,1.23c-.07,0-.11,0-.11-.07a12.47,12.47,0,0,1,.95-1.32c.64-.83,1-1.29,1-1.38a68,68,0,0,1,3.35-7.78q2.23-4.53,3.06-6a1.18,1.18,0,0,1,1.2-.61c.62,0,.92.08.92.25S35.87,3.24,34,7.27Z"/><path class="cls-1" d="M41.9,20.59s0,0,0,.11a2.24,2.24,0,0,1-.29.61,11.82,11.82,0,0,1-3.24,3.33,6.94,6.94,0,0,1-4,1.53c-1.71,0-2.56-1.1-2.56-3.31a12,12,0,0,1,.25-2.38,2.48,2.48,0,0,1-.57-.79.36.36,0,0,0,.18.09l.27.11a1.07,1.07,0,0,0,.27.09,7.56,7.56,0,0,1,2.19-3.64A5.21,5.21,0,0,1,38,14.47q.39,0,.39.09c0,.06-.17.19-.5.38a7.9,7.9,0,0,0-2.49,2.23,10.57,10.57,0,0,0-1.76,3l.07.07a5.55,5.55,0,0,0,3.6-1.66,4.61,4.61,0,0,0,1.87-3.38,1.84,1.84,0,0,0-.27-1,.94.94,0,0,0-.88-.45,3.16,3.16,0,0,0-1.53.56,6.39,6.39,0,0,1-1,.56c-.06,0-.09,0-.09,0q0-.42,1.17-.9a5.45,5.45,0,0,1,1.91-.46,1.9,1.9,0,0,1,1.28.46,1.65,1.65,0,0,1,.54,1.3c0,1.27-.79,2.47-2.36,3.6a9.08,9.08,0,0,1-4.44,1.87,5.05,5.05,0,0,0-.29,1.66c0,2,.72,3,2.16,3A5.31,5.31,0,0,0,38.7,24.1a11.08,11.08,0,0,0,2.66-3Q41.69,20.59,41.9,20.59Z"/><path class="cls-1" d="M54,20.66c.07,0,.1.06.1.17a.54.54,0,0,1-.14.34Q50.76,26,49,26a1.55,1.55,0,0,1-1.46-.92A4.23,4.23,0,0,1,47.05,23a11.26,11.26,0,0,1,.36-2.61q-2.27,5-4.68,5c-1,0-1.47-.63-1.47-1.91q0-3.06,3-6.37t5.92-3.31c.93,0,1.4.41,1.4,1.22q0,1.51-2,3a13.26,13.26,0,0,0-1,5q0,2.4.9,2.4,1.19,0,4.32-4.54C53.86,20.76,54,20.66,54,20.66ZM49.9,16.88a2.67,2.67,0,0,0,.57-1.58c0-.53-.25-.79-.75-.79-1.2,0-2.78,1.18-4.72,3.54s-2.92,4.19-2.92,5.46a.72.72,0,0,0,.8.83q2.26,0,4.39-5a4.07,4.07,0,0,1-.87.18c-.14,0-.21,0-.21-.11s.17-.24.5-.36l1.12-.65a4,4,0,0,1,.75-1.6c.46-.66.89-1,1.3-1,.14,0,.22.09.22.29A2.84,2.84,0,0,1,49.9,16.88Z"/><path class="cls-1" d="M53.64,25.7l2-9.1a17.54,17.54,0,0,0-.8-2c0-.17.21-.32.62-.47a9.29,9.29,0,0,1,2.32-.68c.35,0,.52.11.52.32Q57,17.14,56.48,18.43v.22c0,.74-.1,1.11-.32,1.11,0,0-.08,0-.11-.1-.5,1.51-.85,2.61-1,3.31a37.11,37.11,0,0,1,3.38-4.72q2.7-3.13,4.47-3.13c.55,0,.82.22.82.65q0,.25-2.08,7.92a13.28,13.28,0,0,0,3.24-3.31c.12-.15.21-.22.27-.22s.09,0,.09.11a.66.66,0,0,1-.11.29A13.85,13.85,0,0,1,61.24,25a.58.58,0,0,1-.45.22q-.27,0-.27-.33A23.21,23.21,0,0,1,61,22.46q.44-2.12.63-3.24a22.52,22.52,0,0,0,.27-2.8,13.61,13.61,0,0,0-3.64,3.09,20.8,20.8,0,0,0-2.86,3.71,9.51,9.51,0,0,0-.9,2.18c-.13.56-.3.84-.5.84s-.31-.15-.31-.46ZM56.2,14.44a4,4,0,0,1-.69.36l.36.82Z"/><path class="cls-1" d="M87.55,2.38,87.48.29c0-.19.06-.29.18-.29s.13.2.25.61a7.6,7.6,0,0,1,.18,2c0,.88,0,1.5,0,1.83a13.48,13.48,0,0,1,2.59-.29,7.07,7.07,0,0,1,5,1.7,6.2,6.2,0,0,1,2,4.86v.14c0,.41-.16.61-.5.61a1.33,1.33,0,0,1-.65-.21q-2.44-1.48-4.5-2.58a25.29,25.29,0,0,0-4.21-1.78A82.55,82.55,0,0,1,85.9,17.35a59.58,59.58,0,0,1-3.5,10.08,7.18,7.18,0,0,0,.94,0,17.53,17.53,0,0,0,8-2,15.07,15.07,0,0,0,6.08-5.23l.32-.44s0,.1,0,.22a1,1,0,0,1-.11.4,16.26,16.26,0,0,1-6.91,6.08,21,21,0,0,1-9,2.34c-1.56,2.78-3,4.18-4.36,4.18-.21,0-.32-.08-.32-.22a.23.23,0,0,1,.22-.25l.68-.15q1.65-.57,3.38-3.56a8.85,8.85,0,0,1-5.86-2.05q-2.16-2-2.16-5.92a14.76,14.76,0,0,1,3.09-8.39,20,20,0,0,1,7.2-6.5,18.25,18.25,0,0,0-2-.11,12.6,12.6,0,0,0-2.74.42,11.26,11.26,0,0,0-3.15,1.24c-1.39.81-2.08,1.73-2.08,2.73a1.12,1.12,0,0,0,0,.29v.29c0,.31-.11.47-.32.47s-.51-.19-.65-.58a2.82,2.82,0,0,1-.29-1.08c0-1.41,1.27-2.51,3.82-3.27a19.35,19.35,0,0,1,5.58-.83,21.17,21.17,0,0,1,2.27.18A20.78,20.78,0,0,1,87.52,4.5C87.54,4,87.55,3.29,87.55,2.38ZM75.28,20.09a6.92,6.92,0,0,0,1.8,5.07,7.17,7.17,0,0,0,5,2.24,48.91,48.91,0,0,0,3.39-9.72,80.89,80.89,0,0,0,1.94-11A27.94,27.94,0,0,0,84.28,6a15.25,15.25,0,0,0-6.41,5.8A15,15,0,0,0,75.28,20.09Zm12.16-15a12.71,12.71,0,0,0-2.59.69l2.56.39Q87.44,5.83,87.44,5.11ZM96.3,9.43c.17,0,.25-.12.25-.36a2.28,2.28,0,0,0-.21-.86,5.62,5.62,0,0,0-3-2.41,11.08,11.08,0,0,0-4.1-.8c-.29,0-.72,0-1.3.08l-.1,1.22a28.36,28.36,0,0,1,8,3A1.51,1.51,0,0,0,96.3,9.43Z"/><path class="cls-1" d="M106.13,18.43l.11-.68a1.32,1.32,0,0,0-.38-1,1.21,1.21,0,0,0-.88-.37,13.78,13.78,0,0,1-2.13,6.73H104a1.62,1.62,0,0,1-.7.29,1.11,1.11,0,0,1-.33,0,.59.59,0,0,0-.2,0s0,.11-.19.24l-1.35,1.17a3.29,3.29,0,0,1-2.09,1q-1.41,0-1.41-1.8a7.72,7.72,0,0,1,1.66-4.5,7.86,7.86,0,0,1-.58-3,5.72,5.72,0,0,1,.62-2.72c.79-1.51,1.77-2.27,2.95-2.27,1.48,0,2.35,1.28,2.59,3.82a1.66,1.66,0,0,1,1.8,1.87c0,1-.16,1.48-.47,1.48C106.18,18.65,106.13,18.58,106.13,18.43ZM99.61,20.3a7,7,0,0,0-1.19,3.19c0,.78.27,1.17.8,1.17s1.42-.5,2.34-1.51C100.76,23.05,100.12,22.1,99.61,20.3Zm2.77-8c-.77,0-1.47.75-2.12,2.26a6.43,6.43,0,0,0-.61,2.63A10.75,10.75,0,0,0,99.76,19a9.37,9.37,0,0,1,4.6-3.67Q103.64,12.28,102.38,12.28Zm2,4.1a6.32,6.32,0,0,0-2.47,1.46A8.21,8.21,0,0,0,99.86,20c.51,1.82,1.12,2.82,1.84,3a8.72,8.72,0,0,0,1.78-3.13A10.91,10.91,0,0,0,104.4,16.38Z"/><path class="cls-1" d="M108.9,15.66l.68,0h.72a16.82,16.82,0,0,0,3.86-.54,41.71,41.71,0,0,1,9.07-11.85,4.2,4.2,0,0,1,2.37-1.26c.77,0,1.16.58,1.16,1.75a5.44,5.44,0,0,1-1,3.18c-.41.56-.7.83-.87.83s-.25,0-.25-.14a8.56,8.56,0,0,1,.7-1.42A4.73,4.73,0,0,0,126,4.14a.74.74,0,0,0-.83-.83q-1.3,0-3.6,2.61a32.81,32.81,0,0,0-3.46,4.52q-1.29,2-2.52,4.32L121.1,13c.1,0,.15,0,.15.07s-.22.31-.65.51a55.65,55.65,0,0,1-5.29,1.87,29.64,29.64,0,0,0-2.88,8.1s-.11,1-.33,2.81c0,.4-.33.61-.86.61s-.82-.21-.86-.61c.19-1.9.28-3.15.28-3.75q0-3.74-1.22-5l-.76-.5a.84.84,0,0,1-.39-.76C108.29,15.89,108.49,15.66,108.9,15.66Zm4.9.14c-1,.24-2.28.5-4,.76q1.18.64,1.4,5.15A37.75,37.75,0,0,1,113.8,15.8Z"/><path class="cls-1" d="M118.51,15.66l.69,0h.72a16.74,16.74,0,0,0,3.85-.54,41.71,41.71,0,0,1,9.07-11.85,4.22,4.22,0,0,1,2.38-1.26c.76,0,1.15.58,1.15,1.75a5.44,5.44,0,0,1-1,3.18c-.41.56-.7.83-.86.83s-.26,0-.26-.14A8.2,8.2,0,0,1,135,6.25a4.82,4.82,0,0,0,.7-2.11.74.74,0,0,0-.83-.83c-.86,0-2.07.87-3.6,2.61a32.81,32.81,0,0,0-3.46,4.52q-1.29,2-2.52,4.32l5.48-1.8c.09,0,.14,0,.14.07s-.22.31-.65.51a55.65,55.65,0,0,1-5.29,1.87,29.64,29.64,0,0,0-2.88,8.1s-.11,1-.32,2.81c0,.4-.34.61-.87.61s-.81-.21-.86-.61c.19-1.9.29-3.15.29-3.75q0-3.74-1.23-5l-.75-.5a.83.83,0,0,1-.4-.76C117.9,15.89,118.1,15.66,118.51,15.66Zm4.9.14c-1,.24-2.28.5-4,.76q1.18.64,1.4,5.15A38.72,38.72,0,0,1,123.41,15.8Z"/><path class="cls-1" d="M137.7,20.59s0,0,0,.11a2.06,2.06,0,0,1-.28.61,12.1,12.1,0,0,1-3.24,3.33,7,7,0,0,1-4,1.53c-1.7,0-2.56-1.1-2.56-3.31a12.1,12.1,0,0,1,.26-2.38,2.49,2.49,0,0,1-.58-.79.36.36,0,0,0,.18.09l.27.11a1.07,1.07,0,0,0,.27.09,7.51,7.51,0,0,1,2.2-3.64,5.19,5.19,0,0,1,3.56-1.87c.26,0,.4,0,.4.09s-.17.19-.51.38a7.88,7.88,0,0,0-2.48,2.23,10.38,10.38,0,0,0-1.77,3l.08.07a5.55,5.55,0,0,0,3.6-1.66A4.64,4.64,0,0,0,135,15.23a1.84,1.84,0,0,0-.27-1,1,1,0,0,0-.88-.45,3.16,3.16,0,0,0-1.53.56,6.94,6.94,0,0,1-1,.56c-.06,0-.09,0-.09,0q0-.42,1.17-.9a5.41,5.41,0,0,1,1.91-.46,1.87,1.87,0,0,1,1.27.46,1.65,1.65,0,0,1,.54,1.3c0,1.27-.78,2.47-2.35,3.6a9.15,9.15,0,0,1-4.45,1.87,5.33,5.33,0,0,0-.29,1.66c0,2,.72,3,2.16,3a5.29,5.29,0,0,0,3.31-1.32,11,11,0,0,0,2.67-3Q137.48,20.59,137.7,20.59Z"/><path class="cls-1" d="M148.68,20.59s0,0,0,.11a2.06,2.06,0,0,1-.28.61,12.1,12.1,0,0,1-3.24,3.33,7,7,0,0,1-4,1.53c-1.7,0-2.56-1.1-2.56-3.31a12.1,12.1,0,0,1,.26-2.38,2.49,2.49,0,0,1-.58-.79.36.36,0,0,0,.18.09l.27.11A1.07,1.07,0,0,0,139,20a7.51,7.51,0,0,1,2.2-3.64,5.19,5.19,0,0,1,3.56-1.87c.26,0,.4,0,.4.09s-.17.19-.51.38a7.88,7.88,0,0,0-2.48,2.23,10.38,10.38,0,0,0-1.77,3l.08.07a5.55,5.55,0,0,0,3.6-1.66A4.64,4.64,0,0,0,146,15.23a1.84,1.84,0,0,0-.27-1,1,1,0,0,0-.88-.45,3.16,3.16,0,0,0-1.53.56,6.94,6.94,0,0,1-1,.56c-.06,0-.09,0-.09,0q0-.42,1.17-.9a5.41,5.41,0,0,1,1.91-.46,1.87,1.87,0,0,1,1.27.46,1.65,1.65,0,0,1,.54,1.3c0,1.27-.78,2.47-2.35,3.6a9.15,9.15,0,0,1-4.45,1.87,5.33,5.33,0,0,0-.29,1.66c0,2,.72,3,2.16,3a5.29,5.29,0,0,0,3.31-1.32,11,11,0,0,0,2.67-3Q148.45,20.59,148.68,20.59Z"/></g></g></svg>