<svg xmlns="http://www.w3.org/2000/svg" viewBox="0 0 194.9 39.46"><defs><style>.cls-1{fill:#a56d29;}</style></defs><title>7</title><g id="Layer_2" data-name="Layer 2"><g id="_ÎÓÈ_1" data-name="—ÎÓÈ_1"><path class="cls-1" d="M5.33,25.31l.57.11q2.78,0,6.23-7.82a62,62,0,0,0,3.6-10.36A42.31,42.31,0,0,0,7.6,6.08c-3.87,0-5.8,1.34-5.8,4,0,1.78,1,3.37,3.06,4.79.1,0,.14.07.14.14s0,.11-.09.11a.53.53,0,0,1-.23-.07C2,13.51.65,11.68.65,9.54A3.54,3.54,0,0,1,2.84,6.19a10.44,10.44,0,0,1,4.4-.79,51.57,51.57,0,0,1,8.67,1.15q.18-.9.36-2.52a.79.79,0,0,1,.22-.47c.07,0,.11.29.11.78a14.17,14.17,0,0,1-.29,2.28l2.63.51q3.19-5.37,7-5.37,2.31,0,2.31,2c0,.24-.05.36-.13.36S28,4,28,3.78c0-.94-.62-1.4-1.87-1.4q-2.59,0-5.47,5.07a32.26,32.26,0,0,0,5.54.69c2.36,0,3.53-.58,3.53-1.73a.83.83,0,0,0-.11-.49.51.51,0,0,1-.1-.25c0-.06,0-.09.07-.09s.27.17.39.52A2.8,2.8,0,0,1,30.2,7c0,1.47-1.17,2.2-3.52,2.2a33.81,33.81,0,0,1-6.45-1q-1.47,3-3.8,7.77a44.2,44.2,0,0,1-4.37,7.53q-3.75,5-8,5a5.69,5.69,0,0,1-2.62-.58A2.23,2.23,0,0,1,0,25.78a2.52,2.52,0,0,1,1.62-2.27,6.12,6.12,0,0,1,2.88-.65c.22,0,.32,0,.32.11s-.1.11-.32.11a4.79,4.79,0,0,0-2.38.57A2,2,0,0,0,.83,25.51a1.89,1.89,0,0,0,.92,1.76,3.85,3.85,0,0,0,2,.56A7.47,7.47,0,0,0,9.4,25,26.84,26.84,0,0,0,13,19.55c.94-1.95,1.87-4,2.79-6.05s1.85-4,2.79-5.65l-2.41-.51A51.19,51.19,0,0,1,11.05,21q-2.81,4.9-5.15,4.9-.75,0-.75-.36A.16.16,0,0,1,5.33,25.31Z"/><path class="cls-1" d="M31.46,19.94c.08,0,.11.06.11.17a.6.6,0,0,1-.14.34q-3.24,4.82-5,4.82A1.54,1.54,0,0,1,25,24.35a4.23,4.23,0,0,1-.49-2.05,11.26,11.26,0,0,1,.36-2.61q-2.27,5-4.68,5c-1,0-1.48-.63-1.48-1.91q0-3.06,3-6.37t5.93-3.31c.93,0,1.4.41,1.4,1.22,0,1-.67,2-2,3a13.44,13.44,0,0,0-1,5q0,2.4.9,2.4,1.18,0,4.32-4.54C31.28,20,31.39,19.94,31.46,19.94Zm-4.14-3.78a2.62,2.62,0,0,0,.58-1.58c0-.53-.25-.79-.76-.79q-1.8,0-4.71,3.54t-2.92,5.46c0,.55.27.83.79.83,1.52,0,3-1.68,4.4-5a4.19,4.19,0,0,1-.87.18c-.14,0-.21,0-.21-.11s.16-.24.5-.36l1.12-.65A3.87,3.87,0,0,1,26,16c.46-.66.89-1,1.3-1,.14,0,.21.09.21.29A2.84,2.84,0,0,1,27.32,16.16Z"/><path class="cls-1" d="M41.29,19.4c.07,0,.11.05.11.15a.43.43,0,0,1-.07.25,4.64,4.64,0,0,1-3,2.41,4,4,0,0,1-.77,2.13,2.56,2.56,0,0,1-2.16.86,3.87,3.87,0,0,1-2.83-1.42,4.52,4.52,0,0,1-1.33-3.12c0-.74.19-1.11.58-1.11s.48.18.72.54a42.65,42.65,0,0,1,3.06-5.69,3.54,3.54,0,0,1,3-1.94,1.84,1.84,0,0,1,.85.27c.32.18.48.37.48.59s-.1.25-.3.25a2.34,2.34,0,0,1-.45,0h-.29a2.18,2.18,0,0,0-1.42.48,1.35,1.35,0,0,0-.6,1,2.83,2.83,0,0,0,.11.85l.86,2.88a11.3,11.3,0,0,1,.51,2.95,3.06,3.06,0,0,0,1.53-.61,7.8,7.8,0,0,0,1.28-1.55Q41.19,19.4,41.29,19.4ZM34.85,24a1.91,1.91,0,0,0,1.91-1.4,7,7,0,0,1-4.4-1.19,3,3,0,0,0,.87,1.71A2.22,2.22,0,0,0,34.85,24Zm1.94-1.83a4.15,4.15,0,0,0,0-.76,16.79,16.79,0,0,0-.52-2.7,16.35,16.35,0,0,1-.53-2.66,4.2,4.2,0,0,1,0-.69,27.39,27.39,0,0,0-3.06,5.19c1,.57,1.76,1,2.27,1.2A5.11,5.11,0,0,0,36.79,22.18Z"/><path class="cls-1" d="M53.82,13.18q0,.6-6.08,2.34c-1.08,2.08-1.74,3.42-2,4a11,11,0,0,0-.94,4.29c0,.79.26,1.18.79,1.18a4.52,4.52,0,0,0,2.56-1.36l1.62-1.41a.1.1,0,0,1,.11.11.85.85,0,0,1-.11.32,8.86,8.86,0,0,1-1.95,1.93,4,4,0,0,1-2.16,1.06q-1.8,0-1.8-2.19a12.7,12.7,0,0,1,.8-3.93A2.48,2.48,0,0,0,43.24,18c-.22-.1-.54-.23-1-.4s-.78-.31-1-.43a.74.74,0,0,1-.4-.74.61.61,0,0,1,.51-.67h1a20,20,0,0,0,4-.43l3.45-7.74A1.15,1.15,0,0,1,51,7c.63,0,.95.12.95.36,0,.08-.45,1.1-1.35,3.08s-1.4,3-1.49,3.12l-.61.57L48,15q.87-.25,5.26-1.8a3.57,3.57,0,0,1,.45-.08C53.79,13.1,53.82,13.13,53.82,13.18ZM46,16q-2,.48-3.63.72A4.8,4.8,0,0,1,44.82,19C45.06,18.34,45.47,17.33,46,16Z"/><path class="cls-1" d="M61.74,19.87s0,0,0,.11a2.24,2.24,0,0,1-.29.61,12.1,12.1,0,0,1-3.24,3.33,7,7,0,0,1-4,1.53c-1.7,0-2.55-1.1-2.55-3.31A12,12,0,0,1,52,19.76a2.49,2.49,0,0,1-.58-.79.49.49,0,0,0,.18.09l.27.11a1.43,1.43,0,0,0,.27.09,7.51,7.51,0,0,1,2.2-3.64,5.19,5.19,0,0,1,3.56-1.87c.27,0,.4,0,.4.09s-.17.19-.51.38a8,8,0,0,0-2.48,2.23,10.34,10.34,0,0,0-1.76,3l.07.07a5.55,5.55,0,0,0,3.6-1.66A4.61,4.61,0,0,0,59,14.51a1.84,1.84,0,0,0-.27-1,.94.94,0,0,0-.88-.45,3.16,3.16,0,0,0-1.53.56,6.39,6.39,0,0,1-1,.56c-.06,0-.09,0-.09,0q0-.42,1.17-.9a5.45,5.45,0,0,1,1.91-.46,1.9,1.9,0,0,1,1.28.46,1.65,1.65,0,0,1,.54,1.3c0,1.27-.79,2.47-2.36,3.6a9.11,9.11,0,0,1-4.45,1.87,5.33,5.33,0,0,0-.29,1.66c0,2,.72,3,2.16,3a5.33,5.33,0,0,0,3.32-1.32,11.08,11.08,0,0,0,2.66-3Q61.53,19.87,61.74,19.87Z"/><path class="cls-1" d="M85,2.27l-.08-2c0-.17,0-.25.15-.25s.06.06.11.18a16.66,16.66,0,0,1,.21,2.52V4.18h.33a23.85,23.85,0,0,1,5,.5q2.56-3.31,5.22-3.31A4.3,4.3,0,0,1,98,1.94,2.68,2.68,0,0,1,99.2,3.28a3.79,3.79,0,0,1,.27,1c0,.18,0,.27-.07.27s-.24-.2-.35-.61a2,2,0,0,0-1.11-1.12,3.92,3.92,0,0,0-1.78-.5q-2.23,0-4.14,2.52A13.58,13.58,0,0,1,99,8.06a8.83,8.83,0,0,1,3.17,6.81,11.76,11.76,0,0,1-5.69,10,13.44,13.44,0,0,1-6.89,1.8,22,22,0,0,1-8.23-1.8A8.23,8.23,0,0,1,74.45,28q-.54,0-1.59-.09a4.86,4.86,0,0,1-2.43-1.2,3.17,3.17,0,0,1-1.38-2.45,2.18,2.18,0,0,1,1.29-2,5.64,5.64,0,0,1,2.76-.57,16.09,16.09,0,0,1,5.34,1.47,24.56,24.56,0,0,0,4.36-8.33,42.28,42.28,0,0,0,2.09-10q-6.94.36-10.44,4.07a4.34,4.34,0,0,0-1.3,3,4.32,4.32,0,0,0,2.92,4.07,6.79,6.79,0,0,0,1.69.5c.12.05.18.1.18.14s-.09.18-.25.18l-.07,0a6.75,6.75,0,0,1-3.91-1.73,4.44,4.44,0,0,1-1.78-3.37,4.3,4.3,0,0,1,1.26-3.11q3.81-4,11.73-4.28C85,3.31,85,2.68,85,2.27ZM73.33,26.64c-.45,0-.68-.08-.68-.25s.2-.18.61-.18c1.66,0,3.3-.92,4.93-2.74A14.17,14.17,0,0,0,72.61,22a4.43,4.43,0,0,0-2,.49,1.72,1.72,0,0,0-1,1.69A2.59,2.59,0,0,0,71,26.26a5.19,5.19,0,0,0,2.94.92,8.4,8.4,0,0,0,3.4-.83,6.06,6.06,0,0,0,2.63-2l-1.23-.62Q76.13,26.65,73.33,26.64ZM86.11,4.72h-.75a40.29,40.29,0,0,1-2,10.09A25.21,25.21,0,0,1,79,23.36l1.22.47a17.77,17.77,0,0,0,2.85-4.68q.72-1.44,1.94-4.23t1.41-3.15a26,26,0,0,1,3.92-6.66A23.92,23.92,0,0,0,86.11,4.72Zm14,10.51a9.64,9.64,0,0,0-2.41-6.41,9.94,9.94,0,0,0-5.94-3.49,53.62,53.62,0,0,0-3.21,6.33Q86.59,16,85,19.28a23.27,23.27,0,0,1-3.3,5.16,19.16,19.16,0,0,0,7.53,1.7,10.51,10.51,0,0,0,10.87-10.91Z"/><path class="cls-1" d="M114.12,19.87s0,0,0,.11a2.06,2.06,0,0,1-.28.61,12.1,12.1,0,0,1-3.24,3.33,7,7,0,0,1-4,1.53c-1.7,0-2.55-1.1-2.55-3.31a12,12,0,0,1,.25-2.38,2.49,2.49,0,0,1-.58-.79.36.36,0,0,0,.18.09l.27.11a1.22,1.22,0,0,0,.27.09,7.51,7.51,0,0,1,2.2-3.64,5.19,5.19,0,0,1,3.56-1.87c.26,0,.4,0,.4.09s-.17.19-.51.38a7.88,7.88,0,0,0-2.48,2.23,10.12,10.12,0,0,0-1.76,3l.07.07a5.55,5.55,0,0,0,3.6-1.66,4.64,4.64,0,0,0,1.87-3.38,1.84,1.84,0,0,0-.27-1,1,1,0,0,0-.88-.45,3.16,3.16,0,0,0-1.53.56,6.94,6.94,0,0,1-1,.56c-.06,0-.09,0-.09,0q0-.42,1.17-.9a5.41,5.41,0,0,1,1.91-.46,1.92,1.92,0,0,1,1.28.46,1.68,1.68,0,0,1,.54,1.3c0,1.27-.79,2.47-2.36,3.6a9.15,9.15,0,0,1-4.45,1.87,5.33,5.33,0,0,0-.29,1.66c0,2,.72,3,2.16,3a5.33,5.33,0,0,0,3.32-1.32,11.08,11.08,0,0,0,2.66-3C113.79,20,114,19.87,114.12,19.87Z"/><path class="cls-1" d="M123.44,6.55a2.59,2.59,0,0,0-.65.54Q116.17,19.44,116.17,23c0,.79.26,1.19.79,1.19a5.12,5.12,0,0,0,2.81-1.59l.42-.36c.08-.07.11-.11.08-.11s.15,0,.15.11a.73.73,0,0,1-.15.33c-1,1.48-2.13,2.23-3.23,2.23s-1.81-.64-1.81-1.91.62-3.56,1.84-6.88q-.9,1.23-1.26,1.23c-.07,0-.11,0-.11-.07a11.88,11.88,0,0,1,1-1.32q.95-1.25,1-1.38A69.85,69.85,0,0,1,121,6.66q2.23-4.53,3.06-6A1.2,1.2,0,0,1,125.3,0c.61,0,.91.08.91.25S125.29,2.52,123.44,6.55Z"/><path class="cls-1" d="M127,19.84s.08,0,.08.07c0,.41-.67,1.31-2,2.7-1,1.05-1.86,1.58-2.41,1.58a1.62,1.62,0,0,1-1.83-1.83,11,11,0,0,1,.72-3.46l-.65,1c-.31.53-.53.79-.65.79s-.07-.07-.07-.2a2.55,2.55,0,0,1,.54-.92,19,19,0,0,0,1.58-2.95,15.21,15.21,0,0,1,.79-1.69c.12-.22.41-.32.85-.32s.67.12.67.36a2.76,2.76,0,0,1-.36,1.08c-.24.48-.45.75-.62.82-1.24,2.5-1.87,4.34-1.87,5.51,0,.79.27,1.19.8,1.19.86,0,1.81-.62,2.84-1.87l.79-.92.29-.34a2.77,2.77,0,0,1,.25-.29A1.48,1.48,0,0,0,127,19.84ZM125.93,10a3.72,3.72,0,0,1,1-.36q.18,0,.18.09a6.12,6.12,0,0,1-.83,1l-.54,1.12c-.21.48-.49.72-.83.72s-.72-.26-.72-.76a1.62,1.62,0,0,1,.49-.92A3.67,3.67,0,0,1,125.93,10Z"/><path class="cls-1" d="M129.17,25.78c-1.66,0-2.49-.94-2.49-2.81a11.3,11.3,0,0,1,2-6c1.32-2.1,2.85-3.15,4.57-3.15.27,0,.4,0,.4.13s-.24.27-.72.55a10,10,0,0,0-3.18,3.35A8,8,0,0,0,128.3,22c0,1.95.73,2.92,2.2,2.92a5.55,5.55,0,0,0,2.95-1.05A11.31,11.31,0,0,0,137,20.41c.21-.36.38-.54.5-.54l.08.07a1.65,1.65,0,0,1-.33.62,13.18,13.18,0,0,1-3.65,3.6A7.93,7.93,0,0,1,129.17,25.78Zm6.58-10.7a5,5,0,0,1-.28,1.53c-.2.59-.45.89-.76.89s-.47-.18-.47-.54a4.59,4.59,0,0,1,.22-1,4,4,0,0,0,.25-1.26q0-1.62-1.29-1.62a3.71,3.71,0,0,0-1.64.53,7.39,7.39,0,0,1-1.1.52.1.1,0,0,1-.11-.11c0-.34.41-.64,1.24-.9a7.19,7.19,0,0,1,2-.4C135.11,12.74,135.75,13.52,135.75,15.08Z"/><path class="cls-1" d="M144.18,19.84s.07,0,.07.07q0,.61-2,2.7c-1.06,1.05-1.86,1.58-2.41,1.58A1.62,1.62,0,0,1,138,22.36a11,11,0,0,1,.72-3.46l-.65,1c-.31.53-.52.79-.64.79s-.08-.07-.08-.2a2.55,2.55,0,0,1,.54-.92,19.7,19.7,0,0,0,1.59-2.95,13.59,13.59,0,0,1,.79-1.69c.12-.22.4-.32.85-.32s.66.12.66.36a2.76,2.76,0,0,1-.36,1.08c-.24.48-.44.75-.61.82Q139,20.63,139,22.39c0,.79.26,1.19.79,1.19.86,0,1.81-.62,2.84-1.87l.8-.92c.09-.11.19-.22.28-.34a2.71,2.71,0,0,1,.26-.29A1.48,1.48,0,0,0,144.18,19.84ZM143.06,10a3.85,3.85,0,0,1,1-.36q.18,0,.18.09a5.71,5.71,0,0,1-.82,1l-.54,1.12c-.22.48-.5.72-.83.72-.48,0-.72-.26-.72-.76a1.59,1.59,0,0,1,.48-.92A3.76,3.76,0,0,1,143.06,10Z"/><path class="cls-1" d="M153.11,17.71l.1-.68a1.31,1.31,0,0,0-.37-1,1.23,1.23,0,0,0-.89-.37,13.68,13.68,0,0,1-2.12,6.73H151a1.64,1.64,0,0,1-.71.29,1.08,1.08,0,0,1-.32,0,.65.65,0,0,0-.2,0s0,.11-.2.24l-1.35,1.17a3.27,3.27,0,0,1-2.08,1q-1.41,0-1.41-1.8a7.72,7.72,0,0,1,1.66-4.5,7.67,7.67,0,0,1-.58-3,5.72,5.72,0,0,1,.62-2.72c.79-1.51,1.77-2.27,3-2.27,1.48,0,2.35,1.28,2.59,3.82a1.66,1.66,0,0,1,1.8,1.87c0,1-.16,1.48-.47,1.48C153.15,17.93,153.11,17.86,153.11,17.71Zm-6.52,1.87a7,7,0,0,0-1.19,3.19c0,.78.27,1.17.79,1.17s1.43-.5,2.34-1.51C147.74,22.33,147.09,21.38,146.59,19.58Zm2.77-8c-.77,0-1.47.75-2.12,2.26a6.43,6.43,0,0,0-.61,2.63,12.15,12.15,0,0,0,.1,1.87,9.43,9.43,0,0,1,4.61-3.67Q150.62,11.56,149.36,11.56Zm2,4.1a6.32,6.32,0,0,0-2.47,1.46,8.21,8.21,0,0,0-2.07,2.14c.51,1.82,1.12,2.82,1.84,3a8.87,8.87,0,0,0,1.78-3.13A10.91,10.91,0,0,0,151.38,15.66Z"/><path class="cls-1" d="M165.78,22.72v.07A3.52,3.52,0,0,1,163,24.52c-1,0-1.52-.89-1.52-2.67q0-1.08.18-3.06a16.15,16.15,0,0,1-4.5,5l-1.22.94a1.08,1.08,0,0,1-.63.14q-.45,0-.45-.21A8.54,8.54,0,0,1,156,21.13a21.29,21.29,0,0,0,1.46-3.26,10.56,10.56,0,0,0,.29-2.79,14.26,14.26,0,0,1-1.3,2.56,14.11,14.11,0,0,1-1.94,3c-.15,0-.22-.05-.22-.15l1.08-1.83a20.72,20.72,0,0,0,2.23-5.08c.15-.62.43-.93.87-.93s.64.54.64,1.63a16.42,16.42,0,0,1-.93,4.59l-1.51,4.72a20.25,20.25,0,0,0,5-5.65,7.77,7.77,0,0,1,1-3.31,1,1,0,0,1,.81-.26c.39,0,.59.14.59.4a3.23,3.23,0,0,1-.68,2,18.55,18.55,0,0,0-.79,5.26c0,1.15.36,1.72,1.08,1.72a1.7,1.7,0,0,0,1.09-.46c.38-.32.62-.52.72-.62s.15-.14.13-.14S165.78,22.57,165.78,22.72Z"/><path class="cls-1" d="M175.28,19.4c.07,0,.11.05.11.15a.43.43,0,0,1-.07.25,4.64,4.64,0,0,1-3,2.41,4,4,0,0,1-.77,2.13,2.56,2.56,0,0,1-2.16.86,3.87,3.87,0,0,1-2.83-1.42,4.52,4.52,0,0,1-1.33-3.12c0-.74.19-1.11.58-1.11q.36,0,.72.54a42.65,42.65,0,0,1,3.06-5.69,3.54,3.54,0,0,1,2.95-1.94,1.84,1.84,0,0,1,.85.27c.32.18.48.37.48.59s-.1.25-.3.25a2.34,2.34,0,0,1-.45,0h-.29a2.18,2.18,0,0,0-1.42.48,1.35,1.35,0,0,0-.6,1,2.83,2.83,0,0,0,.11.85l.86,2.88a11.3,11.3,0,0,1,.51,2.95,3.06,3.06,0,0,0,1.53-.61,7.8,7.8,0,0,0,1.28-1.55Q175.18,19.4,175.28,19.4ZM168.84,24a1.91,1.91,0,0,0,1.91-1.4,7,7,0,0,1-4.4-1.19,3,3,0,0,0,.87,1.71A2.22,2.22,0,0,0,168.84,24Zm1.94-1.83a4.15,4.15,0,0,0,0-.76,16.79,16.79,0,0,0-.52-2.7,16.35,16.35,0,0,1-.53-2.66,4.2,4.2,0,0,1,0-.69,27.39,27.39,0,0,0-3.06,5.19c1,.57,1.76,1,2.27,1.2A5.11,5.11,0,0,0,170.78,22.18Z"/><path class="cls-1" d="M184.35,6.55a2.57,2.57,0,0,0-.64.54Q177.08,19.44,177.08,23c0,.79.27,1.19.79,1.19a5.08,5.08,0,0,0,2.81-1.59l.42-.36c.08-.07.11-.11.09-.11s.14,0,.14.11a.8.8,0,0,1-.14.33c-1.06,1.48-2.14,2.23-3.24,2.23s-1.8-.64-1.8-1.91S176.76,19.3,178,16q-.9,1.23-1.26,1.23c-.07,0-.11,0-.11-.07a11.88,11.88,0,0,1,1-1.32c.63-.83,1-1.29,1-1.38a69.85,69.85,0,0,1,3.35-7.78q2.24-4.53,3.06-6A1.2,1.2,0,0,1,186.21,0c.61,0,.92.08.92.25S186.2,2.52,184.35,6.55Z"/><path class="cls-1" d="M194.9,10.51c0,.07-.11.14-.32.2a3.77,3.77,0,0,0-.69.27q-1.62,1.15-2.8,6.16-1.8,7.66-1.88,7.84a37.14,37.14,0,0,1-3,7.92,14.45,14.45,0,0,1-5.4,5.73,6.67,6.67,0,0,1-3.31.83,6.91,6.91,0,0,1-4-1.66c-1.47-1.1-2.2-2.26-2.2-3.46,0-.09,0-.14.09-.14s.13.07.2.22A5.47,5.47,0,0,0,177,38.2a7.49,7.49,0,0,0,3.74-1A12.44,12.44,0,0,0,186,31.36a38.52,38.52,0,0,0,2.2-7.71c.58-3.09,1.07-5.39,1.48-6.87l.61-2.24q-2.26,1.77-5.44,10.12c0,.05-.07.07-.21.07a.74.74,0,0,1-.49-.27.76.76,0,0,1-.27-.52l.61-1.51a19.29,19.29,0,0,0,.69-5.91c0-2-.42-2.95-1.26-2.95a2.87,2.87,0,0,0-1.7.9l-1,.94c-.08,0-.11,0-.11-.09a1.11,1.11,0,0,1,.07-.31,6.26,6.26,0,0,1,1.66-1.62,3.57,3.57,0,0,1,1.94-.83c1,0,1.51,1,1.51,2.92a16.55,16.55,0,0,1-1,5.26c2-3.68,3.68-5.87,5.08-6.59a7.29,7.29,0,0,1,1.22-2.74,3.23,3.23,0,0,1,2.66-1.11C194.69,10.3,194.9,10.37,194.9,10.51Z"/></g></g></svg>