<svg xmlns="http://www.w3.org/2000/svg" viewBox="0 0 177.08 30.38"><defs><style>.cls-1{fill:#a56d29;}</style></defs><title>2</title><g id="Layer_2" data-name="Layer 2"><g id="_ÎÓÈ_1" data-name="—ÎÓÈ_1"><path class="cls-1" d="M16,2.74l-.07-2c0-.17.05-.26.15-.26s.06.06.1.18a13.6,13.6,0,0,1,.22,2.38V4.64l1.44-.07a21.71,21.71,0,0,1,4.54.58A6.14,6.14,0,0,1,26.6,3.24a2.87,2.87,0,0,1,2.11.88,3,3,0,0,1,.88,2.18c0,.31-.06.47-.18.47a2.84,2.84,0,0,1-.25-1c-.14-1-.88-1.52-2.2-1.52a4.74,4.74,0,0,0-3,1.3,11.29,11.29,0,0,1,3.63,1.84,4.3,4.3,0,0,1,1.87,3.38c0,1.54-.88,2.76-2.66,3.67a11.31,11.31,0,0,1-4.64,1.19q7,3.27,7.05,7.78A4.39,4.39,0,0,1,27.47,27a6.11,6.11,0,0,1-3.93,1.42,19.21,19.21,0,0,1-5.83-.79l-5.4-2.23a10.06,10.06,0,0,1-3.63,3,11,11,0,0,1-4.76.83,4.24,4.24,0,0,1-2.55-.9A2.78,2.78,0,0,1,0,26a2.37,2.37,0,0,1,1.48-2.2A7.35,7.35,0,0,1,4.86,23a15.45,15.45,0,0,1,4.39.76A25.9,25.9,0,0,0,13.9,15a43.08,43.08,0,0,0,2-9.79q-6.48.47-10,4.07a4.55,4.55,0,0,0-1.36,3.13c0,1.82,1,3.16,3,4a4,4,0,0,0,1,.34c.41.08.61.16.61.23s-.07.18-.22.18l-.1,0a7,7,0,0,1-4-1.8,4.84,4.84,0,0,1-1.94-3.71A3.9,3.9,0,0,1,4.14,8.82Q7.89,5,15.91,4.64C16,3.78,16,3.14,16,2.74ZM4.32,27.11c-.46,0-.68-.09-.68-.25s.2-.18.61-.18c1.58,0,3.17-.86,4.75-2.56a12.37,12.37,0,0,0-4-.79,7.53,7.53,0,0,0-3.06.56A1.87,1.87,0,0,0,.61,25.7a2.31,2.31,0,0,0,1.19,2,4.51,4.51,0,0,0,2.61.72A8,8,0,0,0,8,27.38a7.72,7.72,0,0,0,3-2.47L9.61,24.3A7.1,7.1,0,0,1,4.32,27.11ZM22,5.58a19.1,19.1,0,0,0-3.69-.43c-1,0-1.66,0-1.93,0a40.35,40.35,0,0,1-1.83,9.9A26.4,26.4,0,0,1,9.9,24l1.37.46a20.14,20.14,0,0,0,3-5c1.08-2.32,2.25-4.8,3.49-7.44A26.45,26.45,0,0,1,22,5.58Zm5.94,19q0-4.25-5.72-7l-2.06-.87a.6.6,0,0,1-.07-.36,1.1,1.1,0,0,1,1-1.15h.69a6.81,6.81,0,0,0,1.19-.14,8.13,8.13,0,0,0,3.31-1.37,3.77,3.77,0,0,0,1.55-3,3.94,3.94,0,0,0-1.21-2.91,7.57,7.57,0,0,0-3-1.8,18,18,0,0,0-4,5.72c-.72,1.54-1.74,3.77-3.06,6.71a26.74,26.74,0,0,1-3.81,6.5c2.18.82,4.07,1.48,5.65,2a15.69,15.69,0,0,0,4.93.77Q27.9,27.68,27.9,24.55Z"/><path class="cls-1" d="M42.59,20.34s0,0,0,.11a2.19,2.19,0,0,1-.28.61,12.1,12.1,0,0,1-3.24,3.33,7,7,0,0,1-4,1.53c-1.7,0-2.56-1.1-2.56-3.31a12,12,0,0,1,.26-2.38,2.49,2.49,0,0,1-.58-.79l.18.09.27.11.27.09a7.51,7.51,0,0,1,2.2-3.64,5.15,5.15,0,0,1,3.56-1.87c.26,0,.4,0,.4.09s-.17.19-.51.38a7.88,7.88,0,0,0-2.48,2.23,10.47,10.47,0,0,0-1.77,3l.08.08A5.6,5.6,0,0,0,38,18.36,4.64,4.64,0,0,0,39.89,15a1.84,1.84,0,0,0-.27-1,1,1,0,0,0-.88-.45,3.16,3.16,0,0,0-1.53.56,6.94,6.94,0,0,1-1,.56c-.06,0-.09,0-.09,0q0-.44,1.17-.9a5.46,5.46,0,0,1,1.91-.47,1.88,1.88,0,0,1,1.27.47,1.63,1.63,0,0,1,.54,1.3c0,1.27-.78,2.47-2.35,3.6a9.15,9.15,0,0,1-4.45,1.87,5.33,5.33,0,0,0-.29,1.66c0,2,.72,3,2.16,3a5.27,5.27,0,0,0,3.31-1.31,11,11,0,0,0,2.67-3C42.26,20.51,42.44,20.34,42.59,20.34Z"/><path class="cls-1" d="M52.34,19.87c.08,0,.11.05.11.15a.43.43,0,0,1-.07.25,4.63,4.63,0,0,1-3,2.41,3.94,3.94,0,0,1-.78,2.12,2.54,2.54,0,0,1-2.16.87,3.88,3.88,0,0,1-2.82-1.42,4.48,4.48,0,0,1-1.34-3.12c0-.74.2-1.11.58-1.11s.48.18.72.54a42.65,42.65,0,0,1,3.06-5.69,3.55,3.55,0,0,1,3-1.95,1.84,1.84,0,0,1,.85.27q.48.27.48.6c0,.17-.1.25-.3.25a1.62,1.62,0,0,1-.45,0h-.29a2.19,2.19,0,0,0-1.42.49,1.33,1.33,0,0,0-.6,1,2.71,2.71,0,0,0,.11.84l.87,2.88a11.72,11.72,0,0,1,.5,3,3,3,0,0,0,1.53-.62A7.41,7.41,0,0,0,52.13,20Q52.24,19.87,52.34,19.87ZM45.9,24.48a1.9,1.9,0,0,0,1.91-1.4,7,7,0,0,1-4.39-1.19,3,3,0,0,0,.86,1.71A2.22,2.22,0,0,0,45.9,24.48Zm1.94-1.84a4,4,0,0,0,0-.75,15.33,15.33,0,0,0-.52-2.7,15.9,15.9,0,0,1-.52-2.67,4.52,4.52,0,0,1,0-.68A27.54,27.54,0,0,0,43.81,21c1,.58,1.77,1,2.27,1.21A4.9,4.9,0,0,0,47.84,22.64Z"/><path class="cls-1" d="M64.87,13.64q0,.62-6.08,2.34c-1.08,2.09-1.74,3.42-2,4a11,11,0,0,0-.94,4.28c0,.8.27,1.19.79,1.19a4.48,4.48,0,0,0,2.56-1.37l1.62-1.4a.1.1,0,0,1,.11.11.85.85,0,0,1-.11.32A8.77,8.77,0,0,1,58.9,25a4.1,4.1,0,0,1-2.16,1.06c-1.2,0-1.8-.73-1.8-2.2A12.64,12.64,0,0,1,55.73,20a2.53,2.53,0,0,0-1.44-1.48l-1-.39c-.44-.17-.78-.31-1-.43a.73.73,0,0,1-.39-.74.6.6,0,0,1,.5-.67h1a20,20,0,0,0,4-.43L60.8,8.1A1.15,1.15,0,0,1,62,7.45c.64,0,1,.12,1,.36,0,.07-.45,1.1-1.35,3.08A33.41,33.41,0,0,1,60.12,14l-.61.58-.43.86q.86-.24,5.25-1.8l.45-.07C64.84,13.57,64.87,13.6,64.87,13.64ZM57.1,16.45c-1.35.31-2.56.55-3.64.72a4.8,4.8,0,0,1,2.41,2.31C56.11,18.8,56.52,17.8,57.1,16.45Z"/><path class="cls-1" d="M77.65,18.58a1.64,1.64,0,0,0-1.8-1.3,4.64,4.64,0,0,0-4.1,2.56,8.59,8.59,0,0,0-1.41,4.68,6.18,6.18,0,0,0,1.08,3.85A3.85,3.85,0,0,0,74.81,30q4.25,0,8.24-5.73A43.54,43.54,0,0,0,90,8.89c0-.09.09-.36.18-.79s.18-.8.26-1.12A1.28,1.28,0,0,1,91.8,5.9c.43,0,.65.18.65.54a7.89,7.89,0,0,1-.25,1.44,43.34,43.34,0,0,1-3.39,9.8h.58a24.76,24.76,0,0,0,6.66-1.05q6.15-1.75,6.15-5.94a5.72,5.72,0,0,0-2.37-4.5,12.15,12.15,0,0,0-4.72-2.37,21,21,0,0,0-5.43-.69H89a35.47,35.47,0,0,1-1.83,8.57,49.45,49.45,0,0,1-3.93,8.68q-2.91,5.18-5.9,7.3a5.38,5.38,0,0,1-2.88,1.23q-.33,0-.33-.24c0-.15.1-.24.29-.27A6.06,6.06,0,0,0,76,28q3.31-1.62,6.77-7.56a48.08,48.08,0,0,0,4-9.12,34.24,34.24,0,0,0,1.69-8.12A24.87,24.87,0,0,0,82,4.36a12.52,12.52,0,0,0-5.38,3.2,4.1,4.1,0,0,0-1.37,3,3.91,3.91,0,0,0,.94,2.67,4.38,4.38,0,0,0,2.16,1.51c.4.14.77.26,1.09.34s.49.16.49.23-.1.16-.29.11h0a8.35,8.35,0,0,1-4.11-1.87,4.58,4.58,0,0,1-1.91-3.64,3.86,3.86,0,0,1,1.26-2.77,13.21,13.21,0,0,1,6-3.24A34.6,34.6,0,0,1,88.6,2.59V.29c0-.19.07-.29.21-.29S89,.38,89,1.15V2.56h1.62a28.56,28.56,0,0,1,5.4.54,14.76,14.76,0,0,1,5.22,2.12A5.54,5.54,0,0,1,104,9.85a6,6,0,0,1-2.62,4.8,14.68,14.68,0,0,1-5.22,2.61,23.88,23.88,0,0,1-6.88,1h-.72Q82.65,30.39,74.92,30.38a5.5,5.5,0,0,1-4.25-1.71,6.44,6.44,0,0,1-1.59-4.57,8.2,8.2,0,0,1,1.79-5.16,5.56,5.56,0,0,1,4.62-2.31A2.62,2.62,0,0,1,77,17.1a1.28,1.28,0,0,1,.76,1.22C77.76,18.47,77.72,18.55,77.65,18.58Z"/><path class="cls-1" d="M112.21,17a3.33,3.33,0,0,1-.63,1.94q-.63.9-1.2.9c-.08,0-.11-.05-.11-.14.14-.36.31-.75.5-1.17a3.46,3.46,0,0,0,.29-1.44c0-.54-.21-.81-.61-.81-.55,0-1.42.66-2.61,2a21.46,21.46,0,0,0-2.51,3.26l-1.54,4.14a.38.38,0,0,1-.27.07,1.16,1.16,0,0,1-.58-.25c-.25-.17-.38-.31-.38-.43a4.35,4.35,0,0,0,.2-.47,3.39,3.39,0,0,1,.24-.5,34.35,34.35,0,0,0,1.92-4.84,13.42,13.42,0,0,0,.52-3.66,13.27,13.27,0,0,1-1.29,2.56,13.42,13.42,0,0,1-2,3c-.14,0-.21,0-.21-.11s.49-.88,1.49-2.49a16.28,16.28,0,0,0,2-4.5q.21-.93.72-.93t.57,1.44a16.58,16.58,0,0,1-1.65,6.37c1.29-1.61,2.19-2.69,2.69-3.24,1.37-1.46,2.44-2.2,3.21-2.2S112.21,16,112.21,17Z"/><path class="cls-1" d="M121.54,18.18l.1-.68a1.3,1.3,0,0,0-.37-1,1.24,1.24,0,0,0-.89-.38,13.68,13.68,0,0,1-2.12,6.74h1.12a1.59,1.59,0,0,1-.71.28,1.17,1.17,0,0,1-.32,0,.45.45,0,0,0-.2,0s0,.1-.2.24l-1.35,1.17a3.32,3.32,0,0,1-2.08,1q-1.41,0-1.41-1.8a7.67,7.67,0,0,1,1.66-4.5,7.67,7.67,0,0,1-.58-3,5.69,5.69,0,0,1,.61-2.72c.8-1.51,1.78-2.27,3-2.27q2.23,0,2.6,3.82a1.66,1.66,0,0,1,1.8,1.87c0,1-.16,1.48-.47,1.48C121.58,18.4,121.54,18.32,121.54,18.18ZM115,20.05a7,7,0,0,0-1.19,3.19c0,.78.26,1.17.79,1.17s1.43-.51,2.34-1.51C116.17,22.8,115.52,21.85,115,20.05Zm2.77-8c-.77,0-1.48.76-2.12,2.27a6.39,6.39,0,0,0-.61,2.63,12.24,12.24,0,0,0,.1,1.87,9.38,9.38,0,0,1,4.61-3.67C119.29,13.06,118.63,12,117.79,12Zm2,4.11a6.32,6.32,0,0,0-2.47,1.46,8,8,0,0,0-2.07,2.14c.5,1.82,1.12,2.82,1.84,3a8.94,8.94,0,0,0,1.78-3.14A10.87,10.87,0,0,0,119.81,16.13Z"/><path class="cls-1" d="M139,13.57c0,.39,0,.58-.13.58s-.15-.21-.2-.61a1.93,1.93,0,0,0-.34-1,1.37,1.37,0,0,0-1.13-.36,6.49,6.49,0,0,0-4.48,1.93,14.25,14.25,0,0,0-3.15,4.12,8.57,8.57,0,0,0-1.08,3.28v.11a9.44,9.44,0,0,1-.83,2.3c-.55,1.25-1,1.87-1.23,1.87-.07,0-.12,0-.14,0h-.14a.8.8,0,0,1-.51-.29,1.58,1.58,0,0,1,0-.41,15.74,15.74,0,0,1,.61-2.43,19.6,19.6,0,0,0,.61-5.39c0-2.19-.42-3.29-1.26-3.29a2.83,2.83,0,0,0-1.69.9l-1,.94c-.07,0-.11,0-.11-.09a1.51,1.51,0,0,1,.07-.31,4.79,4.79,0,0,1,1.62-1.58,3.7,3.7,0,0,1,2-.87c1,0,1.52,1,1.52,2.92a16.48,16.48,0,0,1-.8,4.79,23,23,0,0,1,4-5.84c2-2.08,4-3.13,6.05-3.13A1.61,1.61,0,0,1,139,13.57Z"/><path class="cls-1" d="M139.57,20.3c.05,0,.07,0,.07.08q0,.6-2,2.7c-1,1.05-1.86,1.58-2.41,1.58a1.62,1.62,0,0,1-1.83-1.84,11,11,0,0,1,.71-3.45l-.64,1c-.32.52-.53.79-.65.79s-.07-.07-.07-.2a2.55,2.55,0,0,1,.54-.92,19.94,19.94,0,0,0,1.58-2.95,15.21,15.21,0,0,1,.79-1.69c.12-.22.4-.33.85-.33s.66.12.66.36a2.76,2.76,0,0,1-.36,1.08c-.24.48-.44.76-.61.83-1.25,2.5-1.87,4.33-1.87,5.51,0,.79.26,1.19.79,1.19.87,0,1.81-.63,2.85-1.87l.79-.92.29-.34a2.77,2.77,0,0,1,.25-.29A1.3,1.3,0,0,0,139.57,20.3Zm-1.12-9.79a3.86,3.86,0,0,1,1-.36q.18,0,.18.09a6.63,6.63,0,0,1-.83,1l-.54,1.11c-.22.48-.49.72-.83.72s-.72-.25-.72-.75a1.56,1.56,0,0,1,.49-.92A3.72,3.72,0,0,1,138.45,10.51Z"/><path class="cls-1" d="M149.25,19.87c.08,0,.11.05.11.15a.43.43,0,0,1-.07.25,4.63,4.63,0,0,1-3,2.41,3.94,3.94,0,0,1-.78,2.12,2.54,2.54,0,0,1-2.16.87,3.88,3.88,0,0,1-2.82-1.42,4.48,4.48,0,0,1-1.34-3.12c0-.74.2-1.11.58-1.11s.48.18.72.54a42.65,42.65,0,0,1,3.06-5.69,3.55,3.55,0,0,1,2.95-1.95,1.84,1.84,0,0,1,.85.27q.48.27.48.6c0,.17-.1.25-.3.25a1.62,1.62,0,0,1-.45,0h-.29a2.19,2.19,0,0,0-1.42.49,1.33,1.33,0,0,0-.6,1,2.71,2.71,0,0,0,.11.84l.87,2.88a11.72,11.72,0,0,1,.5,3,3,3,0,0,0,1.53-.62A7.41,7.41,0,0,0,149,20Q149.15,19.87,149.25,19.87Zm-6.44,4.61a1.9,1.9,0,0,0,1.91-1.4,7,7,0,0,1-4.39-1.19,3,3,0,0,0,.86,1.71A2.22,2.22,0,0,0,142.81,24.48Zm1.94-1.84a4,4,0,0,0,0-.75,15.33,15.33,0,0,0-.52-2.7,15.9,15.9,0,0,1-.52-2.67,4.52,4.52,0,0,1,0-.68A27.54,27.54,0,0,0,140.72,21c1,.58,1.77,1,2.27,1.21A4.9,4.9,0,0,0,144.75,22.64Z"/><path class="cls-1" d="M155.7,20.3c.05,0,.07,0,.07.08q0,.6-2,2.7c-1.06,1.05-1.86,1.58-2.41,1.58a1.62,1.62,0,0,1-1.84-1.84,11,11,0,0,1,.72-3.45l-.65,1c-.31.52-.52.79-.64.79s-.08-.07-.08-.2a2.55,2.55,0,0,1,.54-.92A19.7,19.7,0,0,0,151,17.1a13.59,13.59,0,0,1,.79-1.69c.12-.22.4-.33.85-.33s.66.12.66.36a2.76,2.76,0,0,1-.36,1.08c-.24.48-.44.76-.61.83-1.25,2.5-1.87,4.33-1.87,5.51,0,.79.26,1.19.79,1.19.86,0,1.81-.63,2.84-1.87l.8-.92c.09-.11.19-.22.28-.34a2.71,2.71,0,0,1,.26-.29A1.3,1.3,0,0,0,155.7,20.3Zm-1.12-9.79a3.85,3.85,0,0,1,1-.36q.18,0,.18.09a6.15,6.15,0,0,1-.82,1l-.54,1.11c-.22.48-.5.72-.83.72s-.72-.25-.72-.75a1.59,1.59,0,0,1,.48-.92A3.76,3.76,0,0,1,154.58,10.51Z"/><path class="cls-1" d="M164.63,18.18l.1-.68a1.3,1.3,0,0,0-.37-1,1.24,1.24,0,0,0-.89-.38,13.68,13.68,0,0,1-2.12,6.74h1.12a1.59,1.59,0,0,1-.71.28,1.17,1.17,0,0,1-.32,0,.45.45,0,0,0-.2,0s0,.1-.2.24l-1.35,1.17a3.32,3.32,0,0,1-2.08,1q-1.41,0-1.41-1.8a7.67,7.67,0,0,1,1.66-4.5,7.67,7.67,0,0,1-.58-3,5.81,5.81,0,0,1,.61-2.72c.8-1.51,1.78-2.27,3-2.27,1.48,0,2.35,1.27,2.59,3.82a1.66,1.66,0,0,1,1.8,1.87c0,1-.16,1.48-.47,1.48C164.67,18.4,164.63,18.32,164.63,18.18Zm-6.52,1.87a7,7,0,0,0-1.19,3.19c0,.78.27,1.17.79,1.17s1.43-.51,2.34-1.51C159.26,22.8,158.61,21.85,158.11,20.05Zm2.77-8c-.77,0-1.47.76-2.12,2.27a6.39,6.39,0,0,0-.61,2.63,12.24,12.24,0,0,0,.1,1.87,9.38,9.38,0,0,1,4.61-3.67C162.38,13.06,161.72,12,160.88,12Zm2,4.11a6.32,6.32,0,0,0-2.47,1.46,8.21,8.21,0,0,0-2.07,2.14c.51,1.82,1.12,2.82,1.84,3A8.94,8.94,0,0,0,162,19.58,10.87,10.87,0,0,0,162.9,16.13Z"/><path class="cls-1" d="M165.53,25.45l2-9.11a17.71,17.71,0,0,0-.79-1.94c0-.17.2-.32.61-.47a9.41,9.41,0,0,1,2.32-.68c.35,0,.53.11.53.32q-1.34,3.31-1.84,4.61v.22c0,.74-.11,1.11-.32,1.11-.05,0-.09,0-.11-.11-.51,1.52-.85,2.62-1.05,3.32A37.4,37.4,0,0,1,170.28,18q2.7-3.13,4.46-3.13c.55,0,.83.21.83.65q0,.24-2.09,7.92a13.31,13.31,0,0,0,3.24-3.32q.18-.21.27-.21c.06,0,.09,0,.09.11a.53.53,0,0,1-.11.28,13.77,13.77,0,0,1-3.85,4.47.57.57,0,0,1-.45.21c-.18,0-.27-.1-.27-.32s.15-1,.43-2.45.5-2.49.63-3.24a19.24,19.24,0,0,0,.27-2.81,13.84,13.84,0,0,0-3.63,3.1A20,20,0,0,0,167.24,23a9.51,9.51,0,0,0-.9,2.18c-.14.56-.3.84-.51.84s-.3-.15-.3-.47Zm2.55-11.27a3,3,0,0,1-.68.36l.36.83Z"/></g></g></svg>