<svg xmlns="http://www.w3.org/2000/svg" viewBox="0 0 248.25 40.32"><defs><style>.cls-1{fill:#a56d29;}</style></defs><title>10</title><g id="Layer_2" data-name="Layer 2"><g id="_ÎÓÈ_1" data-name="—ÎÓÈ_1"><path class="cls-1" d="M36.43,27.5c0,1.25-.77,2.28-2.3,3.1a8.72,8.72,0,0,1-4.12,1,12.49,12.49,0,0,1-4.88-1.14c-1.78-.75-3.94-1.83-6.48-3.22s-4.29-2.29-5.22-2.7a19.63,19.63,0,0,1-4.2,3.76,8.73,8.73,0,0,1-4.8,1.32,5,5,0,0,1-2.95-1.05A3,3,0,0,1,0,26.14a3.21,3.21,0,0,1,2-3,8.11,8.11,0,0,1,3.78-.83,19.59,19.59,0,0,1,5.54,1,29.3,29.3,0,0,0,2.34-3.81,7.29,7.29,0,0,1-.79,0q-7.56,0-7.56-5.36c0-1.9,1-3.38,3-4.46a.39.39,0,0,1,.27-.11q.12,0,.12.09a.17.17,0,0,1,0,.12A3.31,3.31,0,0,0,6.41,13.3a4.86,4.86,0,0,0,2.52,4.23,9.13,9.13,0,0,0,5,1.44c.53-1,1.44-2.87,2.74-5.65a49.07,49.07,0,0,1,3.27-6.16q3.14-4.68,6.7-4.68c.26,0,.4,0,.4.11s-.14.11-.4.11q-3.42,0-6.52,4.82a65.47,65.47,0,0,0-3,5.93c-1.34,2.86-2.23,4.71-2.66,5.52a13.56,13.56,0,0,0,2.34-.21,14.37,14.37,0,0,0,1-2.16q.69-1.85.9-2.31Q23.76,2.77,30,2.77a2.55,2.55,0,0,1,2,.87,3.2,3.2,0,0,1,.75,2.19q0,5.37-11.73,11.38c-1,.53-1.68.86-2,1a6.37,6.37,0,0,0-.67.3q-.29.15-1.11.51c-.19.33-.66,1.07-1.39,2.21s-1.38,2.1-2,2.86l9.25,3.6a27.64,27.64,0,0,0,9.31,2.16c2.41,0,3.62-.68,3.62-2.05a6.13,6.13,0,0,0-1.23-3.2,3,3,0,0,1,1.08,1.26A3.26,3.26,0,0,1,36.43,27.5ZM4.9,27.58c-.34,0-.51,0-.51-.13s.17-.13.51-.13q3.34,0,6.15-3.67a18,18,0,0,0-5.16-1.08,8.24,8.24,0,0,0-3.51.76A2.39,2.39,0,0,0,.72,25.54a2.72,2.72,0,0,0,1.4,2.36A4.82,4.82,0,0,0,5,28.69a9.89,9.89,0,0,0,4.35-1.37A10.25,10.25,0,0,0,13,24.44a7.61,7.61,0,0,0-1.58-.68C9.48,26.3,7.3,27.58,4.9,27.58Zm11.62-8.32c-1.12.14-1.92.23-2.37.25q-1.15,2.08-2.45,4,.36.15,1.62.51A52.42,52.42,0,0,0,16.52,19.26ZM32.33,5.33a1.22,1.22,0,0,0-.63-1.15,3,3,0,0,0-1.5-.36q-4,0-10,10.26c-1.18,2-2.07,3.49-2.67,4.42Q21,17.29,26.32,13,32.32,8.14,32.33,5.33Z"/><path class="cls-1" d="M33.34,19.87s0,0,0,.11a1.94,1.94,0,0,1-.29.61,11.82,11.82,0,0,1-3.24,3.33,6.92,6.92,0,0,1-4,1.53c-1.71,0-2.56-1.1-2.56-3.31a12.85,12.85,0,0,1,.25-2.38A2.64,2.64,0,0,1,23,19a.36.36,0,0,0,.18.09l.27.11a1.07,1.07,0,0,0,.27.09,7.56,7.56,0,0,1,2.19-3.64,5.23,5.23,0,0,1,3.57-1.87q.39,0,.39.09c0,.06-.16.19-.5.38a7.77,7.77,0,0,0-2.48,2.23,10.38,10.38,0,0,0-1.77,3l.07.07a5.51,5.51,0,0,0,3.6-1.66,4.63,4.63,0,0,0,1.88-3.38,1.84,1.84,0,0,0-.27-1,1,1,0,0,0-.89-.45,3.23,3.23,0,0,0-1.53.56,6.6,6.6,0,0,1-1,.56c-.06,0-.09,0-.09,0q0-.42,1.17-.9a5.41,5.41,0,0,1,1.9-.46,1.88,1.88,0,0,1,1.28.46,1.65,1.65,0,0,1,.54,1.3c0,1.27-.78,2.47-2.36,3.6A9.08,9.08,0,0,1,25,20.05a5.33,5.33,0,0,0-.29,1.66c0,2,.72,3,2.16,3a5.31,5.31,0,0,0,3.31-1.32,11.12,11.12,0,0,0,2.67-3Q33.11,19.87,33.34,19.87Z"/><path class="cls-1" d="M46.12,13.18q0,.6-6.09,2.34c-1.08,2.08-1.74,3.42-2,4a11.15,11.15,0,0,0-.93,4.29c0,.79.26,1.18.79,1.18a4.47,4.47,0,0,0,2.55-1.36l1.62-1.41a.1.1,0,0,1,.11.11.7.7,0,0,1-.11.32,8.77,8.77,0,0,1-1.94,1.93A4,4,0,0,1,38,25.63q-1.8,0-1.8-2.19A12.64,12.64,0,0,1,37,19.51,2.48,2.48,0,0,0,35.53,18c-.21-.1-.54-.23-1-.4s-.78-.31-1-.43a.73.73,0,0,1-.4-.74.61.61,0,0,1,.5-.67h1a19.9,19.9,0,0,0,4-.43l3.46-7.74A1.14,1.14,0,0,1,43.25,7q1,0,1,.36c0,.08-.45,1.1-1.35,3.08a34.36,34.36,0,0,1-1.5,3.12l-.61.57-.43.87q.87-.25,5.26-1.8A3.57,3.57,0,0,1,46,13.1C46.09,13.1,46.12,13.13,46.12,13.18ZM38.34,16c-1.34.32-2.56.56-3.64.72A4.83,4.83,0,0,1,37.12,19C37.36,18.34,37.76,17.33,38.34,16Z"/><path class="cls-1" d="M48,12.64q.72,0,.72.81a4.44,4.44,0,0,1-1.3,2.35c-.86,1-1.51,1.55-1.94,1.55,0,0-.07,0-.07-.12a2.74,2.74,0,0,1,.54-.8c.36-.44.85-1.12,1.47-2-.43,0-.65-.26-.65-.79S47.17,12.64,48,12.64Z"/><path class="cls-1" d="M59.22,19.4c.07,0,.11.05.11.15a.52.52,0,0,1-.07.25,4.64,4.64,0,0,1-3,2.41,4,4,0,0,1-.77,2.13,2.59,2.59,0,0,1-2.16.86,3.87,3.87,0,0,1-2.83-1.42,4.47,4.47,0,0,1-1.33-3.12c0-.74.19-1.11.58-1.11q.35,0,.72.54A41.52,41.52,0,0,1,53.5,14.4a3.53,3.53,0,0,1,3-1.94,1.77,1.77,0,0,1,.84.27c.33.18.49.37.49.59s-.1.25-.31.25a2.49,2.49,0,0,1-.45,0h-.28a2.21,2.21,0,0,0-1.43.48,1.36,1.36,0,0,0-.59,1,2.83,2.83,0,0,0,.11.85l.86,2.88a11.3,11.3,0,0,1,.51,2.95,3.14,3.14,0,0,0,1.53-.61A7.82,7.82,0,0,0,59,19.55C59.08,19.45,59.15,19.4,59.22,19.4ZM52.78,24a1.89,1.89,0,0,0,1.9-1.4,7,7,0,0,1-4.39-1.19,3,3,0,0,0,.87,1.71A2.19,2.19,0,0,0,52.78,24Zm1.94-1.83a5.37,5.37,0,0,0,0-.76,16.11,16.11,0,0,0-.53-2.7,17.06,17.06,0,0,1-.52-2.66,3.27,3.27,0,0,1,0-.69,26.31,26.31,0,0,0-3.06,5.19c1,.57,1.76,1,2.27,1.2A5.11,5.11,0,0,0,54.72,22.18Z"/><path class="cls-1" d="M72.29,25.31l.57.11q2.77,0,6.23-7.82a62,62,0,0,0,3.6-10.36,42.41,42.41,0,0,0-8.13-1.16c-3.87,0-5.8,1.34-5.8,4,0,1.78,1,3.37,3.06,4.79.09,0,.14.07.14.14s0,.11-.09.11a.49.49,0,0,1-.23-.07c-2.69-1.54-4-3.37-4-5.51A3.54,3.54,0,0,1,69.8,6.19a10.44,10.44,0,0,1,4.4-.79,51.57,51.57,0,0,1,8.67,1.15q.18-.9.36-2.52a.79.79,0,0,1,.22-.47c.07,0,.11.29.11.78a14.17,14.17,0,0,1-.29,2.28l2.63.51q3.19-5.37,7-5.37c1.54,0,2.3.65,2.3,2q0,.36-.12.36C95,4.07,95,4,95,3.78c0-.94-.62-1.4-1.87-1.4q-2.59,0-5.47,5.07a32.26,32.26,0,0,0,5.54.69c2.36,0,3.53-.58,3.53-1.73a.83.83,0,0,0-.11-.49.51.51,0,0,1-.1-.25c0-.06,0-.09.07-.09s.27.17.39.52a2.8,2.8,0,0,1,.18.88c0,1.47-1.17,2.2-3.52,2.2a33.81,33.81,0,0,1-6.45-1q-1.47,3-3.8,7.77A44.2,44.2,0,0,1,79,23.51q-3.75,5-8,5a5.69,5.69,0,0,1-2.62-.58A2.23,2.23,0,0,1,67,25.78a2.52,2.52,0,0,1,1.62-2.27,6.06,6.06,0,0,1,2.88-.65c.22,0,.32,0,.32.11s-.1.11-.32.11a4.76,4.76,0,0,0-2.38.57,2,2,0,0,0-1.29,1.86,1.89,1.89,0,0,0,.92,1.76,3.85,3.85,0,0,0,2,.56A7.45,7.45,0,0,0,76.35,25a26.42,26.42,0,0,0,3.57-5.47c.93-1.95,1.87-4,2.79-6.05s1.85-4,2.79-5.65l-2.41-.51A51.19,51.19,0,0,1,78,21q-2.81,4.9-5.15,4.9-.75,0-.75-.36A.16.16,0,0,1,72.29,25.31Z"/><path class="cls-1" d="M97.27,19.87s0,0,0,.11a2.24,2.24,0,0,1-.29.61,12,12,0,0,1-3.24,3.33,7,7,0,0,1-4,1.53c-1.7,0-2.55-1.1-2.55-3.31a12,12,0,0,1,.25-2.38A2.49,2.49,0,0,1,86.9,19a.49.49,0,0,0,.18.09l.27.11.27.09a7.59,7.59,0,0,1,2.2-3.64,5.19,5.19,0,0,1,3.56-1.87c.27,0,.4,0,.4.09s-.17.19-.5.38a7.9,7.9,0,0,0-2.49,2.23,10.57,10.57,0,0,0-1.76,3l.07.07a5.55,5.55,0,0,0,3.6-1.66,4.61,4.61,0,0,0,1.87-3.38,1.84,1.84,0,0,0-.27-1,.94.94,0,0,0-.88-.45,3.16,3.16,0,0,0-1.53.56,6.39,6.39,0,0,1-1,.56c-.06,0-.09,0-.09,0q0-.42,1.17-.9a5.45,5.45,0,0,1,1.91-.46,1.9,1.9,0,0,1,1.28.46,1.65,1.65,0,0,1,.54,1.3c0,1.27-.79,2.47-2.36,3.6a9.11,9.11,0,0,1-4.45,1.87,5.3,5.3,0,0,0-.28,1.66c0,2,.72,3,2.16,3a5.33,5.33,0,0,0,3.31-1.32,11.08,11.08,0,0,0,2.66-3Q97.06,19.87,97.27,19.87Z"/><path class="cls-1" d="M106.6,6.55a2.43,2.43,0,0,0-.65.54Q99.32,19.44,99.32,23c0,.79.27,1.19.8,1.19a5.1,5.1,0,0,0,2.8-1.59l.42-.36c.08-.07.11-.11.09-.11s.14,0,.14.11a.8.8,0,0,1-.14.33c-1.06,1.48-2.14,2.23-3.24,2.23s-1.8-.64-1.8-1.91S99,19.3,100.22,16q-.9,1.23-1.26,1.23c-.07,0-.1,0-.1-.07a10.85,10.85,0,0,1,1-1.32c.63-.83,1-1.29,1-1.38a67.72,67.72,0,0,1,3.34-7.78q2.23-4.53,3.06-6A1.21,1.21,0,0,1,108.45,0c.61,0,.92.08.92.25S108.44,2.52,106.6,6.55Z"/><path class="cls-1" d="M112.82,6.55a2.59,2.59,0,0,0-.65.54Q105.56,19.44,105.55,23c0,.79.26,1.19.79,1.19a5.12,5.12,0,0,0,2.81-1.59l.41-.36c.09-.07.12-.11.09-.11s.15,0,.15.11a.73.73,0,0,1-.15.33c-1.05,1.48-2.13,2.23-3.23,2.23s-1.81-.64-1.81-1.91.62-3.56,1.84-6.88q-.9,1.23-1.26,1.23c-.07,0-.11,0-.11-.07a11.88,11.88,0,0,1,1-1.32q.94-1.25,1-1.38a69.85,69.85,0,0,1,3.35-7.78q2.24-4.53,3.06-6A1.19,1.19,0,0,1,114.68,0c.61,0,.91.08.91.25S114.67,2.52,112.82,6.55Z"/><path class="cls-1" d="M143.46,7.6a.19.19,0,0,1-.15.19c-.09,0-.38.13-.86.27q-2,1.26-3.31,7L137,24a39.89,39.89,0,0,1-3.42,9,16,16,0,0,1-6.08,6.48,7.93,7.93,0,0,1-3.85.9,6.73,6.73,0,0,1-4.21-1.58,8.91,8.91,0,0,1-2.7-4s0-.09,0-.2,0-.16.09-.16.15.1.27.29a5,5,0,0,0,.72,1.47,6,6,0,0,0,5.44,2.74,8.64,8.64,0,0,0,4.25-1.08,14.1,14.1,0,0,0,5.86-6.62,51.78,51.78,0,0,0,2.85-10.55q.47-2.41,1.62-7.06a63.39,63.39,0,0,1-5.15,7.56q-4.18,5.27-6.73,5.26c-1.54,0-2.31-1.05-2.31-3.13a24.37,24.37,0,0,1,2.11-8.43,68.51,68.51,0,0,1,4.44-9.29L128.73,5a42.53,42.53,0,0,0-5.27,10.49,33.39,33.39,0,0,0-2.29,11c0,.22,0,.33-.16.33s-.16-.35-.16-1.05A31.16,31.16,0,0,1,123.15,15a41.85,41.85,0,0,1,5.26-10.1,13,13,0,0,0-4.1-.72,8.84,8.84,0,0,0-6.37,2.45,1.91,1.91,0,0,0-.69,1.4c0,.91.77,1.69,2.3,2.34a4.1,4.1,0,0,1,.83.45s-.07.06-.21.06a2.58,2.58,0,0,1-.83-.29c-1.92-.87-2.88-1.86-2.88-3a2.38,2.38,0,0,1,.83-1.66q2.58-2.62,7.52-2.62a17.12,17.12,0,0,1,4.39.57c1.08-1.32,1.77-2,2.05-2,.1,0,.14,0,.11.11a4.42,4.42,0,0,1-.7.72,10.4,10.4,0,0,0-1.13,1.22c1.87.56,2.8,1,2.8,1.44v.11a27.46,27.46,0,0,0-1.65,2.92q-5.19,9.72-5.18,15.08c0,1.49.37,2.23,1.11,2.23q1.65,0,5.58-4.78a75.36,75.36,0,0,0,6-8.64q.83-3.64,2.59-4.5a3.9,3.9,0,0,1,1.78-.44C143.15,7.34,143.46,7.43,143.46,7.6Z"/><path class="cls-1" d="M150.69,17.71l.11-.68a1.28,1.28,0,0,0-.38-1,1.19,1.19,0,0,0-.88-.37,13.78,13.78,0,0,1-2.12,6.73h1.11a1.57,1.57,0,0,1-.7.29,1.08,1.08,0,0,1-.32,0,.65.65,0,0,0-.2,0s0,.11-.2.24l-1.35,1.17a3.27,3.27,0,0,1-2.09,1c-.93,0-1.4-.6-1.4-1.8a7.72,7.72,0,0,1,1.66-4.5,7.67,7.67,0,0,1-.58-3A5.72,5.72,0,0,1,144,13c.79-1.51,1.78-2.27,2.95-2.27,1.49,0,2.36,1.28,2.6,3.82a1.66,1.66,0,0,1,1.8,1.87c0,1-.16,1.48-.47,1.48C150.74,17.93,150.69,17.86,150.69,17.71Zm-6.51,1.87A7,7,0,0,0,143,22.77c0,.78.26,1.17.79,1.17s1.43-.5,2.34-1.51C145.33,22.33,144.68,21.38,144.18,19.58Zm2.77-8c-.77,0-1.48.75-2.12,2.26a6.45,6.45,0,0,0-.62,2.63,11.87,11.87,0,0,0,.11,1.87,9.43,9.43,0,0,1,4.61-3.67Q148.21,11.56,147,11.56Zm2,4.1a6.32,6.32,0,0,0-2.47,1.46,7.87,7.87,0,0,0-2.07,2.14c.5,1.82,1.12,2.82,1.84,3a8.87,8.87,0,0,0,1.78-3.13A10.91,10.91,0,0,0,149,15.66Z"/><path class="cls-1" d="M163.37,22.72v.07a3.52,3.52,0,0,1-2.78,1.73c-1,0-1.51-.89-1.51-2.67q0-1.08.18-3.06a16.15,16.15,0,0,1-4.5,5l-1.22.94a1.08,1.08,0,0,1-.63.14q-.45,0-.45-.21a8.54,8.54,0,0,1,1.17-3.57,22.36,22.36,0,0,0,1.46-3.26,10.56,10.56,0,0,0,.29-2.79,14.26,14.26,0,0,1-1.3,2.56,13.42,13.42,0,0,1-2,3q-.21,0-.21-.15L153,18.65a21.12,21.12,0,0,0,2.23-5.08c.15-.62.43-.93.86-.93s.65.54.65,1.63a16.42,16.42,0,0,1-.93,4.59l-1.52,4.72a20,20,0,0,0,5-5.65,7.74,7.74,0,0,1,1-3.31,1,1,0,0,1,.81-.26c.39,0,.59.14.59.4a3.23,3.23,0,0,1-.68,2,18.57,18.57,0,0,0-.8,5.26c0,1.15.36,1.72,1.08,1.72a1.72,1.72,0,0,0,1.1-.46l.72-.62c.11-.09.15-.14.13-.14S163.37,22.57,163.37,22.72Z"/><path class="cls-1" d="M173.19,16.49a3.33,3.33,0,0,1-.63,1.94q-.63.9-1.2.9c-.07,0-.11,0-.11-.14.14-.36.31-.75.5-1.17a3.31,3.31,0,0,0,.29-1.44c0-.54-.2-.81-.61-.81s-1.42.66-2.61,2a20.8,20.8,0,0,0-2.5,3.25l-1.55,4.14a.38.38,0,0,1-.27.08,1.28,1.28,0,0,1-.58-.26c-.25-.16-.37-.31-.37-.43s.11-.25.19-.47a4.83,4.83,0,0,1,.24-.5,33.15,33.15,0,0,0,1.92-4.84,13.44,13.44,0,0,0,.53-3.66,14.26,14.26,0,0,1-1.3,2.56,14.11,14.11,0,0,1-1.94,3c-.15,0-.22,0-.22-.11s.5-.88,1.49-2.48a16.55,16.55,0,0,0,2-4.5c.14-.63.38-.94.72-.94s.57.48.57,1.44a16.58,16.58,0,0,1-1.65,6.37q1.94-2.41,2.7-3.24c1.37-1.46,2.43-2.19,3.2-2.19S173.19,15.48,173.19,16.49Z"/><path class="cls-1" d="M205.23,5.69c0,.79-.5,1.37-1.51,1.73a6.92,6.92,0,0,1-2.52.43,12.13,12.13,0,0,1-3-.4,7,7,0,0,1-2.77-1.11.22.22,0,0,1-.08-.15c0-.05,0-.07.09-.07s.11,0,.13,0a10.19,10.19,0,0,0,5.58,1.29A5.39,5.39,0,0,0,203.36,7a1.45,1.45,0,0,0,1-1.35c0-.86-.62-1.51-1.87-1.94a8.64,8.64,0,0,0-2.92-.47q-4.5,0-6.15,2.92A3.73,3.73,0,0,0,192.92,8a4.69,4.69,0,0,0,2.45,3.85q1.62,1.08,4.5,2.88a6.12,6.12,0,0,1,2.41,4.93c0,2.67-1.37,4.8-4.1,6.41a14.23,14.23,0,0,1-7.33,2,12.16,12.16,0,0,1-6.21-1.37,5.26,5.26,0,0,1-2.88-4.81,6.52,6.52,0,0,1,2.32-5.15,8,8,0,0,1,5.39-2c1.12,0,1.69.09,1.69.28s-.19.08-.58.08H190a7.76,7.76,0,0,0-5,1.72,5.71,5.71,0,0,0-2.27,4.74,5.6,5.6,0,0,0,2.05,4.61,7.52,7.52,0,0,0,4.83,1.63,15.52,15.52,0,0,0,5.9-1.29q5.4-2.16,5.4-6.73a5.3,5.3,0,0,0-2.48-4.54c-.53-.38-1.31-.9-2.34-1.55s-1.77-1.11-2.2-1.4a4.82,4.82,0,0,1-2.45-4,4.16,4.16,0,0,1,1.19-2.88,2.62,2.62,0,0,0-1.83,1A3.55,3.55,0,0,0,190,8.57a5.21,5.21,0,0,0,2.34,4.25c.5.38,1.94,1.38,4.32,3a5.69,5.69,0,0,1,2.3,4.47A6.25,6.25,0,0,1,196.45,25a7.87,7.87,0,0,1-5.15,2.18c-.12,0-.18,0-.18-.11s.09-.21.25-.21a11.13,11.13,0,0,0,1.91-.4,9.47,9.47,0,0,0,3.49-2.52,5.35,5.35,0,0,0,1.55-3.64A5.19,5.19,0,0,0,196.05,16q-.68-.54-2.1-1.5c-.95-.63-1.65-1.12-2.11-1.45a5.24,5.24,0,0,1-2.3-4.4,3.4,3.4,0,0,1,.93-2.35,2.92,2.92,0,0,1,2.24-1h.07a9.14,9.14,0,0,1,6.59-2.45c2.68,0,4.5.59,5.43,1.77A1.79,1.79,0,0,1,205.23,5.69Z"/><path class="cls-1" d="M216.9,13.18q0,.6-6.09,2.34c-1.08,2.08-1.74,3.42-2,4a11.15,11.15,0,0,0-.93,4.29c0,.79.26,1.18.79,1.18a4.52,4.52,0,0,0,2.56-1.36l1.62-1.41c.07,0,.1,0,.1.11a.79.79,0,0,1-.1.32,9.08,9.08,0,0,1-2,1.93,4,4,0,0,1-2.16,1.06q-1.8,0-1.8-2.19a12.94,12.94,0,0,1,.79-3.93A2.48,2.48,0,0,0,206.31,18c-.21-.1-.54-.23-1-.4s-.78-.31-1-.43a.73.73,0,0,1-.4-.74.61.61,0,0,1,.51-.67h1a19.82,19.82,0,0,0,4-.43l3.46-7.74A1.15,1.15,0,0,1,214,7c.63,0,1,.12,1,.36,0,.08-.45,1.1-1.35,3.08s-1.4,3-1.49,3.12l-.62.57-.43.87q.87-.25,5.26-1.8a3.57,3.57,0,0,1,.45-.08C216.87,13.1,216.9,13.13,216.9,13.18ZM209.12,16q-2,.48-3.63.72A4.85,4.85,0,0,1,207.9,19C208.14,18.34,208.55,17.33,209.12,16Z"/><path class="cls-1" d="M222.84,17.71,223,17a1.32,1.32,0,0,0-.38-1,1.21,1.21,0,0,0-.88-.37,13.78,13.78,0,0,1-2.13,6.73h1.12a1.62,1.62,0,0,1-.7.29,1.11,1.11,0,0,1-.33,0,.59.59,0,0,0-.2,0s0,.11-.19.24l-1.35,1.17a3.29,3.29,0,0,1-2.09,1q-1.41,0-1.41-1.8a7.79,7.79,0,0,1,1.66-4.5,7.86,7.86,0,0,1-.58-3,5.72,5.72,0,0,1,.62-2.72c.79-1.51,1.77-2.27,2.95-2.27,1.49,0,2.35,1.28,2.59,3.82a1.66,1.66,0,0,1,1.8,1.87c0,1-.16,1.48-.47,1.48C222.89,17.93,222.84,17.86,222.84,17.71Zm-6.52,1.87a7,7,0,0,0-1.19,3.19c0,.78.27,1.17.8,1.17s1.42-.5,2.34-1.51C217.47,22.33,216.83,21.38,216.32,19.58Zm2.77-8c-.76,0-1.47.75-2.12,2.26a6.43,6.43,0,0,0-.61,2.63,10.75,10.75,0,0,0,.11,1.87,9.42,9.42,0,0,1,4.6-3.67Q220.35,11.56,219.09,11.56Zm2,4.1a6.32,6.32,0,0,0-2.47,1.46,8.21,8.21,0,0,0-2.07,2.14c.51,1.82,1.12,2.82,1.84,3a8.72,8.72,0,0,0,1.78-3.13A10.91,10.91,0,0,0,221.11,15.66Z"/><path class="cls-1" d="M234.29,16.49a3.33,3.33,0,0,1-.63,1.94c-.42.6-.83.9-1.21.9-.07,0-.11,0-.11-.14.15-.36.31-.75.51-1.17a3.46,3.46,0,0,0,.28-1.44c0-.54-.2-.81-.61-.81s-1.42.66-2.61,2a20.8,20.8,0,0,0-2.5,3.25l-1.55,4.14a.38.38,0,0,1-.27.08A1.21,1.21,0,0,1,225,25c-.26-.16-.38-.31-.38-.43s.11-.25.2-.47a3.5,3.5,0,0,1,.23-.5A33.41,33.41,0,0,0,227,18.74a13.82,13.82,0,0,0,.52-3.66,14.26,14.26,0,0,1-1.3,2.56,14.11,14.11,0,0,1-1.94,3c-.15,0-.22,0-.22-.11s.5-.88,1.5-2.48a16.8,16.8,0,0,0,2-4.5c.14-.63.38-.94.72-.94s.58.48.58,1.44a16.63,16.63,0,0,1-1.66,6.37q2-2.41,2.7-3.24c1.37-1.46,2.44-2.19,3.2-2.19S234.29,15.48,234.29,16.49Z"/><path class="cls-1" d="M248.25,10.51c0,.07-.1.14-.32.2a3.43,3.43,0,0,0-.68.27q-1.62,1.15-2.81,6.16c-1.2,5.11-1.83,7.72-1.87,7.84a37.64,37.64,0,0,1-3,7.92,14.45,14.45,0,0,1-5.4,5.73,6.67,6.67,0,0,1-3.31.83,6.91,6.91,0,0,1-4-1.66c-1.47-1.1-2.2-2.26-2.2-3.46,0-.09,0-.14.09-.14s.13.07.2.22a5.47,5.47,0,0,0,5.47,3.78,7.46,7.46,0,0,0,3.74-1,12.51,12.51,0,0,0,5.23-5.86,39.3,39.3,0,0,0,2.19-7.71c.58-3.09,1.07-5.39,1.48-6.87l.61-2.24q-2.27,1.77-5.44,10.12c0,.05-.07.07-.21.07a.74.74,0,0,1-.49-.27.76.76,0,0,1-.27-.52l.61-1.51a19.29,19.29,0,0,0,.69-5.91c0-2-.42-2.95-1.26-2.95a2.83,2.83,0,0,0-1.69.9l-1,.94c-.07,0-.11,0-.11-.09a1.11,1.11,0,0,1,.07-.31,6.26,6.26,0,0,1,1.66-1.62,3.57,3.57,0,0,1,1.94-.83c1,0,1.51,1,1.51,2.92a16.55,16.55,0,0,1-1,5.26c2-3.68,3.69-5.87,5.08-6.59a7.29,7.29,0,0,1,1.22-2.74,3.23,3.23,0,0,1,2.66-1.11C248,10.3,248.25,10.37,248.25,10.51Z"/></g></g></svg>