<svg xmlns="http://www.w3.org/2000/svg" viewBox="0 0 122.82 28.48"><defs><style>.cls-1{fill:#a56d29;}</style></defs><title>Testimonial</title><g id="Layer_2" data-name="Layer 2"><g id="Layer_1-2" data-name="Layer 1"><path class="cls-1" d="M5.33,25.31l.58.11q2.76,0,6.22-7.81A62.2,62.2,0,0,0,15.74,7.24,42.2,42.2,0,0,0,7.6,6.09q-5.8,0-5.8,4,0,2.67,3.06,4.79c.1,0,.14.07.14.15s0,.1-.08.1a.53.53,0,0,1-.24-.07q-4-2.3-4-5.51A3.54,3.54,0,0,1,2.84,6.19a10.59,10.59,0,0,1,4.4-.79,52.88,52.88,0,0,1,8.68,1.15q.18-.9.36-2.52a.73.73,0,0,1,.21-.46c.07,0,.11.28.11.77a14.39,14.39,0,0,1-.29,2.29l2.63.5Q22.15,1.76,26,1.76c1.53,0,2.3.65,2.3,2q0,.36-.12.36c-.09,0-.13-.1-.13-.29,0-.94-.62-1.4-1.87-1.4q-2.59,0-5.48,5.07a32.46,32.46,0,0,0,5.55.69c2.35,0,3.53-.58,3.53-1.73a.91.91,0,0,0-.11-.49.51.51,0,0,1-.11-.25c0-.06,0-.09.07-.09s.28.18.4.52a2.85,2.85,0,0,1,.18.89c0,1.46-1.18,2.19-3.53,2.19a33.84,33.84,0,0,1-6.44-1c-1,2-2.25,4.56-3.8,7.78a44.67,44.67,0,0,1-4.38,7.52q-3.74,5-8,5a5.68,5.68,0,0,1-2.62-.57A2.24,2.24,0,0,1,0,25.78a2.53,2.53,0,0,1,1.62-2.27,6.12,6.12,0,0,1,2.88-.64c.22,0,.33,0,.33.1s-.11.11-.33.11a4.69,4.69,0,0,0-2.38.58A2,2,0,0,0,.83,25.51a1.91,1.91,0,0,0,.92,1.77,3.84,3.84,0,0,0,2,.55A7.44,7.44,0,0,0,9.4,25,26.93,26.93,0,0,0,13,19.55q1.41-2.91,2.79-6.05c.93-2.08,1.86-4,2.79-5.65l-2.41-.5A51.32,51.32,0,0,1,11.05,21q-2.81,4.89-5.14,4.89c-.51,0-.76-.12-.76-.36A.16.16,0,0,1,5.33,25.31Z"/><path class="cls-1" d="M30,19.88s0,0,0,.11a2.39,2.39,0,0,1-.29.61,12.1,12.1,0,0,1-3.24,3.33,7,7,0,0,1-4,1.53c-1.71,0-2.56-1.11-2.56-3.31a12.76,12.76,0,0,1,.25-2.38,2.77,2.77,0,0,1-.57-.79l.18.09.27.1a1.07,1.07,0,0,0,.27.09,7.53,7.53,0,0,1,2.2-3.63,5.15,5.15,0,0,1,3.56-1.87c.26,0,.4,0,.4.09s-.17.18-.51.37a7.92,7.92,0,0,0-2.48,2.24,10.21,10.21,0,0,0-1.77,3l.08.07a5.58,5.58,0,0,0,3.6-1.65,4.68,4.68,0,0,0,1.87-3.39,1.83,1.83,0,0,0-.27-.95,1,1,0,0,0-.88-.45,3.06,3.06,0,0,0-1.53.56,6.27,6.27,0,0,1-1,.55q-.09,0-.09,0,0-.43,1.17-.9a5.46,5.46,0,0,1,1.91-.47,1.88,1.88,0,0,1,1.27.47,1.61,1.61,0,0,1,.54,1.29c0,1.28-.78,2.48-2.35,3.6a9.18,9.18,0,0,1-4.45,1.88,5.27,5.27,0,0,0-.29,1.65c0,2,.72,3,2.16,3a5.33,5.33,0,0,0,3.31-1.31,11,11,0,0,0,2.67-3C29.63,20.05,29.81,19.88,30,19.88Z"/><path class="cls-1" d="M39.36,19.41c.07,0,.11.05.11.14a.47.47,0,0,1-.08.26,4.63,4.63,0,0,1-3,2.41,3.86,3.86,0,0,1-.78,2.12,2.54,2.54,0,0,1-2.16.87,3.88,3.88,0,0,1-2.82-1.43,4.44,4.44,0,0,1-1.34-3.11c0-.74.2-1.12.58-1.12s.48.18.72.54a43.27,43.27,0,0,1,3.06-5.69,3.57,3.57,0,0,1,2.95-1.94,1.81,1.81,0,0,1,.85.27c.32.18.49.38.49.59s-.11.26-.31.26a2.31,2.31,0,0,1-.45,0h-.29a2.15,2.15,0,0,0-1.42.49,1.32,1.32,0,0,0-.59,1,2.87,2.87,0,0,0,.1.85l.87,2.88a11.72,11.72,0,0,1,.5,2.95,3,3,0,0,0,1.53-.61,7.52,7.52,0,0,0,1.28-1.55A.31.31,0,0,1,39.36,19.41ZM32.91,24a1.9,1.9,0,0,0,1.91-1.41,7,7,0,0,1-4.39-1.18,3,3,0,0,0,.86,1.71A2.26,2.26,0,0,0,32.91,24Zm2-1.84a5.78,5.78,0,0,0,0-.75,15.54,15.54,0,0,0-.52-2.71,15.68,15.68,0,0,1-.52-2.66,4.43,4.43,0,0,1,0-.68,26.83,26.83,0,0,0-3.06,5.18c1,.58,1.77,1,2.27,1.21A5.18,5.18,0,0,0,34.86,22.18Z"/><path class="cls-1" d="M51.53,13.18q0,.62-6.09,2.34c-1.08,2.09-1.74,3.42-2,4a11.11,11.11,0,0,0-.93,4.28c0,.79.26,1.19.79,1.19a4.44,4.44,0,0,0,2.55-1.37l1.63-1.4c.07,0,.1,0,.1.11a.79.79,0,0,1-.1.32,9.08,9.08,0,0,1-2,1.93,4.11,4.11,0,0,1-2.16,1.06c-1.2,0-1.8-.73-1.8-2.2a12.64,12.64,0,0,1,.79-3.92A2.5,2.5,0,0,0,40.94,18l-1-.4c-.43-.16-.78-.31-1-.43a.72.72,0,0,1-.39-.74.6.6,0,0,1,.5-.66h1a20.65,20.65,0,0,0,4-.43l3.46-7.75C47.63,7.2,48,7,48.67,7s.95.12.95.36c0,.07-.45,1.09-1.35,3.07a32.78,32.78,0,0,1-1.5,3.12l-.61.58-.43.86q.87-.25,5.26-1.8a2.89,2.89,0,0,1,.45-.07C51.5,13.11,51.53,13.13,51.53,13.18ZM43.75,16c-1.34.31-2.56.55-3.64.72A4.82,4.82,0,0,1,42.53,19C42.77,18.34,43.17,17.33,43.75,16Z"/><path class="cls-1" d="M54.81,19.84a.07.07,0,0,1,.07.07q0,.61-2,2.7C51.84,23.67,51,24.2,50.48,24.2a1.62,1.62,0,0,1-1.83-1.84,11,11,0,0,1,.72-3.45l-.65,1c-.31.53-.53.8-.65.8s-.07-.07-.07-.2a2.55,2.55,0,0,1,.54-.92,19.52,19.52,0,0,0,1.58-2.95,13.85,13.85,0,0,1,.8-1.7c.12-.21.4-.32.84-.32s.67.12.67.36a2.76,2.76,0,0,1-.36,1.08,1.87,1.87,0,0,1-.61.83c-1.25,2.5-1.88,4.33-1.88,5.51,0,.79.27,1.19.8,1.19.86,0,1.81-.63,2.84-1.88L54,20.8c.1-.11.19-.23.29-.35l.25-.28A1.37,1.37,0,0,0,54.81,19.84Zm-1.12-9.79a3.85,3.85,0,0,1,1-.36q.18,0,.18.09a6.33,6.33,0,0,1-.83,1l-.54,1.12c-.21.48-.49.72-.83.72s-.72-.25-.72-.76a1.65,1.65,0,0,1,.49-.92A3.65,3.65,0,0,1,53.69,10.05Z"/><path class="cls-1" d="M56.21,18.11,56,15.45a.37.37,0,0,1,.28-.36l1.59-.43a1.85,1.85,0,0,1,1.8-1.23c.36,0,.48.15.36.43l.86-.39s.08,0,.08.11-.39.49-1.16.82c-.64,1.49-1.79,4.41-3.42,8.75,1.39-1.6,2.49-2.94,3.28-4a43.93,43.93,0,0,1,2.66-4.22,1.65,1.65,0,0,1,1.48-.64c.7,0,1,.26,1,.79a15.27,15.27,0,0,1-.91,2.61A23.4,23.4,0,0,0,63,20.13a18.81,18.81,0,0,0,3.38-4.07c.1-.17.19-.25.27-.25s.13.06.13.18a11.62,11.62,0,0,1-1.91,3.09l-2.36,3.14a.55.55,0,0,1-.47.21c-.2,0-.3-.08-.3-.25s.32-1.63,1-4.18A9.48,9.48,0,0,0,63,15.7,45,45,0,0,1,59.67,20L56.1,24.05c-.07.65-.38,1-.94,1-.21,0-.32-.1-.32-.29l.07-.18s.06-.39.33-1A12.88,12.88,0,0,0,55.92,21,16.68,16.68,0,0,0,56.21,18.11Zm1.37-2.84-1,.32a10.88,10.88,0,0,1,.18,1.91C57,16.9,57.24,16.16,57.58,15.27Zm15.26,8.39c0,.19-.27.38-.82.56a4.54,4.54,0,0,1-1.19.27c-1.32,0-2.35-.88-3.1-2.63a9.53,9.53,0,0,1-.9-3.87,6.35,6.35,0,0,1,.25-2.33A.92.92,0,0,1,68,15.2c.42,0,.65.06.7.18s-.11.24-.18.73a16.35,16.35,0,0,0-.11,2.15A9.43,9.43,0,0,0,69,21.39c.58,1.66,1.38,2.48,2.41,2.48a1.85,1.85,0,0,0,.72-.16,1.74,1.74,0,0,1,.56-.16C72.79,23.55,72.84,23.59,72.84,23.66Z"/><path class="cls-1" d="M81.23,17.72l.11-.69a1.26,1.26,0,0,0-.38-1,1.2,1.2,0,0,0-.88-.38A13.74,13.74,0,0,1,78,22.43h1.11a1.46,1.46,0,0,1-.7.29,1.17,1.17,0,0,1-.32,0,.45.45,0,0,0-.2,0s0,.1-.2.23L76.3,24.05a3.29,3.29,0,0,1-2.09,1c-.93,0-1.4-.6-1.4-1.8a7.77,7.77,0,0,1,1.65-4.51,7.78,7.78,0,0,1-.57-3A5.65,5.65,0,0,1,74.5,13c.79-1.52,1.78-2.27,3-2.27q2.23,0,2.6,3.81a1.67,1.67,0,0,1,1.8,1.88c0,1-.16,1.47-.47,1.47Q81.23,17.93,81.23,17.72Zm-6.51,1.87a6.87,6.87,0,0,0-1.19,3.19c0,.78.26,1.17.79,1.17s1.43-.51,2.34-1.52C75.87,22.34,75.22,21.39,74.72,19.59Zm2.77-8c-.77,0-1.48.76-2.13,2.27a6.56,6.56,0,0,0-.61,2.63,12,12,0,0,0,.11,1.87,9.33,9.33,0,0,1,4.61-3.67C79,12.59,78.33,11.56,77.49,11.56Zm2,4.1A6.45,6.45,0,0,0,77,17.12,8,8,0,0,0,75,19.26c.5,1.83,1.12,2.83,1.84,3a8.78,8.78,0,0,0,1.78-3.13A10.85,10.85,0,0,0,79.51,15.66Z"/><path class="cls-1" d="M81.77,25l2-9.11A19.11,19.11,0,0,0,83,13.94c0-.17.2-.33.61-.47a9,9,0,0,1,2.32-.69c.35,0,.52.11.52.33-.88,2.21-1.5,3.74-1.83,4.61v.21c0,.75-.11,1.12-.33,1.12,0,0-.08,0-.1-.11-.51,1.51-.86,2.62-1,3.31a36.28,36.28,0,0,1,3.39-4.71q2.7-3.13,4.46-3.14c.55,0,.83.22.83.65q0,.25-2.09,7.92A13.12,13.12,0,0,0,93,19.66q.18-.21.27-.21c.06,0,.09,0,.09.1a.62.62,0,0,1-.1.29,14,14,0,0,1-3.86,4.47.57.57,0,0,1-.45.21c-.18,0-.27-.11-.27-.32s.15-1,.43-2.45.5-2.5.63-3.24A19.39,19.39,0,0,0,90,15.7a13.64,13.64,0,0,0-3.63,3.1,20.62,20.62,0,0,0-2.87,3.71,10.48,10.48,0,0,0-.9,2.17c-.13.57-.3.85-.5.85s-.31-.16-.31-.47Zm2.56-11.27a3,3,0,0,1-.68.36l.36.83Z"/><path class="cls-1" d="M99.31,19.84a.06.06,0,0,1,.07.07q0,.61-2,2.7C96.35,23.67,95.54,24.2,95,24.2a1.63,1.63,0,0,1-1.84-1.84,11,11,0,0,1,.72-3.45l-.64,1c-.32.53-.53.8-.65.8s-.07-.07-.07-.2a2.55,2.55,0,0,1,.54-.92,20.51,20.51,0,0,0,1.58-2.95,15.28,15.28,0,0,1,.79-1.7c.12-.21.4-.32.85-.32s.66.12.66.36a2.76,2.76,0,0,1-.36,1.08c-.24.48-.44.76-.61.83-1.25,2.5-1.87,4.33-1.87,5.51,0,.79.26,1.19.79,1.19.87,0,1.81-.63,2.85-1.88.43-.5.69-.81.79-.91l.29-.35a2.53,2.53,0,0,1,.25-.28A1.3,1.3,0,0,0,99.31,19.84Zm-1.12-9.79a3.86,3.86,0,0,1,1-.36q.18,0,.18.09a6.33,6.33,0,0,1-.83,1L98,11.92c-.22.48-.49.72-.83.72s-.72-.25-.72-.76a1.59,1.59,0,0,1,.49-.92A3.7,3.7,0,0,1,98.19,10.05Z"/><path class="cls-1" d="M111,20c.07,0,.11.05.11.16a.58.58,0,0,1-.14.34q-3.24,4.83-5,4.83a1.57,1.57,0,0,1-1.46-.92,4.36,4.36,0,0,1-.48-2.05,11.12,11.12,0,0,1,.36-2.61q-2.28,5-4.68,5c-1,0-1.48-.64-1.48-1.91q0-3.06,3-6.37t5.92-3.32q1.41,0,1.41,1.23c0,1-.67,2-2,3a13.25,13.25,0,0,0-1,5c0,1.6.3,2.39.9,2.39q1.18,0,4.32-4.53C110.83,20.05,110.94,20,111,20Zm-4.14-3.78a2.67,2.67,0,0,0,.58-1.59c0-.52-.25-.79-.76-.79q-1.8,0-4.72,3.55t-2.91,5.45c0,.56.26.83.79.83,1.51,0,3-1.68,4.39-5a4.14,4.14,0,0,1-.86.18c-.15,0-.22,0-.22-.11s.17-.24.51-.36l1.11-.65a4,4,0,0,1,.76-1.6c.46-.66.89-1,1.3-1,.14,0,.21.1.21.29A2.89,2.89,0,0,1,106.87,16.17Z"/><path class="cls-1" d="M120.05,6.55a2.59,2.59,0,0,0-.65.54Q112.77,19.45,112.78,23c0,.8.26,1.19.79,1.19a5.15,5.15,0,0,0,2.81-1.58l.41-.36c.09-.07.12-.11.09-.11s.15,0,.15.11a.66.66,0,0,1-.15.32c-1,1.49-2.14,2.23-3.24,2.23s-1.8-.63-1.8-1.9.61-3.57,1.84-6.88c-.6.81-1,1.22-1.26,1.22-.07,0-.11,0-.11-.07a11.88,11.88,0,0,1,1-1.31c.64-.83,1-1.29,1-1.39a68.78,68.78,0,0,1,3.35-7.78q2.23-4.53,3.06-6A1.2,1.2,0,0,1,121.9,0c.62,0,.92.08.92.25S121.9,2.52,120.05,6.55Z"/></g></g></svg>