<svg xmlns="http://www.w3.org/2000/svg" viewBox="0 0 119.17 23.05"><defs><style>.cls-1{fill:#a56d29;}</style></defs><title>Unique Method</title><g id="Layer_2" data-name="Layer 2"><g id="Layer_1-2" data-name="Layer 1"><path class="cls-1" d="M18.72,13.69a6.74,6.74,0,0,1,.35-.59c.15-.25.25-.37.3-.37s.07,0,.07,0a.37.37,0,0,1-.05.15c-1.34,2.4-2.51,3.6-3.53,3.6-1.55,0-2.33-1.13-2.33-3.39a23.23,23.23,0,0,1,.83-5.28,42.59,42.59,0,0,1-3.69,5.26c-2,2.47-3.51,3.71-4.63,3.71-1,0-1.45-.67-1.45-2A15.67,15.67,0,0,1,5.94,9.43,44.23,44.23,0,0,1,8.78,3.48l-.92-.37A27.67,27.67,0,0,0,4.48,9.83a21.5,21.5,0,0,0-1.46,7c0,.14,0,.21-.1.21s-.11-.22-.11-.67A19.77,19.77,0,0,1,4.29,9.51,26.71,26.71,0,0,1,7.65,3,8.47,8.47,0,0,0,5,2.58,5.58,5.58,0,0,0,1,4.15a1.21,1.21,0,0,0-.44.9q0,.87,1.47,1.5a1.9,1.9,0,0,1,.53.29s0,0-.1,0a2,2,0,0,1-.47-.14C.65,6.19,0,5.54,0,4.77A1.56,1.56,0,0,1,.53,3.71,6.48,6.48,0,0,1,5.35,2a10.68,10.68,0,0,1,2.81.37c.69-.85,1.13-1.27,1.32-1.27s.08,0,.06.07a2.29,2.29,0,0,1-.44.46,5.79,5.79,0,0,0-.73.78c1.2.36,1.8.66,1.8.93v.07A15.8,15.8,0,0,0,9.11,5.3Q5.78,11.52,5.79,15c0,1,.23,1.43.71,1.43q1.33,0,4.27-4a45.07,45.07,0,0,0,4.05-6.34,17.06,17.06,0,0,0,.56-2.15A.55.55,0,0,1,16,3.57c.3,0,.44.1.44.28a35.21,35.21,0,0,1-.82,3.93A25.23,25.23,0,0,0,14.76,13c0,2.19.42,3.29,1.26,3.29S17.64,15.4,18.72,13.69Z"/><path class="cls-1" d="M18.83,15.93l1.3-5.83a13.15,13.15,0,0,0-.51-1.25q0-.15.39-.3a5.83,5.83,0,0,1,1.49-.43c.22,0,.33.06.33.2-.57,1.42-1,2.4-1.17,2.95v.14q0,.72-.21.72a.08.08,0,0,1-.07-.07c-.32,1-.55,1.67-.67,2.12a23.8,23.8,0,0,1,2.17-3c1.15-1.34,2.1-2,2.86-2,.35,0,.53.14.53.42q0,.16-1.34,5.07A8.42,8.42,0,0,0,26,12.52c.08-.09.14-.14.18-.14s.06,0,.06.07a.41.41,0,0,1-.07.18,8.8,8.8,0,0,1-2.47,2.86.37.37,0,0,1-.29.14c-.11,0-.17-.07-.17-.21a14.13,14.13,0,0,1,.28-1.56c.18-.91.31-1.6.4-2.08a14.73,14.73,0,0,0,.17-1.8,8.88,8.88,0,0,0-2.33,2,13.07,13.07,0,0,0-1.83,2.37,6.59,6.59,0,0,0-.58,1.39c-.08.37-.19.55-.32.55s-.2-.1-.2-.3Zm1.64-7.22A2,2,0,0,1,20,9l.23.53Z"/><path class="cls-1" d="M30.06,12.63a0,0,0,0,1,.05,0c0,.26-.42.84-1.27,1.73-.68.68-1.19,1-1.54,1a1,1,0,0,1-1.18-1.17A7.06,7.06,0,0,1,26.58,12l-.41.65q-.3.51-.42.51s0,0,0-.13a1.63,1.63,0,0,1,.34-.59,12.12,12.12,0,0,0,1-1.89,9.78,9.78,0,0,1,.5-1.08q.12-.21.54-.21c.29,0,.43.08.43.23a1.76,1.76,0,0,1-.23.69c-.15.31-.28.49-.39.53a9.24,9.24,0,0,0-1.2,3.53c0,.51.17.76.51.76a2.64,2.64,0,0,0,1.82-1.2c.28-.32.44-.52.51-.58l.18-.22.16-.19A.69.69,0,0,0,30.06,12.63Zm-.71-6.27A2.59,2.59,0,0,1,30,6.13q.12,0,.12.06a4.06,4.06,0,0,1-.53.66l-.35.71c-.14.31-.32.46-.53.46s-.46-.16-.46-.48A1,1,0,0,1,28.53,7,2.44,2.44,0,0,1,29.35,6.36Z"/><path class="cls-1" d="M36.47,9.13a2.61,2.61,0,0,1-1.29,1.94,48.53,48.53,0,0,0-2.42,7,7.83,7.83,0,0,1,1.34,2.85,2.8,2.8,0,0,1-.45,1.43,1.26,1.26,0,0,1-1,.74.76.76,0,0,1-.73-.32c-.25-.15-.37-.61-.37-1.38a15,15,0,0,1,.6-3.44,5.86,5.86,0,0,1-.74-2.26,1.54,1.54,0,0,1-.58.12c-.63,0-.94-.41-.94-1.22a6.49,6.49,0,0,1,2-4C33.18,9,34.4,8.28,35.53,8.28,36.16,8.28,36.47,8.56,36.47,9.13Zm-.67.18a.44.44,0,0,0-.5-.5c-.83,0-1.85.73-3,2.21s-1.79,2.64-1.79,3.5c0,.36.15.53.46.53a1.21,1.21,0,0,0,.48-.11,2.12,2.12,0,0,1,.71-1.27.28.28,0,0,1,.18-.09c.05,0,.08,0,.08.09s-.18.22-.36.42a1.31,1.31,0,0,0-.33.69,6.44,6.44,0,0,0,2-2.95,3,3,0,0,1-.56.11c-.09,0-.13,0-.13-.07s.1-.15.32-.23l.71-.41a2.33,2.33,0,0,1,.42-.74.79.79,0,0,1,.56-.37.39.39,0,0,1,.36.16A1.66,1.66,0,0,0,35.8,9.31Zm-2,3.23a6.88,6.88,0,0,1-2.14,3,4.49,4.49,0,0,0,.64,1.77c.29-1,.6-2,.91-2.94S33.74,12.8,33.82,12.54Zm-.55,8.21a4.93,4.93,0,0,0-.67-2,10.56,10.56,0,0,0-.23,2,3.68,3.68,0,0,0,.23,1.38v.05h.07C33.07,22.18,33.27,21.7,33.27,20.75Z"/><path class="cls-1" d="M43.13,14.48v0a2.23,2.23,0,0,1-1.77,1.11c-.65,0-1-.57-1-1.7,0-.47,0-1.12.12-2a10.48,10.48,0,0,1-2.89,3.22c-.13.11-.4.31-.78.6a.67.67,0,0,1-.4.09c-.19,0-.29,0-.29-.13a5.48,5.48,0,0,1,.75-2.29,13.08,13.08,0,0,0,.93-2.08A6.4,6.4,0,0,0,38,9.59a9.13,9.13,0,0,1-.83,1.64,9,9,0,0,1-1.25,1.91c-.09,0-.14,0-.14-.09l.7-1.18a13.28,13.28,0,0,0,1.42-3.25c.1-.4.28-.6.56-.6s.41.35.41,1.05a10.51,10.51,0,0,1-.6,2.94l-1,3a12.73,12.73,0,0,0,3.22-3.62,5.19,5.19,0,0,1,.62-2.12.67.67,0,0,1,.52-.16c.26,0,.38.08.38.25a2.05,2.05,0,0,1-.43,1.27A11.89,11.89,0,0,0,41.13,14c0,.73.23,1.1.69,1.1a1.08,1.08,0,0,0,.7-.3l.46-.39.09-.09S43.13,14.39,43.13,14.48Z"/><path class="cls-1" d="M49.77,12.66s0,0,0,.07a1.42,1.42,0,0,1-.19.39,7.55,7.55,0,0,1-2.07,2.13,4.48,4.48,0,0,1-2.56,1c-1.09,0-1.64-.71-1.64-2.12a8.37,8.37,0,0,1,.16-1.52,1.72,1.72,0,0,1-.37-.51.33.33,0,0,0,.12.06l.17.07.18.06A4.79,4.79,0,0,1,45,9.94a3.34,3.34,0,0,1,2.28-1.2c.17,0,.26,0,.26.06s-.11.11-.33.24a5.24,5.24,0,0,0-1.59,1.43,6.69,6.69,0,0,0-1.13,1.93l0,0a3.55,3.55,0,0,0,2.31-1.06A3,3,0,0,0,48,9.22a1.13,1.13,0,0,0-.17-.61.6.6,0,0,0-.56-.29,2,2,0,0,0-1,.36,3.74,3.74,0,0,1-.65.36s-.06,0-.06,0q0-.27.75-.57a3.49,3.49,0,0,1,1.23-.3,1.2,1.2,0,0,1,.81.3,1,1,0,0,1,.35.83,3,3,0,0,1-1.51,2.3,5.74,5.74,0,0,1-2.85,1.2,3.47,3.47,0,0,0-.18,1.06q0,1.92,1.38,1.92a3.37,3.37,0,0,0,2.12-.85A7,7,0,0,0,49.43,13C49.57,12.76,49.68,12.66,49.77,12.66Z"/><path class="cls-1" d="M67.67,3.76a15.22,15.22,0,0,1-2.06,7.14,18.68,18.68,0,0,1-4.79,6A8.08,8.08,0,0,1,55.72,19a2,2,0,0,1-1.38-.48,1.82,1.82,0,0,1-.53-1.39,3.25,3.25,0,0,1,.74-1.91.16.16,0,0,1,.11-.07s.05,0,.05.09-.13.33-.21.58A2.88,2.88,0,0,0,54.25,17a1.78,1.78,0,0,0,.42,1.12,1.42,1.42,0,0,0,1.17.53c1.81,0,3.64-.89,5.49-2.69a20.88,20.88,0,0,0,4-5.93A14.84,14.84,0,0,0,67,3.9a3.9,3.9,0,0,0,0-.4,3.5,3.5,0,0,1-.81.26,20.46,20.46,0,0,1-1.5,5.12,25.67,25.67,0,0,1-2.79,5,12.21,12.21,0,0,1-3.62,3.55,3.94,3.94,0,0,1-1.89.64c-.15,0-.23-.06-.23-.17s.08-.18.23-.19a6,6,0,0,0,1-.24,10.43,10.43,0,0,0,4.36-3.85A23.15,23.15,0,0,0,65.87,3.8q-1.16.2-3.33.42a31.47,31.47,0,0,0-3.34.48c-1.81.46-2.72,1.16-2.72,2.08a2.87,2.87,0,0,0,1,2.05,4.13,4.13,0,0,0,2,1.18c.09,0,.14,0,.14.06s-.07.1-.19.1a3.23,3.23,0,0,1-2.32-1.06,3.33,3.33,0,0,1-1-2.39c0-.88.7-1.65,2.08-2.29a16.41,16.41,0,0,1,4.26-1.16c.79-.13,2-.31,3.53-.53,0-.43.07-1.16.07-2.21,0-.12,0-.18.16-.18s.14.28.14.85,0,1.07,0,1.5l.7-.19a.45.45,0,0,1,.3-.16c.15,0,.25.11.3.31A6.51,6.51,0,0,1,67.67,3.76Zm16.71.07.21-1.16c0-1-.54-1.54-1.62-1.54-1.67,0-3.66,1.4-5.94,4.2a58.25,58.25,0,0,0-.81,7.47q0,3.45,1.29,3.45c.71,0,1.6-.85,2.67-2.56l.51-.8c.06-.11.12-.16.16-.16s0,0,0,.1a.19.19,0,0,1,0,.13q-1.89,3.57-3.48,3.57c-1.52,0-2.28-1.08-2.28-3.25A30.91,30.91,0,0,1,76.45,6q-1.33,1.71-5.07,7.68a16.65,16.65,0,0,1-2.32,3.1c-.64.61-1,.91-1.16.91s-.05-.05-.05-.15a.2.2,0,0,1,.18-.2,2.94,2.94,0,0,0,.26-1.48,22.54,22.54,0,0,0-.46-3.54A23,23,0,0,1,67.5,8.6a17.61,17.61,0,0,1,.44-3.76c.42-1.81,1-2.72,1.87-2.72,0,0,0,0,0,.06s0,.08-.11.13c-.72.36-1.08,1.62-1.08,3.75a41.85,41.85,0,0,0,.62,6.32,6.15,6.15,0,0,1,.07.88,7.27,7.27,0,0,1-1,4c.72-.47,2-2.17,3.71-5.12.62-1.06,1.39-2.32,2.33-3.77s1.74-2.6,2.42-3.45a5.57,5.57,0,0,1,.42-1.38s.07.06.07.18a6.24,6.24,0,0,1-.1.72A18.76,18.76,0,0,1,79.81,1.8,5.6,5.6,0,0,1,83,.23a1.65,1.65,0,0,1,1.32.6A2,2,0,0,1,84.77,2a7.24,7.24,0,0,1-.11,1.24c-.08.41-.17.62-.28.64Z"/><path class="cls-1" d="M87.61,12.66s0,0,0,.07a1.59,1.59,0,0,1-.18.39,7.6,7.6,0,0,1-2.08,2.13,4.48,4.48,0,0,1-2.56,1c-1.09,0-1.64-.71-1.64-2.12a7.61,7.61,0,0,1,.17-1.52,1.56,1.56,0,0,1-.37-.51s0,0,.11.06l.17.07.18.06a4.79,4.79,0,0,1,1.4-2.33,3.34,3.34,0,0,1,2.29-1.2c.17,0,.25,0,.25.06s-.11.11-.32.24a5,5,0,0,0-1.59,1.43,6.47,6.47,0,0,0-1.13,1.93l0,0a3.55,3.55,0,0,0,2.31-1.06,3,3,0,0,0,1.2-2.17,1.22,1.22,0,0,0-.17-.61.63.63,0,0,0-.57-.29,2,2,0,0,0-1,.36,3.74,3.74,0,0,1-.65.36s-.05,0-.05,0q0-.27.75-.57a3.45,3.45,0,0,1,1.22-.3,1.22,1.22,0,0,1,.82.3,1,1,0,0,1,.34.83,3,3,0,0,1-1.51,2.3,5.67,5.67,0,0,1-2.84,1.2,3.21,3.21,0,0,0-.19,1.06q0,1.92,1.38,1.92a3.35,3.35,0,0,0,2.12-.85A7,7,0,0,0,87.26,13C87.4,12.76,87.51,12.66,87.61,12.66Z"/><path class="cls-1" d="M95.56,8.37q0,.39-3.9,1.5c-.69,1.33-1.11,2.19-1.26,2.56a7,7,0,0,0-.6,2.74c0,.51.17.76.5.76a2.87,2.87,0,0,0,1.64-.88l1-.89s.07,0,.07.06a.63.63,0,0,1-.07.21,5.82,5.82,0,0,1-1.25,1.24,2.6,2.6,0,0,1-1.38.68c-.77,0-1.15-.47-1.15-1.41a8.31,8.31,0,0,1,.5-2.51,1.59,1.59,0,0,0-.92-.95l-.62-.25L87.49,11a.46.46,0,0,1-.25-.47.38.38,0,0,1,.32-.43h.62a13.2,13.2,0,0,0,2.56-.27l2.22-5c.1-.28.36-.42.77-.42s.61.08.61.23-.29.71-.87,2-.89,1.94-1,2l-.4.37-.27.55c.37-.11,1.49-.49,3.36-1.15l.29,0S95.56,8.34,95.56,8.37Zm-5,1.8c-.86.2-1.64.35-2.33.46A3.1,3.1,0,0,1,89.8,12.1C90,11.67,90.21,11,90.58,10.17Z"/><path class="cls-1" d="M99.41,8.85,99.2,10.6a10,10,0,0,0,.42,2.84c.4,1.32.94,2,1.63,2a1.2,1.2,0,0,0,.47-.11,1.52,1.52,0,0,1,.32-.12q.18,0,.18.21c0,.14-.15.27-.47.39A2.05,2.05,0,0,1,101,16c-.78,0-1.46-.59-2-1.78A7.54,7.54,0,0,1,98.12,11a3.25,3.25,0,0,1,0-.39,26.21,26.21,0,0,1-3.29,3.51c-.2.67-.37,1.35-.51,2a.73.73,0,0,1-.76.62c-.19,0-.26-.06-.23-.19A3.49,3.49,0,0,0,93,16a1.42,1.42,0,0,1-.26-.55c0-.09,0-.14.16-.16a8.66,8.66,0,0,0,1-.8q1.39-4.11,4.81-11.65a1.84,1.84,0,0,0,.14-.34,6.89,6.89,0,0,1,.46-1c.17-.35.58-.53,1.23-.53.23,0,.34.05.34.16l-1.38,2.6a75.43,75.43,0,0,0-4.45,9.62A19,19,0,0,0,98.67,8.9a.48.48,0,0,1,.44-.23Q99.41,8.67,99.41,8.85Zm-5.69,6.3-.49.39a1.79,1.79,0,0,1,.23.48A8.34,8.34,0,0,1,93.72,15.15Z"/><path class="cls-1" d="M107.46,11.27l.07-.43a.87.87,0,0,0-.25-.62.77.77,0,0,0-.56-.24,8.88,8.88,0,0,1-1.36,4.31h.71a1,1,0,0,1-.45.19l-.2,0a.31.31,0,0,0-.13,0s0,.07-.13.15l-.86.75A2.08,2.08,0,0,1,103,16c-.6,0-.9-.38-.9-1.15a5,5,0,0,1,1.06-2.88,5.06,5.06,0,0,1-.37-1.9,3.66,3.66,0,0,1,.39-1.74c.51-1,1.14-1.46,1.9-1.46.95,0,1.5.82,1.66,2.45a1.07,1.07,0,0,1,1.15,1.2c0,.63-.1.94-.3.94S107.46,11.37,107.46,11.27Zm-4.18,1.2a4.53,4.53,0,0,0-.76,2q0,.75.51.75c.41,0,.91-.32,1.5-1C104,14.23,103.61,13.63,103.28,12.47Zm1.78-5.14c-.49,0-1,.49-1.36,1.45a4.18,4.18,0,0,0-.39,1.69,7.23,7.23,0,0,0,.07,1.2,6,6,0,0,1,3-2.36C106,8,105.6,7.33,105.06,7.33ZM106.35,10a4.18,4.18,0,0,0-1.58.93,5.3,5.3,0,0,0-1.33,1.38c.33,1.16.72,1.8,1.18,1.91a5.63,5.63,0,0,0,1.14-2A7,7,0,0,0,106.35,10Z"/><path class="cls-1" d="M115.59,7.12c.19,0,.28.2.28.45a3.34,3.34,0,0,1-.59,1.35,4.29,4.29,0,0,1-.91,1.2,11.49,11.49,0,0,0-.77,2.25,10.16,10.16,0,0,0-.33,2.38c0,.7.2,1,.6,1s1-.41,1.68-1.24a19.05,19.05,0,0,0,1.24-1.87c.06-.09.12-.14.16-.14s.07,0,.07.07l0,.14c-1.19,2.29-2.29,3.43-3.32,3.43s-1.34-.64-1.34-1.93a14,14,0,0,1,.42-2.81,26.64,26.64,0,0,1-1.55,2.65c-.83,1.13-1.6,1.7-2.3,1.7s-1.06-.47-1.06-1.43q0-2.19,2.32-4.65A7.71,7.71,0,0,1,114.72,7Q116.4,2.85,117.6.53A1.45,1.45,0,0,1,118.84,0c.22,0,.33.05.33.16Q117.37,3.55,115.59,7.12Zm-7.19,6.81c0,.67.21,1,.62,1,1.13,0,2.22-1.25,3.3-3.76a2.94,2.94,0,0,1-.63.14c-.12,0-.18,0-.18-.1s.11-.14.32-.21a3.3,3.3,0,0,0,.77-.43c.14-.37.25-.68.33-.94s.16-.39.22-.39.16.06.16.2a2.66,2.66,0,0,1-.21.76l.42-.3,1-2.39a8.65,8.65,0,0,0-3.92,2.55C109.12,11.52,108.4,12.8,108.4,13.93Z"/></g></g></svg>